<?xml version="1.0" encoding="UTF-8"?><svg xmlns="http://www.w3.org/2000/svg" xmlns:xlink="http://www.w3.org/1999/xlink" viewBox="0 0 748.57 983.43"><defs><style>.cls-1{stroke:#f4f4f4;}.cls-1,.cls-2,.cls-3,.cls-4,.cls-5,.cls-6,.cls-7,.cls-8,.cls-9,.cls-10,.cls-11,.cls-12,.cls-13,.cls-14,.cls-15,.cls-16,.cls-17,.cls-18,.cls-19,.cls-20,.cls-21,.cls-22,.cls-23{fill:none;}.cls-1,.cls-2,.cls-3,.cls-4,.cls-5,.cls-6,.cls-7,.cls-8,.cls-9,.cls-10,.cls-11,.cls-12,.cls-13,.cls-14,.cls-15,.cls-17,.cls-18,.cls-19,.cls-20,.cls-21,.cls-22,.cls-23{stroke-miterlimit:10;stroke-width:.5px;}.cls-2{stroke:#e9e9e9;}.cls-24{fill:#fff;}.cls-3{stroke:#9b9b9b;}.cls-4{stroke:#c7c7c7;}.cls-5{stroke:#d2d2d2;}.cls-6{stroke:#a0a0a0;}.cls-25{isolation:isolate;}.cls-7{stroke:#eee;}.cls-8{stroke:#a6a6a6;}.cls-9{stroke:#f9f9f9;}.cls-10{stroke:#ababab;}.cls-11{stroke:#8a8a8a;}.cls-12{stroke:#fff;}.cls-13{stroke:#c2c2c2;}.cls-26{clip-path:url(#clippath);}.cls-14{stroke:#d8d8d8;}.cls-15{stroke:#cdcdcd;}.cls-17{stroke:#dedede;}.cls-18{stroke:#e3e3e3;}.cls-19{stroke:#959595;}.cls-27{mix-blend-mode:multiply;}.cls-20{stroke:#909090;}.cls-21{stroke:#b7b7b7;}.cls-22{stroke:#bcbcbc;}.cls-23{stroke:#b1b1b1;}</style><clipPath id="clippath"><rect class="cls-16" x="121.77" y="153.39" width="449.29" height="623.62"/></clipPath></defs><g class="cls-25"><g id="PRINT"><g class="cls-26"><g><rect class="cls-24" x="98.49" y="123.25" width="495.84" height="683.91"/><g><g class="cls-27"><path class="cls-11" d="M391.6,825.85c-16.96-11.06-23.64-34.14-18.61-53.75,5.03-19.61,20.02-35.59,37.63-45.56,17.61-9.97,37.74-14.59,57.75-17.62,19.27-2.92,39.51-4.77,55.95-15.24,25.29-16.11,35.12-49.86,29.86-79.38-5.26-29.52-22.96-55.34-42.83-77.81-14.05-15.89-30.6-34.19-26.96-55.09,3.32-19.07,22.89-31.29,41.9-34.9,31.64-6,66.09,6.22,86.88,30.81,9.45,11.18,16.05,24.43,23.41,37.08,7.36,12.66,15.83,25.14,27.85,33.5,12.01,8.37,28.29,11.93,41.54,5.72"/><path class="cls-20" d="M395.98,826.96c-17.41-11.72-24.38-35.53-19.34-55.91,5.04-20.39,20.42-37.16,38.7-47.51,17.33-9.81,37.11-14.44,56.75-17.61,18.92-3.06,38.74-5.14,54.78-15.6,1.81-1.18,3.55-2.46,5.2-3.82,20.81-17.13,28.55-47.56,23.82-74.51-.86-4.92-2.07-9.74-3.58-14.45-7.38-23.16-21.86-43.93-37.59-62.49-4.81-5.69-9.91-11.67-14.29-17.96-7.81-11.18-13.31-23.32-10.84-36.42,3.53-18.68,22.69-30.7,41.43-34.15,23-4.25,47.39,1.45,66.8,14.42,6.82,4.56,13.03,10.01,18.36,16.26,9.33,10.93,15.98,23.79,23.39,35.98,.41,.67,.82,1.34,1.24,2.01,7.13,11.48,15.35,22.51,26.55,29.95,11.86,7.86,27.74,11.04,40.66,4.81"/><path class="cls-19" d="M400.36,828.06c-17.86-12.38-25.13-36.92-20.07-58.08,5.06-21.16,20.82-38.74,39.77-49.46,17.04-9.64,36.49-14.29,55.75-17.59,18.58-3.2,37.96-5.51,53.6-15.96,1.77-1.18,3.46-2.45,5.07-3.8,20.28-17.05,27.69-46.93,23.1-73.46-.84-4.84-2.01-9.59-3.46-14.23-7.14-22.82-21.09-43.38-36.03-61.84-4.57-5.67-9.4-11.61-13.52-17.85-7.35-11.05-12.4-23.02-9.8-35.82,3.73-18.29,22.5-30.1,40.95-33.4,22.58-4.05,46.41,1.8,65.41,14.6,6.67,4.49,12.77,9.85,18.03,15.95,9.22,10.67,15.9,23.15,23.36,34.89,.41,.65,.83,1.29,1.24,1.94,7.18,11.04,15.43,21.52,26.48,28.48,11.7,7.36,27.2,10.15,39.77,3.9"/><path class="cls-3" d="M404.74,829.16c-18.31-13.04-25.87-38.3-20.8-60.25,5.07-21.94,21.21-40.32,40.84-51.41,16.76-9.48,35.86-14.14,54.75-17.58,18.23-3.34,37.19-5.89,52.43-16.32,1.72-1.18,3.37-2.44,4.94-3.79,19.76-16.96,26.84-46.3,22.39-72.42-.81-4.76-1.94-9.44-3.35-14.01-6.9-22.49-20.32-42.84-34.48-61.19-4.34-5.64-8.88-11.56-12.75-17.73-6.86-10.94-11.48-22.72-8.76-35.23,3.94-17.9,22.31-29.51,40.48-32.64,22.16-3.86,45.43,2.16,64.02,14.77,6.53,4.43,12.5,9.68,17.7,15.63,9.11,10.41,15.82,22.51,23.34,33.79,.41,.62,.83,1.24,1.25,1.86,7.23,10.59,15.51,20.53,26.42,27.01,11.55,6.86,26.65,9.26,38.89,2.99"/><path class="cls-6" d="M409.12,830.27c-18.76-13.7-26.62-39.69-21.54-62.41,5.08-22.72,21.61-41.89,41.91-53.36,16.47-9.32,35.24-13.99,53.74-17.56,17.89-3.48,36.41-6.26,51.25-16.68,1.68-1.18,3.28-2.44,4.81-3.78,19.23-16.88,25.98-45.66,21.67-71.38-.79-4.69-1.88-9.29-3.23-13.79-6.65-22.15-19.54-42.29-32.93-60.54-4.1-5.62-8.36-11.5-11.97-17.62-6.38-10.82-10.57-22.42-7.71-34.64,4.14-17.52,22.11-28.91,40.01-31.89,21.74-3.66,44.45,2.51,62.63,14.95,6.38,4.36,12.24,9.52,17.37,15.32,8.99,10.15,15.74,21.88,23.32,32.69,.42,.6,.84,1.19,1.26,1.78,7.28,10.15,15.58,19.54,26.35,25.55,11.39,6.36,26.11,8.37,38.01,2.08"/><path class="cls-8" d="M413.5,831.37c-19.22-14.36-27.37-41.08-22.27-64.58,5.1-23.5,22.01-43.47,42.98-55.31,16.18-9.15,34.61-13.84,52.74-17.54,17.55-3.61,35.63-6.63,50.08-17.04,1.63-1.17,3.19-2.43,4.67-3.77,18.7-16.8,25.13-45.03,20.96-70.33-.76-4.61-1.82-9.13-3.12-13.57-6.41-21.81-18.77-41.75-31.37-59.89-3.86-5.6-7.85-11.44-11.2-17.51-5.91-10.69-9.66-22.11-6.67-34.04,4.35-17.13,21.92-28.32,39.54-31.14,21.32-3.46,43.47,2.87,61.24,15.13,6.23,4.3,11.98,9.35,17.04,15,8.88,9.9,15.67,21.24,23.29,31.6,.42,.57,.84,1.14,1.27,1.7,7.33,9.7,15.66,18.55,26.28,24.08,11.23,5.86,25.57,7.48,37.12,1.17"/><path class="cls-10" d="M417.88,832.48c-19.67-15.02-28.11-42.47-23-66.75,5.11-24.28,22.41-45.05,44.04-57.26,15.9-8.99,33.98-13.68,51.74-17.53,17.2-3.75,34.86-7,48.9-17.4,1.59-1.17,3.1-2.42,4.54-3.75,18.18-16.71,24.27-44.39,20.24-69.29-.73-4.53-1.75-8.98-3.01-13.35-6.17-21.48-18.04-41.18-29.82-59.24-3.63-5.57-7.33-11.39-10.43-17.39-5.44-10.57-8.74-21.81-5.62-33.45,4.55-16.74,21.72-27.73,39.06-30.39,20.91-3.27,42.49,3.22,59.85,15.31,6.09,4.24,11.72,9.19,16.71,14.69,8.76,9.64,15.59,20.6,23.27,30.5,.42,.55,.85,1.09,1.28,1.63,7.38,9.26,15.74,17.56,26.21,22.61,11.08,5.35,25.02,6.59,36.24,.26"/><path class="cls-23" d="M422.26,833.58c-20.12-15.68-28.86-43.86-23.73-68.91,5.12-25.06,22.81-46.63,45.11-59.21,15.61-8.82,33.36-13.53,50.74-17.51,16.86-3.89,34.08-7.38,47.73-17.76,1.54-1.17,3.01-2.42,4.41-3.74,17.65-16.63,23.42-43.76,19.53-68.24-.71-4.46-1.69-8.83-2.89-13.13-5.93-21.14-17.27-40.63-28.27-58.6-3.39-5.54-6.82-11.33-9.65-17.28-4.97-10.44-7.85-21.51-4.58-32.86,4.72-16.36,21.53-27.13,38.59-29.64,20.49-3.07,41.51,3.58,58.46,15.48,5.94,4.17,11.45,9.02,16.38,14.37,8.65,9.38,15.51,19.96,23.25,29.4,.43,.52,.86,1.04,1.29,1.55,7.43,8.81,15.82,16.57,26.15,21.15,10.92,4.85,24.48,5.7,35.35-.66"/><path class="cls-21" d="M426.64,834.68c-20.57-16.34-29.61-45.24-24.47-71.08,5.14-25.84,23.2-48.2,46.18-61.16,15.32-8.66,32.73-13.38,49.74-17.5,16.51-4.03,33.3-7.75,46.55-18.12,1.49-1.17,2.92-2.41,4.28-3.73,17.13-16.54,22.56-43.13,18.81-67.2-.68-4.38-1.62-8.68-2.78-12.91-5.69-20.81-16.5-40.09-26.71-57.95-3.16-5.52-6.3-11.27-8.88-17.16-4.5-10.32-6.94-21.21-3.53-32.26,4.93-15.98,21.34-26.54,38.12-28.89,20.07-2.88,40.53,3.93,57.07,15.66,5.8,4.11,11.19,8.86,16.05,14.06,8.53,9.13,15.43,19.33,23.22,28.3,.43,.49,.86,.99,1.3,1.47,7.48,8.37,15.9,15.57,26.08,19.68,10.77,4.35,23.94,4.81,34.47-1.57"/><path class="cls-22" d="M431.02,835.79c-21.03-17.01-30.35-46.63-25.2-73.25,5.15-26.62,23.6-49.78,47.25-63.11,15.04-8.49,32.11-13.23,48.73-17.48,16.17-4.17,32.53-8.12,45.38-18.48,1.45-1.17,2.83-2.41,4.15-3.72,16.6-16.46,21.71-42.49,18.1-66.16-.66-4.3-1.56-8.53-2.67-12.68-5.44-20.47-15.73-39.54-25.16-57.3-2.92-5.5-5.79-11.2-8.11-17.05-4.04-10.19-6.03-20.91-2.49-31.67,5.13-15.59,21.14-25.95,37.65-28.13,19.65-2.68,39.55,4.29,55.68,15.84,5.65,4.05,10.93,8.69,15.72,13.75,8.42,8.87,15.36,18.69,23.2,27.21,.43,.47,.87,.93,1.31,1.4,7.53,7.92,15.98,14.58,26.01,18.22,10.61,3.85,23.39,3.92,33.58-2.48"/><path class="cls-13" d="M435.4,836.89c-21.48-17.67-31.1-48.02-25.93-75.41,5.16-27.4,24-51.36,48.32-65.06,14.75-8.33,31.48-13.08,47.73-17.46,15.83-4.31,31.75-8.49,44.2-18.84,1.4-1.16,2.75-2.4,4.02-3.7,16.08-16.38,20.85-41.86,17.38-65.11-.63-4.22-1.5-8.38-2.55-12.46-5.2-20.13-14.96-39-23.61-56.65-2.68-5.48-5.28-11.14-7.33-16.93-3.57-10.06-5.12-20.61-1.45-31.08,5.33-15.21,20.95-25.35,37.17-27.38,19.24-2.48,38.57,4.64,54.29,16.01,5.51,3.98,10.67,8.53,15.39,13.43,8.31,8.61,15.28,18.05,23.18,26.11,.43,.44,.87,.88,1.31,1.32,7.58,7.48,16.06,13.59,25.94,16.75,10.45,3.34,22.85,3.02,32.7-3.39"/><path class="cls-4" d="M439.78,838c-21.93-18.33-31.84-49.41-26.67-77.58,5.18-28.17,24.4-52.93,49.39-67.01,14.47-8.16,30.86-12.93,46.73-17.45,15.48-4.44,30.98-8.87,43.03-19.2,1.36-1.16,2.66-2.39,3.89-3.69,15.55-16.29,19.99-41.22,16.67-64.07-.61-4.15-1.43-8.23-2.44-12.24-4.96-19.8-14.19-38.45-22.05-56-2.44-5.45-4.76-11.08-6.56-16.82-3.1-9.93-4.2-20.31-.4-30.48,5.54-14.82,20.76-24.73,36.7-26.63,18.82-2.25,37.59,5,52.9,16.19,5.36,3.92,10.4,8.36,15.06,13.12,8.19,8.35,15.2,17.42,23.15,25.01,.44,.42,.88,.83,1.32,1.24,7.63,7.03,16.14,12.6,25.88,15.28,10.3,2.84,22.31,2.13,31.82-4.3"/><path class="cls-15" d="M444.16,839.1c-22.38-18.99-32.59-50.79-27.4-79.75,5.19-28.95,24.8-54.51,50.46-68.96,14.18-8,30.23-12.78,45.73-17.43,15.14-4.58,30.2-9.24,41.85-19.55,1.31-1.16,2.57-2.39,3.76-3.68,15.03-16.21,19.14-40.59,15.95-63.03-.58-4.07-1.37-8.08-2.33-12.02-4.72-19.46-13.42-37.91-20.5-55.35-2.21-5.43-4.25-11.02-5.78-16.7-2.64-9.8-3.29-20,.64-29.89,5.74-14.43,20.57-24.13,36.23-25.88,18.4-2.05,36.61,5.35,51.51,16.37,5.22,3.86,10.14,8.2,14.73,12.8,8.08,8.1,15.12,16.78,23.13,23.91,.44,.39,.88,.78,1.33,1.17,7.68,6.59,16.22,11.61,25.81,13.82,10.14,2.34,21.76,1.24,30.93-5.21"/><path class="cls-5" d="M448.54,840.2c-22.83-19.65-33.34-52.18-28.13-81.92,5.2-29.73,25.19-56.09,51.53-70.91,13.89-7.83,29.6-12.63,44.73-17.42,14.8-4.72,29.42-9.61,40.68-19.91,1.27-1.16,2.48-2.38,3.63-3.66,14.5-16.12,18.28-39.96,15.23-61.98-.55-3.99-1.3-7.93-2.21-11.8-4.47-19.13-12.64-37.37-18.95-54.71-1.97-5.41-3.74-10.96-5.01-16.59-2.18-9.67-2.38-19.7,1.69-29.29,5.95-14.05,20.37-23.54,35.76-25.13,17.99-1.86,35.63,5.71,50.12,16.55,5.07,3.79,9.88,8.03,14.4,12.49,7.96,7.84,15.05,16.14,23.11,22.82,.44,.37,.89,.73,1.34,1.09,7.73,6.14,16.3,10.62,25.74,12.35,9.98,1.84,21.22,.35,30.05-6.12"/><path class="cls-14" d="M452.92,841.31c-23.29-20.31-34.08-53.57-28.86-84.08,5.22-30.51,25.59-57.66,52.59-72.86,13.61-7.67,28.98-12.48,43.72-17.4,14.45-4.86,28.65-9.98,39.5-20.27,1.22-1.16,2.39-2.37,3.5-3.65,13.98-16.04,17.43-39.32,14.52-60.94-.53-3.92-1.24-7.78-2.1-11.58-4.23-18.79-11.87-36.82-17.39-54.06-1.73-5.39-3.23-10.89-4.24-16.47-1.72-9.54-1.46-19.4,2.73-28.7,6.16-13.66,20.18-22.95,35.28-24.38,17.57-1.67,34.65,6.06,48.73,16.72,4.93,3.73,9.62,7.87,14.07,12.18,7.85,7.58,14.97,15.5,23.08,21.72,.45,.34,.9,.68,1.35,1.01,7.78,5.7,16.38,9.62,25.67,10.88,9.83,1.34,20.68-.54,29.16-7.03"/><path class="cls-17" d="M457.29,842.41c-23.74-20.97-34.83-54.96-29.6-86.25,5.23-31.29,25.99-59.24,53.66-74.81,13.32-7.5,28.35-12.33,42.72-17.38,14.11-5,27.87-10.35,38.33-20.63,1.18-1.16,2.3-2.37,3.37-3.64,13.45-15.95,16.57-38.69,13.8-59.9-.5-3.84-1.18-7.63-1.99-11.36-3.99-18.45-11.09-36.28-15.84-53.41-1.49-5.37-2.72-10.83-3.46-16.36-1.26-9.41-.55-19.1,3.77-28.11,6.36-13.27,19.98-22.38,34.81-23.63,17.15-1.51,33.67,6.42,47.34,16.9,4.78,3.66,9.35,7.7,13.74,11.86,7.73,7.33,14.89,14.87,23.06,20.62,.45,.32,.9,.63,1.36,.93,7.83,5.25,16.46,8.63,25.6,9.42,9.67,.83,20.13-1.43,28.28-7.94"/><path class="cls-18" d="M461.67,843.51c-24.19-21.63-35.57-56.35-30.33-88.42,5.24-32.07,26.39-60.82,54.73-76.75,13.03-7.34,27.73-12.18,41.72-17.37,13.76-5.13,27.1-10.73,37.15-20.99,1.13-1.15,2.21-2.36,3.24-3.63,12.93-15.87,15.72-38.05,13.09-58.85-.48-3.76-1.11-7.48-1.87-11.14-3.75-18.12-10.31-35.74-14.28-52.76-1.25-5.35-2.22-10.77-2.69-16.25-.8-9.28,.37-18.79,4.82-27.51,6.57-12.89,19.79-21.79,34.34-22.87,16.73-1.31,32.69,6.77,45.95,17.08,4.63,3.6,9.09,7.54,13.41,11.55,7.62,7.07,14.81,14.23,23.03,19.52,.45,.29,.91,.58,1.37,.86,7.88,4.81,16.54,7.64,25.54,7.95,9.52,.33,19.59-2.32,27.4-8.85"/><path class="cls-2" d="M466.05,844.62c-24.64-22.29-36.32-57.73-31.06-90.58,5.26-32.85,26.79-62.39,55.8-78.7,12.75-7.17,27.1-12.03,40.72-17.35,13.42-5.27,26.32-11.1,35.98-21.35,1.09-1.15,2.12-2.36,3.11-3.61,12.4-15.79,14.86-37.42,12.37-57.81-.45-3.68-1.05-7.33-1.76-10.92-3.51-17.78-9.53-35.2-12.73-52.11-1.01-5.32-1.71-10.71-1.92-16.13-.35-9.15,1.29-18.49,5.86-26.92,6.78-12.5,19.6-21.2,33.86-22.12,16.31-1.11,31.71,7.13,44.56,17.26,4.49,3.54,8.83,7.37,13.08,11.23,7.5,6.81,14.74,13.59,23.01,18.43,.46,.27,.91,.53,1.38,.78,7.93,4.36,16.61,6.65,25.47,6.48,9.36-.17,19.05-3.21,26.51-9.76"/><path class="cls-7" d="M470.43,845.72c-25.1-22.95-37.07-59.12-31.79-92.75,5.27-33.63,27.18-63.97,56.87-80.65,12.46-7.01,26.48-11.88,39.72-17.34,13.08-5.41,25.54-11.47,34.81-21.71,1.04-1.15,2.04-2.35,2.98-3.6,11.88-15.7,14.01-36.79,11.66-56.77-.42-3.61-.99-7.18-1.64-10.7-3.26-17.45-8.75-34.66-11.18-51.46-.77-5.3-1.21-10.65-1.14-16.02,.11-9.02,2.22-18.18,6.91-26.33,7.02-12.09,19.4-20.6,33.39-21.37,15.89-.92,30.73,7.48,43.17,17.43,4.34,3.47,8.57,7.21,12.75,10.92,7.39,6.55,14.66,12.96,22.99,17.33,.46,.24,.92,.48,1.38,.7,7.98,3.92,16.69,5.66,25.4,5.02,9.2-.67,18.5-4.1,25.63-10.67"/><path class="cls-1" d="M474.81,846.83c-25.55-23.62-37.81-60.51-32.53-94.92s27.58-65.55,57.94-82.6c12.18-6.85,25.85-11.73,38.72-17.32,12.73-5.55,24.77-11.84,33.63-22.07,.99-1.15,1.95-2.34,2.85-3.59,11.35-15.62,13.15-36.15,10.94-55.72-.4-3.53-.92-7.03-1.53-10.48-3.02-17.11-7.94-34.12-9.62-50.82-.52-5.28-.7-10.58-.37-15.9,.56-8.89,3.13-17.87,7.95-25.73,7.22-11.71,19.21-20.01,32.92-20.62,15.47-.72,29.75,7.84,41.78,17.61,4.2,3.41,8.3,7.04,12.42,10.61,7.28,6.3,14.58,12.32,22.96,16.23,.46,.22,.93,.42,1.39,.63,8.03,3.47,16.77,4.67,25.33,3.55,9.05-1.18,17.96-4.99,24.74-11.58"/><path class="cls-9" d="M479.19,847.93c-26-24.28-38.56-61.9-33.26-97.08,5.3-35.19,27.98-67.13,59.01-84.55,11.89-6.68,25.22-11.58,37.71-17.3,12.39-5.69,23.99-12.22,32.46-22.43,.95-1.15,1.86-2.34,2.72-3.58,10.83-15.53,12.3-35.52,10.23-54.68-.37-3.45-.86-6.88-1.42-10.26-2.78-16.77-7.17-33.57-8.07-50.17-.28-5.26-.21-10.52,.4-15.79,.99-8.76,4.05-17.57,9-25.14,7.43-11.32,19.02-19.41,32.45-19.87,15.06-.53,28.77,8.19,40.39,17.79,4.05,3.35,8.04,6.88,12.09,10.29,7.16,6.04,14.5,11.68,22.94,15.14,.46,.19,.93,.37,1.4,.55,8.08,3.03,16.85,3.67,25.27,2.09,8.89-1.68,17.41-5.88,23.86-12.49"/><path class="cls-12" d="M483.57,849.03c-26.45-24.94-39.3-63.29-33.99-99.25,5.31-35.96,28.38-68.7,60.08-86.5,24.43-13.72,55.04-20.33,70.58-43.65,12.16-18.23,11.55-42.01,8.21-63.67s-8.98-43.58-5.34-65.19c3.64-21.61,20.11-43.17,42.01-43.66,14.64-.33,27.79,8.55,39,17.96,11.21,9.42,22.13,20.05,36.08,24.49,16.71,5.31,36.29,.12,48.17-12.79"/></g><g class="cls-27"><path class="cls-12" d="M224.03,851.45c-20.23-8.95-39.82-20.49-54.26-37.25-14.44-16.76-23.19-39.4-19.48-61.21,3.71-21.81,21.74-41.53,43.78-43.42,35.27-3.02,62.61,36.14,98.01,36.33,26.37,.14,47.45-21.27,63.4-42.27,15.94-21.01,32.04-44.67,57.14-52.76,20.93-6.74,45.55-.12,60.26,16.23,15.14,16.82,19.05,41.34,16.1,63.78-2.95,22.44-11.92,43.56-19.84,64.76-7.91,21.2-14.94,43.39-13.72,65.98s12.23,45.89,32.43,56.11c23.37,11.82,53.29,2.85,71.81-15.66,18.52-18.52,27.49-44.55,32.43-70.27"/><path class="cls-9" d="M219.85,855.38c-13.44-6.78-26.58-14.68-37.87-24.51-5.67-4.93-10.87-10.34-15.41-16.3-4.51-5.93-8.31-12.46-11.14-19.32-5.7-13.78-7.16-28.74-3.78-42.54,5.03-20.56,22.81-38.6,44.86-39.99,7.19-.45,14.08,.72,20.8,2.82,25.31,7.9,47.72,28.89,73.79,29.34,1.01,.02,2.02,0,3.04-.04,25.63-1.15,45.86-22.94,61.58-44.22,15.27-20.72,31.28-43.73,55.38-52.05,.77-.26,1.54-.51,2.32-.75,21.16-6.34,45.61,.96,60.15,17.65,11.04,12.74,16.02,29.57,16.57,46.62,.2,6.18-.19,12.38-1.07,18.43-2.82,19.46-10.13,37.9-17.42,56.21-1.23,3.1-2.46,6.19-3.67,9.28-8.35,21.39-15.82,43.77-14.94,66.71,.87,22.98,11.76,46.87,32.14,57.5,2.27,1.18,4.6,2.17,6.99,2.98,22.43,7.56,49.07-1.48,66.04-18.59,9.89-10.04,16.78-22.39,21.53-35.48,4.7-12.96,7.37-26.67,9.04-40.26"/><path class="cls-1" d="M215.67,859.31c-13.4-7.6-26.5-16.3-37.52-26.93-5.53-5.32-10.53-11.14-14.79-17.45-4.23-6.3-7.67-13.15-10.03-20.24-4.77-14.25-4.63-29.19-.34-42.25,6.33-19.27,23.88-35.67,45.93-36.55,7.19-.29,14.11,.92,20.88,2.92,25.55,7.53,48.06,26.16,73.4,25.2,.98-.04,1.97-.1,2.96-.2,24.88-2.44,44.28-24.61,59.77-46.16,15.09-21.07,31.51-44.25,55.91-52.14,.78-.25,1.56-.49,2.35-.71,21.38-5.94,45.72,2.01,60.03,19.07,10.99,13.11,15.86,30.29,16.21,47.61,.12,6.28-.34,12.57-1.31,18.71-3.1,19.72-10.81,38.37-18.48,56.86-1.3,3.13-2.59,6.25-3.87,9.38-8.79,21.59-16.7,44.16-16.15,67.44,.53,23.37,11.29,47.85,31.85,58.89,2.29,1.23,4.65,2.26,7.07,3.11,22.75,7.96,50.03-1.13,67.17-18.67,10.51-10.75,17.34-24.26,21.67-38.32,4.28-13.94,6.15-28.5,7.05-42.9"/><path class="cls-7" d="M211.5,863.24c-13.37-8.42-26.42-17.92-37.17-29.34-5.39-5.72-10.19-11.93-14.17-18.6-3.95-6.66-7.02-13.84-8.92-21.17-3.85-14.71-2.12-29.6,3.11-41.97,7.58-17.93,24.95-32.73,47.01-33.12,7.19-.13,14.14,1.11,20.97,3.01,25.79,7.15,48.4,23.42,73.02,21.05,.95-.09,1.91-.21,2.87-.35,24.13-3.73,42.69-26.28,57.96-48.11,14.91-21.42,31.74-44.76,56.45-52.22,.78-.24,1.58-.46,2.37-.66,21.6-5.54,45.81,3.08,59.91,20.49,10.92,13.49,15.7,31.01,15.86,48.59,.05,6.39-.5,12.77-1.56,19-3.39,19.98-11.48,38.85-19.54,57.51-1.36,3.16-2.73,6.31-4.07,9.47-9.23,21.78-17.58,44.54-17.37,68.16,.18,23.76,10.82,48.82,31.57,60.27,2.31,1.28,4.7,2.36,7.16,3.25,23.08,8.36,50.95-.82,68.31-18.76,11.1-11.47,17.91-26.13,21.8-41.16,3.85-14.92,4.94-30.33,5.06-45.53"/><path class="cls-2" d="M207.32,867.17c-13.34-9.23-26.34-19.53-36.82-31.75-5.25-6.11-9.85-12.73-13.55-19.76-3.67-7.03-6.38-14.52-7.82-22.09-2.92-15.18,.35-29.98,6.55-41.69,8.77-16.57,26.02-29.8,48.09-29.69,7.2,.03,14.17,1.31,21.06,3.11,26.03,6.78,48.73,20.69,72.64,16.91,.92-.14,1.85-.31,2.78-.51,23.38-5.01,41.1-27.95,56.15-50.05,14.73-21.78,31.97-45.27,56.98-52.31,.79-.22,1.59-.43,2.4-.62,21.82-5.14,45.89,4.14,59.79,21.91,10.86,13.87,15.54,31.73,15.5,49.58-.02,6.49-.65,12.97-1.81,19.28-3.68,20.25-12.16,39.32-20.6,58.16-1.43,3.19-2.86,6.37-4.27,9.56-9.67,21.97-18.46,44.93-18.59,68.89-.16,24.14,10.35,49.8,31.28,61.66,2.33,1.32,4.75,2.45,7.24,3.38,23.4,8.75,51.87-.51,69.44-18.84,11.69-12.19,18.47-28,21.94-44,3.42-15.9,3.73-32.15,3.07-48.16"/><path class="cls-18" d="M203.14,871.1c-13.31-10.05-26.27-21.15-36.47-34.17-5.12-6.5-9.51-13.52-12.93-20.91-3.39-7.4-5.73-15.21-6.71-23.02-2-15.65,2.78-30.33,10-41.41,9.89-15.18,27.08-26.86,49.16-26.26,7.2,.2,14.2,1.51,21.15,3.21,26.27,6.4,49.07,17.95,72.26,12.76,.9-.2,1.79-.42,2.69-.67,22.63-6.3,39.52-29.62,54.33-51.99,14.55-22.13,32.2-45.79,57.51-52.39,.8-.21,1.61-.4,2.43-.58,22.04-4.74,45.97,5.22,59.67,23.33,10.79,14.26,15.38,32.44,15.15,50.56-.09,6.6-.81,13.16-2.05,19.57-3.97,20.51-12.84,39.8-21.66,58.81-1.49,3.22-2.99,6.43-4.46,9.66-10.11,22.16-19.34,45.32-19.8,69.62-.51,24.53,9.88,50.78,31,63.05,2.35,1.37,4.8,2.54,7.32,3.51,23.72,9.15,52.79-.21,70.58-18.92,12.28-12.92,19.03-29.87,22.08-46.85,3-16.88,2.51-33.98,1.08-50.79"/><path class="cls-17" d="M198.97,875.03c-13.28-10.87-26.19-22.76-36.12-36.58-4.98-6.9-9.18-14.32-12.31-22.06-3.1-7.76-5.09-15.9-5.6-23.95-1.07-16.12,5.16-30.67,13.44-41.13,10.93-13.8,28.15-23.93,50.24-22.82,7.2,.36,14.23,1.7,21.23,3.3,26.51,6.02,49.39,15.17,71.87,8.62,.87-.25,1.74-.53,2.61-.83,21.88-7.59,37.93-31.3,52.52-53.94,14.37-22.48,32.43-46.3,58.04-52.48,.81-.2,1.63-.37,2.45-.54,22.26-4.34,46.05,6.29,59.55,24.75,10.72,14.65,15.22,33.16,14.8,51.55-.16,6.7-.96,13.36-2.3,19.85-4.26,20.77-13.51,40.27-22.72,59.46-1.56,3.25-3.12,6.49-4.66,9.75-10.55,22.35-20.22,45.7-21.02,70.34-.85,24.92,9.41,51.76,30.71,64.44,2.37,1.41,4.84,2.63,7.4,3.65,24.04,9.55,53.7,.09,71.71-19.01,12.87-13.64,19.6-31.74,22.21-49.69,2.57-17.86,1.3-35.81-.91-53.42"/><path class="cls-14" d="M194.79,878.96c-13.24-11.69-26.11-24.38-35.77-39-4.84-7.29-8.85-15.11-11.69-23.21-2.84-8.12-4.44-16.58-4.49-24.87-.15-16.59,7.49-31.02,16.89-40.85,11.89-12.43,29.22-21,51.32-19.39,7.2,.52,14.26,1.9,21.32,3.4,26.75,5.65,49.72,12.43,71.49,4.47,.84-.31,1.68-.63,2.52-.98,21.13-8.88,36.39-32.94,50.71-55.88,14.24-22.81,32.66-46.82,58.57-52.56,.82-.18,1.65-.35,2.48-.49,22.48-3.94,46.12,7.37,59.43,26.17,10.65,15.04,15.05,33.88,14.44,52.54-.23,6.8-1.12,13.55-2.55,20.13-4.55,21.04-14.19,40.75-23.78,60.11-1.62,3.28-3.25,6.55-4.86,9.84-10.98,22.55-21.1,46.09-22.24,71.07-1.19,25.3,8.94,52.73,30.42,65.83,2.39,1.46,4.89,2.72,7.49,3.78,24.36,9.95,54.61,.39,72.85-19.09,13.46-14.37,20.16-33.61,22.35-52.53,2.15-18.83,.09-37.63-2.9-56.05"/><path class="cls-5" d="M190.61,882.89c-13.21-12.51-26.03-25.99-35.42-41.41-4.7-7.69-8.52-15.9-11.06-24.36-2.56-8.49-3.8-17.27-3.38-25.8,.78-17.05,9.76-31.38,20.33-40.57,12.78-11.1,30.29-18.06,52.39-15.96,7.21,.68,14.29,2.1,21.41,3.5,26.99,5.27,50.05,9.7,71.11,.33,.81-.36,1.62-.74,2.43-1.14,20.39-10.17,34.8-34.61,48.9-57.82,14.06-23.16,32.9-47.33,59.11-52.65,.83-.17,1.67-.32,2.5-.45,22.7-3.54,46.2,8.44,59.31,27.59,10.57,15.43,14.89,34.6,14.09,53.52-.3,6.91-1.28,13.75-2.8,20.42-4.84,21.3-14.87,41.22-24.84,60.75-1.69,3.31-3.38,6.61-5.06,9.93-11.42,22.74-21.99,46.48-23.45,71.8-1.54,25.69,8.47,53.71,30.14,67.22,2.41,1.51,4.94,2.81,7.57,3.91,24.68,10.35,55.52,.69,73.98-19.17,14.04-15.1,20.73-35.48,22.48-55.37,1.72-19.81-1.13-39.46-4.89-58.69"/><path class="cls-15" d="M186.44,886.82c-13.18-13.33-25.96-27.61-35.07-43.83-4.56-8.08-8.16-16.7-10.44-25.51-2.26-8.86-3.15-17.96-2.27-26.72,1.71-17.52,11.99-31.79,23.78-40.28,13.62-9.82,31.36-15.13,53.47-12.53,7.21,.85,14.32,2.29,21.49,3.59,27.24,4.9,50.38,6.96,70.73-3.82,.78-.41,1.57-.85,2.35-1.3,19.64-11.46,33.22-36.28,47.08-59.77,13.88-23.51,33.13-47.84,59.64-52.73,.84-.16,1.68-.29,2.53-.41,22.92-3.14,46.27,9.52,59.19,29.01,10.5,15.82,14.73,35.32,13.73,54.51-.37,7.01-1.43,13.94-3.04,20.7-5.13,21.57-15.54,41.7-25.9,61.4-1.75,3.34-3.51,6.68-5.25,10.03-11.86,22.93-22.87,46.86-24.67,72.52-1.88,26.08,8,54.69,29.85,68.6,2.43,1.55,4.99,2.9,7.65,4.05,25,10.74,56.42,.98,75.12-19.26,14.63-15.83,21.29-37.35,22.62-58.22,1.29-20.79-2.34-41.29-6.89-61.32"/><path class="cls-4" d="M182.26,890.75c-13.15-14.15-25.88-29.23-34.72-46.24-4.42-8.48-7.82-17.49-9.82-26.67-1.98-9.23-2.51-18.64-1.16-27.65,2.63-17.99,14.2-32.24,27.22-40,14.41-8.59,32.43-12.19,54.54-9.09,7.21,1.01,14.35,2.49,21.58,3.69,27.48,4.52,50.72,4.23,70.35-7.97,.75-.47,1.51-.95,2.26-1.46,18.89-12.74,31.63-37.95,45.27-61.71,13.7-23.86,33.36-48.36,60.17-52.81,.85-.14,1.7-.26,2.56-.36,23.14-2.74,46.34,10.6,59.08,30.43,10.42,16.21,14.57,36.03,13.38,55.49-.44,7.12-1.59,14.14-3.29,20.99-5.42,21.83-16.22,42.17-26.96,62.05-1.82,3.37-3.64,6.74-5.45,10.12-12.3,23.12-23.75,47.25-25.89,73.25-2.23,26.46,7.53,55.66,29.57,69.99,2.46,1.6,5.04,2.99,7.73,4.18,25.33,11.14,57.33,1.28,76.25-19.34,15.21-16.57,21.86-39.22,22.76-61.06,.87-21.77-3.55-43.12-8.88-63.95"/><path class="cls-13" d="M178.08,894.68c-13.11-14.96-25.8-30.84-34.37-48.65-4.29-8.87-7.48-18.29-9.2-27.82-1.7-9.6-1.86-19.33-.05-28.58,3.56-18.46,16.38-32.74,30.67-39.72,15.2-7.42,33.5-9.26,55.62-5.66,7.21,1.17,14.38,2.69,21.67,3.79,27.72,4.14,51.05,1.5,69.96-12.11,.73-.52,1.45-1.06,2.17-1.61,18.14-14.03,30.04-39.62,43.46-63.66,13.52-24.22,33.59-48.87,60.7-52.9,.86-.13,1.72-.24,2.58-.32,23.36-2.34,46.4,11.69,58.96,31.85,10.34,16.61,14.41,36.75,13.03,56.48-.51,7.22-1.74,14.34-3.54,21.27-5.71,22.09-16.9,42.65-28.02,62.7-1.88,3.4-3.78,6.8-5.65,10.21-12.74,23.32-24.63,47.64-27.1,73.98-2.57,26.85,7.06,56.64,29.28,71.38,2.48,1.64,5.08,3.08,7.82,4.31,25.65,11.54,58.23,1.57,77.39-19.42,15.79-17.3,22.42-41.09,22.89-63.9,.44-22.75-4.76-44.94-10.87-66.58"/><path class="cls-22" d="M173.91,898.61c-13.08-15.78-25.72-32.46-34.02-51.07-4.15-9.27-7.15-19.08-8.58-28.97-1.42-9.96-1.21-20.02,1.06-29.5,4.48-18.93,18.55-33.3,34.11-39.44,15.98-6.3,34.56-6.33,56.7-2.23,7.22,1.33,14.41,2.88,21.75,3.88,27.96,3.77,51.38-1.23,69.58-16.26,.7-.58,1.39-1.16,2.09-1.77,17.39-15.32,28.46-41.3,41.65-65.6,13.34-24.57,33.82-49.39,61.24-52.98,.87-.11,1.74-.21,2.61-.28,23.58-1.94,46.47,12.77,58.84,33.27,10.26,17,14.25,37.47,12.67,57.47-.58,7.33-1.9,14.53-3.79,21.55-6,22.36-17.57,43.12-29.08,63.35-1.95,3.43-3.91,6.86-5.84,10.3-13.18,23.51-25.51,48.02-28.32,74.7-2.92,27.24,6.59,57.62,28.99,72.77,2.5,1.69,5.13,3.18,7.9,4.45,25.97,11.94,59.13,1.86,78.52-19.5,16.37-18.04,22.99-42.96,23.03-66.75,.02-23.73-5.98-46.77-12.86-69.21"/><path class="cls-21" d="M169.73,902.54c-13.05-16.6-25.65-34.07-33.67-53.48-4.01-9.66-6.81-19.88-7.96-30.12-1.13-10.33-.57-20.7,2.17-30.43,5.41-19.39,20.73-33.92,37.56-39.16,16.77-5.22,35.63-3.39,57.77,1.2,7.22,1.5,14.44,3.08,21.84,3.98,28.2,3.39,51.72-3.96,69.2-20.4,.67-.63,1.34-1.27,2-1.93,16.64-16.61,26.87-42.97,39.83-67.54,13.16-24.93,34.05-49.9,61.77-53.07,.88-.1,1.76-.18,2.64-.24,23.8-1.54,46.53,13.85,58.72,34.69,10.18,17.4,14.09,38.19,12.32,58.45-.65,7.43-2.05,14.73-4.03,21.84-6.29,22.62-18.25,43.59-30.14,64-2.01,3.46-4.04,6.92-6.04,10.4-13.62,23.7-26.39,48.41-29.54,75.43-3.26,27.62,6.12,58.6,28.71,74.16,2.52,1.74,5.18,3.27,7.98,4.58,26.29,12.33,60.03,2.15,79.66-19.59,16.95-18.77,23.55-44.83,23.17-69.59-.41-24.71-7.19-48.6-14.85-71.85"/><path class="cls-23" d="M165.55,906.47c-13.02-17.42-25.57-35.69-33.32-55.9-3.87-10.05-6.47-20.67-7.34-31.27-.85-10.7,.08-21.39,3.28-31.36,6.33-19.86,22.92-34.57,41-38.88,17.58-4.18,36.7-.46,58.85,4.64,7.22,1.66,14.47,3.28,21.93,4.08,28.44,3.01,52.05-6.69,68.82-24.55,.64-.68,1.28-1.38,1.91-2.09,15.9-17.9,25.23-44.67,38.02-69.49,12.93-25.31,34.28-50.41,62.3-53.15,.89-.09,1.78-.15,2.66-.19,24.02-1.13,46.59,14.94,58.6,36.11,10.09,17.79,13.93,38.91,11.97,59.44-.72,7.54-2.21,14.92-4.28,22.12-6.58,22.88-18.93,44.07-31.2,64.65-2.08,3.49-4.17,6.98-6.24,10.49-14.05,23.89-27.27,48.79-30.75,76.16-3.61,28.01,5.65,59.57,28.42,75.55,2.54,1.78,5.23,3.36,8.06,4.72,26.61,12.73,60.93,2.44,80.79-19.67,17.53-19.51,24.12-46.7,23.3-72.43-.84-25.69-8.4-50.43-16.84-74.48"/><path class="cls-10" d="M161.38,910.4c-12.99-18.24-25.49-37.31-32.97-58.31-3.73-10.45-6.13-21.47-6.72-32.42-.57-11.06,.72-22.08,4.39-32.28,7.26-20.33,25.13-35.27,44.45-38.59,18.41-3.17,37.77,2.48,59.93,8.07,7.22,1.82,14.5,3.47,22.01,4.17,28.68,2.64,52.43-9.39,68.43-28.69,.61-.74,1.22-1.48,1.82-2.24,15.15-19.19,23.64-46.34,36.21-71.43,12.75-25.66,34.51-50.93,62.83-53.24,.9-.07,1.79-.12,2.69-.15,24.24-.73,46.65,16.02,58.48,37.53,10.01,18.19,13.76,39.62,11.61,60.42-.8,7.64-2.36,15.12-4.53,22.41-6.86,23.15-19.6,44.54-32.26,65.29-2.15,3.52-4.3,7.04-6.44,10.58-14.49,24.08-28.15,49.18-31.97,76.88-3.95,28.4,5.18,60.55,28.14,76.93,2.56,1.83,5.28,3.45,8.14,4.85,26.93,13.13,61.83,2.73,81.93-19.75,18.1-20.25,24.68-48.57,23.44-75.27-1.26-26.67-9.62-52.25-18.83-77.11"/><path class="cls-8" d="M157.2,914.33c-12.95-19.06-25.41-38.92-32.62-60.72-3.6-10.84-5.79-22.26-6.1-33.57-.29-11.43,1.37-22.76,5.49-33.21,8.18-20.8,27.36-35.99,47.89-38.31,19.28-2.18,38.84,5.41,61,11.5,7.22,1.98,14.53,3.67,22.1,4.27,28.92,2.26,52.76-12.13,68.05-32.84,.59-.79,1.17-1.59,1.74-2.4,14.4-20.47,22.05-48.01,34.4-73.37,12.56-26.01,34.74-51.44,63.36-53.32,.91-.06,1.81-.1,2.71-.11,24.46-.33,46.71,17.11,58.36,38.95,9.92,18.59,13.6,40.34,11.26,61.41-.87,7.75-2.52,15.31-4.78,22.69-7.15,23.41-20.28,45.02-33.32,65.94-2.21,3.55-4.43,7.1-6.63,10.68-14.93,24.28-29.03,49.57-33.19,77.61-4.3,28.78,4.71,61.53,27.85,78.32,2.58,1.87,5.32,3.54,8.23,4.98,27.25,13.53,62.73,3.02,83.06-19.84,18.68-20.99,25.25-50.44,23.57-78.12-1.69-27.65-10.83-54.08-20.82-79.74"/><path class="cls-6" d="M153.02,918.26c-12.92-19.87-25.34-40.54-32.27-63.14-3.46-11.24-5.45-23.06-5.48-34.73,0-11.8,2.01-23.45,6.6-34.13,9.11-21.27,29.62-36.74,51.34-38.03,20.17-1.2,39.91,8.34,62.08,14.93,7.23,2.15,14.56,3.87,22.19,4.37,29.16,1.89,53.1-14.86,67.67-36.98,.56-.84,1.11-1.7,1.65-2.56,13.65-21.76,20.47-49.68,32.58-75.32,12.38-26.37,34.97-51.96,63.9-53.41,.92-.05,1.83-.07,2.74-.07,24.68,.07,46.77,18.2,58.24,40.37,9.83,18.99,13.44,41.06,10.9,62.4-.94,7.85-2.67,15.51-5.02,22.97-7.44,23.67-20.96,45.49-34.38,66.59-2.28,3.58-4.56,7.16-6.83,10.77-15.37,24.47-29.92,49.95-34.4,78.34-4.64,29.17,4.24,62.5,27.56,79.71,2.6,1.92,5.37,3.63,8.31,5.12,27.58,13.92,63.63,3.3,84.2-19.92,19.25-21.73,25.81-52.31,23.71-80.96-2.11-28.63-12.04-55.91-22.81-82.37"/><path class="cls-3" d="M148.84,922.19c-12.89-20.69-25.26-42.15-31.92-65.55-3.32-11.63-5.11-23.85-4.86-35.88,.27-12.16,2.66-24.14,7.71-35.06,10.04-21.73,31.94-36.17,54.78-37.75,21.03-1.46,40.97,11.28,63.15,18.37,7.23,2.31,14.59,4.06,22.28,4.46,29.4,1.51,53.44-17.6,67.29-41.13,.53-.9,1.05-1.8,1.56-2.72,12.9-23.05,18.88-51.36,30.77-77.26,12.2-26.72,35.2-52.47,64.43-53.49,.93-.03,1.85-.04,2.77-.02,24.9,.47,46.82,19.29,58.13,41.79,9.74,19.38,13.28,41.78,10.55,63.38-1.01,7.95-2.83,15.7-5.27,23.26-7.73,23.94-21.63,45.97-35.44,67.24-2.34,3.61-4.69,7.22-7.03,10.86-15.81,24.66-30.8,50.34-35.62,79.06-4.99,29.56,3.77,63.48,27.28,81.1,2.62,1.97,5.42,3.72,8.39,5.25,27.9,14.32,64.49,3.56,85.33-20,19.79-22.5,26.38-54.18,23.85-83.8-2.54-29.61-13.26-57.73-24.8-85"/><path class="cls-19" d="M144.67,926.12c-12.86-21.51-25.18-43.77-31.57-67.97-3.18-12.03-4.78-24.65-4.24-37.03,.56-12.53,3.3-24.82,8.82-35.99,10.96-22.2,34.19-38.26,58.23-37.47,22.02,.73,42.04,14.21,64.23,21.8,7.23,2.47,14.62,4.26,22.36,4.56,29.64,1.13,53.77-20.33,66.91-45.28,.5-.95,.99-1.91,1.48-2.87,12.15-24.34,17.29-53.03,28.96-79.2,12.02-27.07,35.44-52.98,64.96-53.57,.93-.02,1.87-.01,2.79,.02,25.12,.87,46.84,20.39,58.01,43.21,9.62,19.8,13.12,42.5,10.2,64.37-1.08,8.06-2.98,15.9-5.52,23.54-8.02,24.2-22.31,46.44-36.5,67.89-2.41,3.64-4.83,7.28-7.23,10.95-16.25,24.85-31.68,50.73-36.84,79.79-5.33,29.94,3.3,64.46,26.99,82.49,2.64,2.01,5.47,3.81,8.47,5.38,28.22,14.72,65.39,3.85,86.47-20.08,20.37-23.23,26.94-56.05,23.98-86.64-2.96-30.59-14.47-59.56-26.79-87.64"/><path class="cls-20" d="M140.49,930.05c-12.82-22.33-25.1-45.38-31.22-70.38-3.04-12.42-4.44-25.44-3.62-38.18,.84-12.9,3.95-25.51,9.93-36.91,11.89-22.67,36.5-39.03,61.67-37.19,22.98,1.69,43.11,17.15,65.31,25.23,7.23,2.63,14.65,4.46,22.45,4.66,29.89,.76,54.11-23.07,66.52-49.42,.47-1,.94-2.02,1.39-3.03,11.41-25.63,15.7-54.7,27.15-81.15,11.84-27.43,35.67-53.5,65.49-53.66,.94,0,1.88,.02,2.82,.06,25.34,1.27,46.9,21.47,57.89,44.63,9.54,20.19,12.96,43.21,9.84,65.35-1.15,8.16-3.14,16.1-5.77,23.83-8.31,24.46-22.98,46.92-37.56,68.54-2.47,3.67-4.96,7.35-7.42,11.05-16.69,25.05-32.56,51.11-38.05,80.51-5.68,30.33,2.83,65.44,26.71,83.88,2.66,2.06,5.52,3.91,8.56,5.52,28.54,15.12,66.3,4.15,87.6-20.17,20.95-23.97,27.51-57.91,24.12-89.49-3.39-31.57-15.68-61.39-28.78-90.27"/><path class="cls-11" d="M136.31,933.98c-12.79-23.15-25.03-47-30.87-72.79-5.84-25.79-4.77-54.03,8.05-77.17,12.81-23.14,38.83-39.81,65.12-36.91,31.77,3.51,56.96,33.01,88.92,33.42,30.13,.38,54.45-25.8,66.14-53.57,11.7-27.77,14.98-58.5,26.64-86.28,11.66-27.78,35.9-54.01,66.03-53.74,26.81,.24,49.42,21.79,60.61,46.16,9.46,20.58,12.8,43.93,9.49,66.34-5.08,34.42-24.94,64.61-44.63,93.3-19.69,28.68-40.2,58.24-46.89,92.38-6.69,34.14,4.42,74.44,35.06,90.91,28.86,15.51,67.21,4.45,88.74-20.25,21.53-24.7,28.07-59.78,24.26-92.33-3.82-32.54-16.89-63.22-30.77-92.9"/></g></g></g></g></g></g></svg>