<?xml version="1.0" encoding="UTF-8"?><svg xmlns="http://www.w3.org/2000/svg" xmlns:xlink="http://www.w3.org/1999/xlink" viewBox="0 0 886.81 633.54"><defs><style>.cls-1{stroke:#cdcdcd;}.cls-1,.cls-2,.cls-3,.cls-4,.cls-5,.cls-6,.cls-7,.cls-8,.cls-9,.cls-10,.cls-11,.cls-12,.cls-13,.cls-14,.cls-15,.cls-16,.cls-17,.cls-18,.cls-19,.cls-20,.cls-21,.cls-22,.cls-23,.cls-24,.cls-25,.cls-26,.cls-27,.cls-28,.cls-29,.cls-30,.cls-31,.cls-32,.cls-33,.cls-34,.cls-35,.cls-36,.cls-37,.cls-38,.cls-39{fill:none;}.cls-1,.cls-2,.cls-3,.cls-4,.cls-5,.cls-6,.cls-7,.cls-8,.cls-9,.cls-10,.cls-11,.cls-12,.cls-13,.cls-14,.cls-15,.cls-16,.cls-17,.cls-18,.cls-19,.cls-20,.cls-21,.cls-22,.cls-23,.cls-24,.cls-25,.cls-26,.cls-27,.cls-28,.cls-30,.cls-31,.cls-32,.cls-33,.cls-34,.cls-35,.cls-36,.cls-37,.cls-38,.cls-39{stroke-miterlimit:10;}.cls-1,.cls-2,.cls-4,.cls-5,.cls-6,.cls-7,.cls-8,.cls-9,.cls-10,.cls-11,.cls-12,.cls-13,.cls-14,.cls-15,.cls-16,.cls-17,.cls-18,.cls-19,.cls-20,.cls-21,.cls-22,.cls-23,.cls-24,.cls-25,.cls-26,.cls-27,.cls-28,.cls-30,.cls-31,.cls-32,.cls-33,.cls-35,.cls-36,.cls-37,.cls-38,.cls-39{stroke-width:.75px;}.cls-2{stroke:#f9f9f9;}.cls-3{stroke:#e5e5e5;}.cls-3,.cls-34{stroke-width:.75px;}.cls-4{stroke:#f4f4f4;}.cls-5{stroke:#eee;}.cls-6{stroke:#909090;}.cls-7{stroke:#8a8a8a;}.cls-8{stroke:#b7b7b7;}.cls-9{stroke:#fff;}.cls-10{stroke:#a6a6a6;}.cls-40{isolation:isolate;}.cls-11{stroke:#c2c2c2;}.cls-12{stroke:#bebebe;}.cls-13{stroke:#c7c7c7;}.cls-14{stroke:#dcdcdc;}.cls-15{stroke:#b5b5b5;}.cls-16{stroke:#a0a0a0;}.cls-17{stroke:#f6f6f6;}.cls-18{stroke:#a8a8a8;}.cls-19{stroke:#f2f2f2;}.cls-20{stroke:#9b9b9b;}.cls-21{stroke:#e9e9e9;}.cls-22{stroke:#d2d2d2;}.cls-23{stroke:#959595;}.cls-24{stroke:#d4d4d4;}.cls-25{stroke:#cfcfcf;}.cls-26{stroke:#bcbcbc;}.cls-27,.cls-34{stroke:#ababab;}.cls-41{clip-path:url(#clippath);}.cls-28{stroke:#e1e1e1;}.cls-30{stroke:#a4a4a4;}.cls-31{stroke:#fbfbfb;}.cls-32{stroke:#e3e3e3;}.cls-33{stroke:#d8d8d8;}.cls-35{stroke:#dedede;}.cls-36{stroke:#cbcbcb;}.cls-37{stroke:#b1b1b1;}.cls-42{mix-blend-mode:multiply;}.cls-38{stroke:#adadad;}.cls-39{stroke:#bababa;}</style><clipPath id="clippath"><rect class="cls-29" x="133.97" y="161.85" width="671.22" height="377.56"/></clipPath></defs><g class="cls-40"><g id="OBJECTS"><g class="cls-41"><g><g class="cls-42"><path class="cls-7" d="M619.87,73.72c10.28,.22,20.55,1.05,30.73,2.5,4.53,.64,9.14,1.44,13.12,3.69,10.18,5.74,13.24,18.9,13.75,30.57,.48,10.75-.33,21.56-2.4,32.12-2.05,10.47-5.35,20.87-4.91,31.52,.44,10.66,5.75,22.04,15.76,25.72,5.96,2.19,12.72,1.31,18.53-1.26,5.8-2.57,10.77-6.71,15.35-11.1,5.24-5.03,10.43-10.68,17.4-12.74,7.21-2.13,15.57,.34,20.47,6.05,6.96,8.12,6.19,20.03,6.48,30.73,.38,13.59,3.36,27.62,11.72,38.34,8.36,10.72,22.98,17.29,35.96,13.26"/><path class="cls-6" d="M618.38,76.46c10.11,.2,20.2,1.06,30.19,2.54,4.44,.66,8.96,1.48,12.88,3.68,7.88,4.44,11.53,13.28,13.09,22.4,.42,2.47,.69,4.95,.85,7.37,.67,10.48,.09,21.05-1.73,31.4-1.8,10.26-4.89,20.47-4.32,30.93,.32,5.86,1.95,11.93,4.96,16.95,2.62,4.38,6.33,7.96,11.1,9.79,.85,.33,1.72,.59,2.61,.8,5.45,1.27,11.32,.27,16.51-1.98,1.66-.72,3.27-1.56,4.81-2.48,4.04-2.42,7.75-5.42,11.26-8.5,5.58-4.89,11.15-10.11,18.27-11.92,7.07-1.81,15.14,.52,19.95,6.08,6.84,7.9,6.31,19.41,6.83,29.71,.04,.81,.09,1.63,.15,2.44,.93,12.3,4.22,24.67,11.99,34.17,8.29,10.14,22.52,16.21,35.1,12.12"/><path class="cls-23" d="M616.89,79.2c9.93,.19,19.84,1.07,29.64,2.59,4.36,.68,8.79,1.52,12.64,3.68,7.74,4.35,11.45,12.93,13.14,21.8,.46,2.4,.77,4.82,.97,7.18,.87,10.21,.51,20.54-1.06,30.68-1.56,10.05-4.41,20.08-3.73,30.34,.4,6.04,2.05,12.29,5.08,17.5,2.64,4.54,6.4,8.31,11.28,10.26,.87,.35,1.76,.63,2.67,.86,5.6,1.37,11.65,.32,17.03-1.95,1.72-.73,3.38-1.58,4.99-2.5,4.2-2.42,8.09-5.38,11.81-8.37,5.92-4.74,11.85-9.53,19.13-11.11,6.91-1.49,14.71,.71,19.44,6.1,6.72,7.68,6.43,18.79,7.18,28.69,.06,.78,.13,1.56,.21,2.35,1.19,11.81,4.66,23.58,12.37,32.54,8.22,9.55,22.06,15.13,34.23,10.97"/><path class="cls-20" d="M615.39,81.94c9.76,.18,19.49,1.07,29.1,2.64,4.27,.7,8.61,1.56,12.39,3.68,7.6,4.27,11.37,12.59,13.19,21.19,.5,2.33,.85,4.69,1.1,6.99,1.07,9.95,.93,20.03-.39,29.96-1.31,9.84-3.93,19.69-3.15,29.76,.48,6.21,2.14,12.64,5.2,18.06,2.66,4.7,6.48,8.66,11.46,10.73,.89,.37,1.81,.67,2.74,.91,5.76,1.47,11.98,.38,17.54-1.92,1.78-.74,3.5-1.59,5.17-2.52,4.35-2.42,8.44-5.34,12.36-8.24,6.26-4.6,12.54-8.96,20-10.29,6.75-1.2,14.28,.89,18.92,6.13,6.6,7.45,6.55,18.17,7.52,27.67,.08,.75,.16,1.5,.26,2.25,1.45,11.33,5.1,22.5,12.74,30.91,8.15,8.96,21.6,14.06,33.36,9.82"/><path class="cls-16" d="M613.9,84.68c9.58,.17,19.14,1.08,28.56,2.68,4.19,.71,8.44,1.59,12.15,3.68,7.47,4.19,11.29,12.24,13.24,20.59,.53,2.27,.93,4.55,1.23,6.79,1.27,9.68,1.35,19.52,.28,29.24-1.06,9.63-3.44,19.3-2.56,29.17,.57,6.39,2.24,12.99,5.32,18.61,2.67,4.87,6.55,9.01,11.65,11.19,.91,.39,1.85,.71,2.81,.97,5.92,1.57,12.31,.44,18.06-1.89,1.84-.75,3.62-1.61,5.35-2.53,4.51-2.42,8.79-5.3,12.92-8.11,6.6-4.45,13.22-8.4,20.87-9.47,6.57-.92,13.85,1.08,18.41,6.16,6.48,7.23,6.68,17.55,7.87,26.66,.09,.72,.2,1.44,.31,2.16,1.71,10.85,5.54,21.42,13.12,29.27,8.08,8.38,21.13,12.98,32.49,8.67"/><path class="cls-10" d="M612.41,87.42c9.41,.15,18.79,1.08,28.02,2.73,4.1,.73,8.26,1.63,11.91,3.68,7.33,4.11,11.21,11.89,13.3,19.99,.57,2.2,1.01,4.42,1.36,6.6,1.47,9.41,1.78,19.01,.96,28.52-.81,9.42-2.94,18.9-1.98,28.58,.65,6.57,2.34,13.35,5.44,19.17,2.69,5.03,6.62,9.36,11.83,11.66,.93,.41,1.89,.76,2.88,1.03,6.08,1.67,12.64,.5,18.58-1.86,1.9-.75,3.74-1.62,5.52-2.55,4.66-2.43,9.13-5.27,13.47-7.98,6.93-4.32,13.89-7.85,21.73-8.65,6.39-.66,13.42,1.27,17.89,6.19,6.36,7.01,6.8,16.92,8.22,25.64,.11,.69,.23,1.38,.36,2.06,1.97,10.36,5.98,20.34,13.5,27.64,8.01,7.79,20.67,11.9,31.62,7.52"/><path class="cls-27" d="M610.92,90.16c9.23,.14,18.43,1.09,27.48,2.78,4.02,.75,8.08,1.67,11.67,3.67,7.19,4.02,11.13,11.54,13.35,19.38,.61,2.13,1.09,4.29,1.48,6.41,1.66,9.14,2.2,18.5,1.63,27.8-.56,9.21-2.44,18.51-1.39,27.99,.74,6.74,2.43,13.7,5.55,19.72,2.7,5.19,6.7,9.71,12.01,12.13,.95,.43,1.93,.8,2.94,1.08,6.23,1.78,12.97,.55,19.1-1.83,1.96-.76,3.86-1.64,5.7-2.57,4.82-2.43,9.48-5.23,14.02-7.85,7.27-4.18,14.55-7.3,22.6-7.84,6.2-.41,13,1.45,17.38,6.22,6.24,6.78,6.92,16.3,8.56,24.62,.13,.66,.27,1.31,.42,1.97,2.23,9.88,6.43,19.25,13.87,26.01,7.94,7.2,20.21,10.83,30.75,6.37"/><path class="cls-37" d="M609.43,92.89c9.06,.13,18.08,1.1,26.93,2.82,3.93,.77,7.91,1.71,11.42,3.67,7.06,3.94,11.05,11.19,13.4,18.78,.65,2.06,1.18,4.15,1.61,6.21,1.86,8.87,2.62,17.99,2.3,27.08-.32,9.01-1.93,18.12-.8,27.4,.84,6.92,2.53,14.06,5.67,20.28,2.72,5.35,6.77,10.06,12.19,12.6,.97,.46,1.98,.84,3.01,1.14,6.39,1.88,13.3,.61,19.62-1.8,2.01-.77,3.97-1.65,5.88-2.58,4.97-2.43,9.83-5.2,14.57-7.71,7.61-4.04,15.2-6.77,23.47-7.02,6-.18,12.57,1.64,16.86,6.25,6.11,6.56,7.04,15.68,8.91,23.6,.15,.63,.3,1.25,.47,1.87,2.49,9.39,6.87,18.17,14.25,24.38,7.87,6.62,19.75,9.75,29.89,5.23"/><path class="cls-8" d="M607.94,95.63c8.88,.11,17.73,1.1,26.39,2.87,3.85,.78,7.73,1.74,11.18,3.67,6.92,3.86,10.95,10.84,13.45,18.18,.68,2,1.26,4.02,1.74,6.02,2.06,8.6,3.04,17.48,2.97,26.36-.07,8.8-1.41,17.73-.22,26.81,.93,7.1,2.62,14.41,5.79,20.83,2.74,5.52,6.85,10.41,12.37,13.06,.99,.48,2.02,.88,3.08,1.2,6.55,1.98,13.63,.67,20.14-1.78,2.07-.78,4.09-1.67,6.06-2.6,5.13-2.43,10.18-5.16,15.12-7.58,7.95-3.9,15.84-6.25,24.34-6.2,5.8,.03,12.14,1.82,16.35,6.28,5.99,6.34,7.17,15.06,9.26,22.59,.17,.59,.34,1.19,.52,1.78,2.75,8.91,7.31,17.09,14.63,22.75,7.8,6.03,19.29,8.67,29.02,4.08"/><path class="cls-26" d="M606.44,98.37c8.71,.1,17.38,1.11,25.85,2.91,3.77,.8,7.55,1.78,10.94,3.67,6.78,3.78,10.87,10.49,13.5,17.58,.72,1.93,1.34,3.89,1.87,5.82,2.26,8.33,3.46,16.97,3.64,25.64,.18,8.59-.89,17.33,.37,26.22,1.03,7.28,2.72,14.77,5.91,21.39,2.75,5.68,6.92,10.76,12.55,13.53,1.01,.5,2.06,.92,3.14,1.25,6.71,2.08,13.95,.73,20.66-1.75,2.13-.79,4.21-1.68,6.23-2.62,5.29-2.44,10.53-5.12,15.68-7.45,8.29-3.75,16.49-5.74,25.2-5.38,5.6,.23,11.71,2.01,15.83,6.31,5.87,6.12,7.29,14.44,9.6,21.57,.18,.56,.37,1.12,.57,1.68,3.01,8.42,7.75,16.01,15,21.11,7.73,5.45,18.83,7.59,28.15,2.93"/><path class="cls-11" d="M604.95,101.11c8.53,.09,17.03,1.12,25.31,2.96,3.68,.82,7.38,1.82,10.69,3.66,6.65,3.69,10.79,10.15,13.56,16.97,.76,1.87,1.42,3.76,2,5.63,2.46,8.06,3.88,16.47,4.32,24.92,.43,8.38-.37,16.94,.96,25.63,1.14,7.45,2.81,15.12,6.03,21.94,2.77,5.84,7,11.12,12.73,14,1.03,.52,2.1,.96,3.21,1.31,6.86,2.18,14.28,.78,21.18-1.72,2.19-.8,4.33-1.7,6.41-2.63,5.44-2.44,10.88-5.08,16.23-7.32,8.63-3.61,17.12-5.26,26.07-4.56,5.4,.42,11.28,2.2,15.32,6.34,5.75,5.89,7.41,13.82,9.95,20.55,.2,.53,.41,1.06,.63,1.59,3.27,7.94,8.19,14.93,15.38,19.48,7.66,4.86,18.37,6.52,27.28,1.78"/><path class="cls-13" d="M603.46,103.85c8.36,.07,16.67,1.12,24.76,3.01,3.6,.84,7.2,1.86,10.45,3.66,6.51,3.61,10.71,9.8,13.61,16.37,.79,1.8,1.5,3.62,2.12,5.44,2.65,7.8,4.31,15.96,4.99,24.2,.67,8.17,.16,16.54,1.54,25.04,1.24,7.63,2.91,15.47,6.15,22.49,2.79,6.01,7.07,11.47,12.91,14.47,1.05,.54,2.14,1,3.28,1.37,7.02,2.28,14.61,.84,21.7-1.69,2.25-.8,4.45-1.71,6.59-2.65,5.6-2.44,11.23-5.04,16.78-7.19,8.97-3.47,17.76-4.79,26.94-3.75,5.2,.59,10.85,2.38,14.8,6.36,5.63,5.67,7.53,13.2,10.3,19.53,.22,.5,.44,1,.68,1.49,3.53,7.46,8.63,13.84,15.76,17.85,7.59,4.27,17.9,5.44,26.41,.63"/><path class="cls-1" d="M601.97,106.59c8.18,.06,16.32,1.13,24.22,3.05,3.51,.86,7.02,1.9,10.21,3.66,6.37,3.53,10.63,9.45,13.66,15.77,.83,1.73,1.58,3.49,2.25,5.24,2.85,7.53,4.73,15.45,5.66,23.48,.92,7.96,.69,16.15,2.13,24.45,1.35,7.81,3,15.83,6.27,23.05,2.8,6.17,7.15,11.82,13.09,14.94,1.07,.56,2.19,1.04,3.35,1.42,7.18,2.38,14.94,.9,22.22-1.66,2.3-.81,4.56-1.73,6.76-2.66,5.75-2.44,11.58-4.99,17.33-7.06,9.31-3.31,18.41-4.34,27.8-2.93,4.99,.75,10.42,2.57,14.29,6.39,5.51,5.45,7.65,12.57,10.64,18.52,.24,.47,.48,.94,.73,1.4,3.79,6.97,9.07,12.76,16.13,16.22,7.52,3.69,17.44,4.36,25.54-.51"/><path class="cls-22" d="M600.48,109.33c8.01,.05,15.97,1.13,23.68,3.1,3.43,.87,6.85,1.93,9.97,3.66,6.24,3.45,10.55,9.1,13.71,15.16,.87,1.67,1.66,3.36,2.38,5.05,3.05,7.26,5.15,14.94,6.33,22.76,1.17,7.75,1.23,15.75,2.72,23.86,1.47,7.98,3.1,16.18,6.39,23.6,2.82,6.33,7.22,12.17,13.27,15.4,1.09,.58,2.23,1.08,3.41,1.48,7.34,2.48,15.27,.96,22.74-1.63,2.36-.82,4.68-1.74,6.94-2.68,5.91-2.45,11.93-4.96,17.88-6.93,9.65-3.16,19.05-3.92,28.67-2.11,4.8,.9,9.99,2.75,13.77,6.42,5.39,5.22,7.78,11.95,10.99,17.5,.25,.44,.51,.87,.78,1.3,4.05,6.49,9.51,11.68,16.51,14.58,7.45,3.1,16.98,3.29,24.68-1.66"/><path class="cls-33" d="M598.98,112.07c7.83,.03,15.62,1.14,23.14,3.15,3.34,.89,6.67,1.97,9.72,3.65,6.1,3.36,10.47,8.75,13.77,14.56,.91,1.6,1.74,3.23,2.51,4.86,3.25,6.99,5.57,14.43,7,22.04,1.42,7.54,1.77,15.36,3.3,23.28,1.58,8.15,3.19,16.54,6.51,24.16,2.83,6.5,7.29,12.52,13.45,15.87,1.11,.61,2.27,1.12,3.48,1.54,7.5,2.59,15.6,1.02,23.26-1.6,2.42-.83,4.8-1.76,7.12-2.7,6.06-2.45,12.28-4.92,18.44-6.8,9.99-3.02,19.71-3.52,29.54-1.29,4.6,1.04,9.56,2.94,13.26,6.45,5.26,5,7.9,11.33,11.34,16.48,.27,.41,.55,.81,.83,1.21,4.31,6,9.95,10.6,16.89,12.95,7.38,2.51,16.52,2.21,23.81-2.81"/><path class="cls-35" d="M597.49,114.8c7.66,.02,15.26,1.15,22.59,3.19,3.26,.91,6.49,2.01,9.48,3.65,5.96,3.28,10.39,8.4,13.82,13.96,.94,1.53,1.82,3.09,2.63,4.66,3.45,6.72,5.99,13.92,7.67,21.32,1.66,7.34,2.31,14.96,3.89,22.69,1.71,8.33,3.29,16.89,6.63,24.71,2.85,6.66,7.37,12.87,13.63,16.34,1.13,.63,2.31,1.16,3.55,1.59,7.65,2.69,15.93,1.07,23.78-1.57,2.48-.84,4.92-1.78,7.3-2.71,6.22-2.45,12.62-4.88,18.99-6.67,10.33-2.87,20.37-3.14,30.4-.48,4.41,1.17,9.13,3.12,12.74,6.48,5.14,4.78,8.02,10.71,11.68,15.46,.29,.38,.59,.75,.89,1.11,4.57,5.52,10.39,9.51,17.26,11.32,7.31,1.93,16.06,1.13,22.94-3.96"/><path class="cls-32" d="M596,117.54c7.48,0,14.91,1.15,22.05,3.24,3.17,.93,6.32,2.05,9.24,3.65,5.83,3.2,10.31,8.05,13.87,13.35,.98,1.46,1.9,2.96,2.76,4.47,3.64,6.45,6.41,13.41,8.35,20.6,1.91,7.13,2.85,14.56,4.48,22.1,1.83,8.5,3.39,17.25,6.75,25.27,2.87,6.82,7.44,13.22,13.81,16.81,1.15,.65,2.36,1.2,3.61,1.65,7.81,2.79,16.26,1.13,24.3-1.55,2.54-.85,5.04-1.79,7.47-2.73,6.37-2.45,12.97-4.84,19.54-6.54,10.67-2.73,21.05-2.8,31.27,.34,4.23,1.3,8.7,3.31,12.23,6.51,5.02,4.55,8.14,10.09,12.03,14.45,.31,.34,.62,.68,.94,1.02,4.83,5.03,10.84,8.43,17.64,9.69,7.24,1.34,15.6,.06,22.07-5.11"/><path class="cls-21" d="M594.51,120.28c7.31,0,14.56,1.16,21.51,3.28,3.09,.94,6.14,2.08,9,3.65,5.69,3.12,10.23,7.7,13.92,12.75,1.02,1.4,1.98,2.83,2.89,4.27,3.84,6.18,6.84,12.9,9.02,19.88,2.16,6.92,3.4,14.16,5.06,21.51,1.96,8.67,3.48,17.6,6.87,25.82,2.88,6.99,7.52,13.57,14,17.27,1.17,.67,2.4,1.24,3.68,1.71,7.97,2.89,16.58,1.19,24.82-1.52,2.59-.85,5.15-1.81,7.65-2.75,6.53-2.46,13.32-4.8,20.09-6.41,11.01-2.59,21.75-2.48,32.14,1.16,4.05,1.42,8.27,3.5,11.71,6.54,4.9,4.33,8.27,9.47,12.38,13.43,.33,.31,.66,.62,.99,.92,5.09,4.55,11.28,7.35,18.02,8.05,7.17,.76,15.14-1.02,21.2-6.26"/><path class="cls-5" d="M593.02,123.02c7.13-.02,14.21,1.17,20.97,3.33,3.01,.96,5.96,2.12,8.75,3.64,5.55,3.03,10.16,7.34,13.97,12.15,1.06,1.33,2.06,2.69,3.02,4.08,4.04,5.91,7.26,12.39,9.69,19.16,2.41,6.71,3.95,13.76,5.65,20.92,2.1,8.84,3.58,17.96,6.99,26.38,2.9,7.15,7.59,13.92,14.18,17.74,1.19,.69,2.44,1.28,3.75,1.77,8.13,2.99,16.91,1.25,25.34-1.49,2.65-.86,5.27-1.82,7.83-2.76,6.69-2.46,13.67-4.76,20.64-6.28,11.35-2.44,22.47-2.19,33,1.98,3.88,1.54,7.84,3.68,11.2,6.57,4.78,4.11,8.39,8.85,12.72,12.41,.34,.28,.69,.56,1.04,.83,5.35,4.07,11.72,6.27,18.39,6.42,7.1,.17,14.68-2.1,20.33-7.4"/><path class="cls-4" d="M591.52,125.76c6.96-.03,13.85,1.17,20.43,3.38,2.92,.98,5.79,2.16,8.51,3.64,5.42,2.95,10.08,6.99,14.03,11.54,1.1,1.26,2.15,2.56,3.14,3.89,4.24,5.64,7.68,11.88,10.36,18.44,2.65,6.5,4.5,13.36,6.24,20.33,2.24,9,3.67,18.31,7.11,26.93,2.92,7.31,7.67,14.27,14.36,18.21,1.21,.71,2.48,1.32,3.82,1.82,8.28,3.09,17.24,1.3,25.86-1.46,2.71-.87,5.39-1.84,8.01-2.78,6.84-2.46,14.02-4.73,21.19-6.14,11.69-2.3,23.22-1.94,33.87,2.79,3.72,1.65,7.42,3.87,10.68,6.6,4.66,3.89,8.51,8.22,13.07,11.39,.36,.25,.73,.49,1.1,.73,5.61,3.58,12.16,5.18,18.77,4.79,7.03-.42,14.21-3.17,19.47-8.55"/><path class="cls-2" d="M590.03,128.5c6.78-.05,13.5,1.18,19.88,3.42,2.84,1,5.61,2.2,8.27,3.64,5.28,2.87,10,6.64,14.08,10.94,1.14,1.19,2.23,2.43,3.27,3.69,4.44,5.38,8.1,11.37,11.03,17.72,2.9,6.29,5.05,12.95,6.82,19.74,2.39,9.17,3.77,18.66,7.23,27.48,2.93,7.47,7.74,14.62,14.54,18.68,1.23,.73,2.52,1.37,3.88,1.88,8.44,3.19,17.57,1.36,26.38-1.43,2.77-.88,5.51-1.85,8.18-2.79,7-2.46,14.37-4.69,21.75-6.01,12.02-2.16,23.99-1.7,34.74,3.61,3.57,1.76,6.99,4.05,10.17,6.62,4.54,3.66,8.63,7.6,13.42,10.38,.38,.22,.76,.43,1.15,.64,5.87,3.1,12.6,4.1,19.15,3.16,6.96-1,13.75-4.25,18.6-9.7"/><path class="cls-9" d="M588.54,131.24c15.39-.14,30.4,6.79,41.5,17.44,11.1,10.66,18.46,24.81,22.51,39.66,2.55,9.33,3.86,19.02,7.35,28.04s9.64,17.62,18.67,21.08c11.3,4.33,23.82-.27,35.26-4.21,18.81-6.49,40.45-11.02,57.9-1.46,8.69,4.76,15.5,12.66,24.62,16.55,12.64,5.39,28.64,1.39,37.25-9.32"/></g><g class="cls-42"><path class="cls-7" d="M67.33,410.67c1.2-14.65,3.28-29.23,6.23-43.63,1.31-6.4,2.85-12.92,6.4-18.4,9.07-14.02,28.11-17.25,44.81-16.98,15.38,.25,30.73,2.34,45.62,6.21,14.76,3.83,29.31,9.44,44.55,9.73,15.24,.29,31.94-6.3,38.06-20.26,3.64-8.31,2.97-18.04-.2-26.54-3.17-8.5-8.64-15.94-14.51-22.86-6.72-7.92-14.33-15.81-16.67-25.93-2.42-10.47,1.83-22.19,10.4-28.68,12.19-9.23,29.12-7.09,44.4-6.59,19.42,.64,39.7-2.4,55.72-13.4,16.02-10.99,26.65-31.29,22.04-50.16"/><path class="cls-6" d="M71.11,413.04c1.17-14.4,3.26-28.72,6.24-42.85,1.33-6.28,2.89-12.66,6.37-18.06,7-10.84,19.91-15.29,33.03-16.73,3.57-.39,7.16-.56,10.66-.58,15.02-.05,30.04,1.7,44.65,5.19,14.48,3.46,28.79,8.75,43.76,8.85,8.39,.06,17.2-1.76,24.63-5.61,6.46-3.36,11.89-8.33,14.91-14.98,.54-1.19,1-2.41,1.37-3.65,2.28-7.66,1.36-16.13-1.39-23.72-.88-2.44-1.94-4.8-3.13-7.08-3.1-5.97-7.06-11.52-11.15-16.8-6.49-8.39-13.45-16.78-15.43-27.1s2.06-21.56,10.4-27.94c11.86-9.08,28.24-7.32,42.98-7.17,1.16,.01,2.32,0,3.49,0,17.63-.26,35.56-3.88,49.8-14.15,15.18-10.94,25.08-30.72,20.33-49.02"/><path class="cls-23" d="M74.88,415.4c1.13-14.15,3.24-28.22,6.26-42.07,1.34-6.16,2.93-12.41,6.35-17.71,6.87-10.65,19.41-15.2,32.18-16.85,3.48-.45,6.98-.69,10.39-.78,14.65-.36,29.35,1.05,43.69,4.17,14.2,3.09,28.26,8.03,42.97,7.96,8.65-.04,17.72-1.86,25.43-5.74,6.7-3.37,12.39-8.41,15.6-15.2,.57-1.21,1.06-2.46,1.45-3.74,2.44-7.88,1.47-16.6-1.3-24.46-.89-2.52-1.95-4.96-3.14-7.34-3.09-6.2-6.97-12.02-10.92-17.58-6.25-8.86-12.57-17.74-14.19-28.26s2.29-20.93,10.39-27.2c11.53-8.93,27.36-7.55,41.56-7.75,1.12-.02,2.24-.05,3.36-.09,16.96-.67,34.06-4.61,47.51-14.83,14.34-10.89,23.5-30.16,18.61-47.88"/><path class="cls-20" d="M78.66,417.77c1.1-13.91,3.22-27.72,6.28-41.3,1.36-6.04,2.97-12.15,6.32-17.37,6.74-10.46,18.91-15.12,31.33-16.98,3.39-.51,6.8-.82,10.12-.98,14.28-.67,28.66,.4,42.72,3.15,13.92,2.72,27.75,7.31,42.17,7.07,8.91-.15,18.23-1.97,26.23-5.86,6.93-3.38,12.9-8.48,16.28-15.42,.61-1.24,1.12-2.52,1.54-3.84,2.6-8.09,1.58-17.06-1.22-25.2-.9-2.6-1.97-5.13-3.14-7.59-3.08-6.42-6.89-12.51-10.68-18.36-6.02-9.33-11.7-18.67-12.95-29.43-1.12-9.73,2.51-20.3,10.39-26.47,11.21-8.77,26.49-7.78,40.14-8.34,1.07-.04,2.15-.1,3.23-.17,16.29-1.08,32.55-5.33,45.21-15.51,13.49-10.85,21.92-29.59,16.9-46.74"/><path class="cls-16" d="M82.44,420.14c1.07-13.66,3.2-27.22,6.3-40.52,1.38-5.91,3-11.9,6.3-17.02,6.61-10.27,18.4-15.04,30.47-17.1,3.3-.57,6.61-.94,9.86-1.18,13.92-.97,27.97-.24,41.75,2.13,13.65,2.35,27.23,6.58,41.38,6.19,9.17-.25,18.74-2.07,27.03-5.98,7.17-3.39,13.41-8.56,16.96-15.63,.64-1.27,1.18-2.58,1.63-3.93,2.76-8.31,1.69-17.53-1.13-25.94-.9-2.69-1.98-5.3-3.15-7.85-3.07-6.64-6.8-13-10.45-19.13-5.78-9.8-10.84-19.59-11.7-30.59-.74-9.45,2.74-19.67,10.39-25.73,10.88-8.62,25.61-8.01,38.71-8.92,1.03-.07,2.06-.16,3.1-.26,15.62-1.49,31.05-6.05,42.91-16.19,12.65-10.8,20.35-29.03,15.19-45.6"/><path class="cls-10" d="M86.22,422.5c1.03-13.41,3.17-26.71,6.32-39.74,1.4-5.79,3.04-11.64,6.28-16.67,6.48-10.09,17.9-14.95,29.62-17.23,3.2-.63,6.43-1.07,9.59-1.38,13.55-1.28,27.28-.89,40.78,1.11,13.37,1.98,26.71,5.84,40.59,5.3,9.43-.36,19.26-2.18,27.83-6.1,7.4-3.4,13.91-8.63,17.64-15.85,.67-1.3,1.25-2.64,1.72-4.02,2.92-8.53,1.8-17.99-1.05-26.68-.91-2.77-1.99-5.47-3.16-8.1-3.06-6.86-6.73-13.49-10.21-19.91-5.57-10.26-9.99-20.5-10.46-31.76-.38-9.17,2.97-19.04,10.38-24.99,10.55-8.46,24.74-8.23,37.29-9.5,.99-.1,1.98-.21,2.96-.34,14.96-1.91,29.54-6.78,40.62-16.86,11.81-10.75,18.77-28.46,13.47-44.46"/><path class="cls-34" d="M90,424.87c1-13.16,3.15-26.21,6.34-38.96,1.42-5.67,3.08-11.39,6.25-16.33,6.36-9.9,17.39-14.87,28.77-17.36,3.11-.69,6.25-1.2,9.32-1.58,13.19-1.58,26.59-1.53,39.81,.09,13.09,1.61,26.19,5.08,39.8,4.41,9.69-.48,19.77-2.28,28.63-6.22,7.63-3.41,14.42-8.71,18.33-16.06,.71-1.32,1.31-2.7,1.81-4.12,3.07-8.74,1.91-18.46-.96-27.42-.92-2.86-2-5.64-3.17-8.35-3.05-7.09-6.65-13.98-9.98-20.68-5.34-10.73-9.16-21.39-9.22-32.93-.05-8.88,3.2-18.42,10.38-24.25,10.22-8.31,23.86-8.46,35.87-10.09,.95-.13,1.89-.27,2.83-.42,14.29-2.32,28.03-7.5,38.32-17.54,10.97-10.7,17.2-27.9,11.76-43.33"/><path class="cls-37" d="M93.77,427.23c.96-12.91,3.13-25.71,6.36-38.19,1.44-5.55,3.12-11.13,6.23-15.98,6.23-9.71,16.89-14.78,27.91-17.48,3.02-.75,6.06-1.33,9.05-1.78,12.82-1.89,25.9-2.18,38.85-.94,12.81,1.24,25.67,4.32,39,3.53,9.95-.6,20.28-2.39,29.43-6.34,7.87-3.42,14.92-8.78,19.01-16.28,.74-1.35,1.37-2.75,1.9-4.21,3.23-8.96,2.02-18.92-.87-28.16-.92-2.94-2.01-5.81-3.17-8.61-3.04-7.31-6.56-14.48-9.75-21.46-5.11-11.2-8.34-22.27-7.98-34.09,.26-8.58,3.43-17.79,10.38-23.52,9.89-8.16,22.98-8.69,34.45-10.67,.9-.16,1.8-.32,2.7-.5,13.62-2.73,26.53-8.22,36.02-18.22,10.12-10.65,15.62-27.33,10.05-42.19"/><path class="cls-8" d="M97.55,429.6c.93-12.66,3.11-25.2,6.38-37.41,1.45-5.43,3.16-10.88,6.2-15.64,6.1-9.53,16.39-14.67,27.06-17.61,2.93-.81,5.88-1.45,8.79-1.98,12.45-2.19,25.21-2.82,37.88-1.96,12.54,.87,25.15,3.56,38.21,2.64,10.21-.72,20.8-2.49,30.23-6.47,8.1-3.42,15.43-8.86,19.69-16.49,.77-1.38,1.43-2.81,1.98-4.3,3.39-9.17,2.14-19.38-.79-28.89-.93-3.02-2.02-5.98-3.18-8.86-3.03-7.53-6.48-14.97-9.51-22.24-4.87-11.68-7.54-23.15-6.74-35.26,.55-8.27,3.65-17.16,10.37-22.78,9.56-8,22.11-8.92,33.03-11.25,.86-.18,1.72-.38,2.57-.59,12.95-3.15,25.02-8.95,33.73-18.9,9.28-10.6,14.04-26.77,8.33-41.05"/><path class="cls-26" d="M101.33,431.96c.9-12.42,3.09-24.7,6.4-36.63,1.47-5.3,3.2-10.62,6.18-15.29,5.97-9.34,15.89-14.59,26.2-17.73,2.84-.86,5.7-1.58,8.52-2.18,12.09-2.5,24.52-3.47,36.91-2.98,12.26,.5,24.64,2.78,37.42,1.75,10.47-.84,21.31-2.6,31.03-6.59,8.33-3.43,15.94-8.93,20.37-16.71,.8-1.4,1.5-2.87,2.07-4.39,3.55-9.39,2.25-19.85-.7-29.63-.94-3.11-2.04-6.15-3.19-9.12-3.02-7.75-6.39-15.47-9.28-23.01-4.64-12.15-6.77-24.02-5.5-36.42,.82-7.97,3.88-16.53,10.37-22.04,9.23-7.85,21.23-9.15,31.61-11.83,.82-.21,1.63-.44,2.44-.67,12.28-3.56,23.51-9.67,31.43-19.58,8.44-10.55,12.47-26.2,6.62-39.91"/><path class="cls-11" d="M105.11,434.33c.86-12.17,3.07-24.2,6.42-35.86,1.49-5.18,3.24-10.37,6.16-14.94,5.84-9.15,15.38-14.5,25.35-17.86,2.74-.92,5.51-1.71,8.25-2.38,11.72-2.81,23.83-4.12,35.94-4,11.98,.12,24.12,2,36.63,.87,10.74-.98,21.82-2.7,31.83-6.71,8.57-3.44,16.44-9.01,21.06-16.93,.84-1.43,1.56-2.93,2.16-4.49,3.71-9.61,2.36-20.31-.62-30.37-.95-3.19-2.05-6.32-3.2-9.37-3.01-7.97-6.31-15.96-9.04-23.79-4.4-12.62-6.02-24.89-4.25-37.59,1.06-7.66,4.11-15.9,10.37-21.31,8.91-7.69,20.36-9.38,30.18-12.42,.77-.24,1.54-.49,2.31-.75,11.61-3.97,22.01-10.39,29.13-20.26,7.6-10.5,10.89-25.64,4.91-38.77"/><path class="cls-13" d="M108.89,436.7c.83-11.92,3.05-23.7,6.44-35.08,1.51-5.06,3.28-10.11,6.13-14.6,5.71-8.96,14.88-14.42,24.5-17.99,2.65-.98,5.33-1.84,7.99-2.58,11.36-3.11,23.15-4.76,34.98-5.02,11.71-.25,23.6,1.22,35.83-.02,11-1.11,22.34-2.81,32.63-6.83,8.8-3.45,16.95-9.08,21.74-17.14,.87-1.46,1.62-2.99,2.25-4.58,3.86-9.82,2.47-20.78-.53-31.11-.95-3.27-2.06-6.49-3.21-9.63-3-8.2-6.22-16.45-8.81-24.56-4.17-13.09-5.29-25.76-3.01-38.75,1.29-7.36,4.34-15.27,10.36-20.57,8.58-7.54,19.48-9.6,28.76-13,.73-.27,1.46-.55,2.18-.84,10.94-4.39,20.5-11.11,26.83-20.94,6.75-10.46,9.31-25.07,3.19-37.63"/><path class="cls-1" d="M112.67,439.06c.79-11.67,3.03-23.19,6.46-34.3,1.53-4.94,3.31-9.86,6.11-14.25,5.58-8.78,14.38-14.33,23.64-18.11,2.56-1.04,5.15-1.96,7.72-2.77,10.99-3.42,22.46-5.41,34.01-6.04,11.43-.62,23.08,.42,35.04-.91,11.26-1.25,22.85-2.92,33.43-6.95,9.03-3.46,17.46-9.16,22.42-17.36,.9-1.49,1.69-3.04,2.34-4.67,4.02-10.04,2.58-21.24-.45-31.85-.96-3.36-2.07-6.66-3.21-9.88-2.99-8.42-6.12-16.95-8.57-25.34-3.91-13.57-4.6-26.64-1.77-39.92,1.5-7.06,4.57-14.65,10.36-19.83,8.25-7.39,18.6-9.83,27.34-13.58,.69-.3,1.37-.6,2.05-.92,10.28-4.8,19-11.84,24.54-21.62,5.91-10.41,7.74-24.51,1.48-36.49"/><path class="cls-22" d="M116.44,441.43c.76-11.42,3-22.69,6.48-33.53,1.54-4.82,3.35-9.6,6.08-13.91,5.45-8.59,13.87-14.25,22.79-18.24,2.47-1.1,4.96-2.09,7.45-2.97,10.62-3.72,21.77-6.05,33.04-7.06,11.15-.99,22.56-.37,34.25-1.79s23.36-3.02,34.24-7.08c9.27-3.47,17.96-9.23,23.1-17.57,.93-1.51,1.75-3.1,2.43-4.77,4.18-10.25,2.69-21.71-.36-32.59-.97-3.44-2.08-6.83-3.22-10.13-2.98-8.64-6.04-17.45-8.34-26.12-3.67-14.04-3.94-27.52-.53-41.09,1.7-6.77,4.79-14.02,10.36-19.1,7.92-7.23,17.73-10.06,25.92-14.17,.65-.32,1.29-.66,1.92-1,9.61-5.21,17.49-12.56,22.24-22.29,5.07-10.36,6.16-23.94-.23-35.35"/><path class="cls-33" d="M120.22,443.79c.73-11.18,2.98-22.19,6.5-32.75,1.56-4.69,3.39-9.35,6.06-13.56,5.32-8.4,13.37-14.16,21.94-18.36,2.37-1.16,4.78-2.22,7.19-3.17,10.26-4.03,21.08-6.7,32.07-8.08,10.87-1.36,22.04-1.18,33.46-2.68s23.88-3.13,35.04-7.2c9.5-3.48,18.47-9.31,23.79-17.79,.97-1.54,1.81-3.16,2.51-4.86,4.34-10.47,2.8-22.17-.27-33.33-.97-3.52-2.09-7-3.23-10.39-2.97-8.86-5.95-17.94-8.1-26.89-3.44-14.51-3.31-28.42,.71-42.25,1.88-6.48,5.02-13.39,10.35-18.36,7.59-7.08,16.85-10.29,24.5-14.75,.6-.35,1.2-.71,1.79-1.08,8.94-5.62,15.98-13.28,19.94-22.97,4.23-10.31,4.58-23.38-1.95-34.21"/><path class="cls-35" d="M124,446.16c.69-10.93,2.96-21.69,6.51-31.97,1.58-4.57,3.43-9.09,6.04-13.21,5.19-8.21,12.87-14.08,21.08-18.49,2.28-1.22,4.6-2.35,6.92-3.37,9.89-4.33,20.39-7.34,31.1-9.1,10.6-1.73,21.52-1.98,32.66-3.57,12.03-1.71,24.39-3.23,35.84-7.32,9.73-3.49,18.97-9.38,24.47-18,1-1.57,1.87-3.22,2.6-4.95,4.5-10.69,2.91-22.63-.19-34.07-.98-3.61-2.11-7.17-3.24-10.64-2.96-9.09-5.87-18.43-7.87-27.67-3.21-14.99-2.72-29.34,1.95-43.42,2.06-6.19,5.25-12.76,10.35-17.62,7.26-6.92,15.98-10.52,23.07-15.33,.56-.38,1.11-.77,1.66-1.17,8.27-6.04,14.48-14.01,17.65-23.65,3.38-10.26,3.01-22.81-3.66-33.07"/><path class="cls-32" d="M127.78,448.52c.66-10.68,2.94-21.18,6.53-31.19,1.6-4.45,3.47-8.84,6.01-12.87,5.06-8.03,12.36-14,20.23-18.62,2.19-1.28,4.41-2.47,6.65-3.57,9.53-4.64,19.7-7.99,30.14-10.12,10.32-2.1,20.99-2.79,31.87-4.45,12.28-1.88,24.9-3.34,36.64-7.44,9.97-3.5,19.48-9.46,25.15-18.22,1.03-1.59,1.94-3.28,2.69-5.05,4.65-10.9,3.02-23.1-.1-34.81-.99-3.69-2.12-7.34-3.25-10.9-2.95-9.31-5.78-18.93-7.64-28.45-2.97-15.46-2.17-30.28,3.19-44.58,2.22-5.92,5.48-12.13,10.35-16.88,6.93-6.77,15.1-10.75,21.65-15.92,.52-.41,1.03-.82,1.53-1.25,7.6-6.45,12.97-14.73,15.35-24.33,2.54-10.21,1.43-22.25-5.37-31.93"/><path class="cls-21" d="M131.56,450.89c.63-10.43,2.92-20.68,6.55-30.42,1.62-4.33,3.51-8.58,5.99-12.52,4.94-7.84,11.86-13.92,19.37-18.74,2.1-1.34,4.23-2.6,6.39-3.77,9.16-4.95,19.01-8.64,29.17-11.14,10.04-2.47,20.47-3.61,31.08-5.34,12.54-2.05,25.42-3.44,37.44-7.56,10.2-3.5,19.99-9.53,25.83-18.44,1.07-1.62,2-3.33,2.78-5.14,4.81-11.12,3.13-23.56-.02-35.54-.99-3.78-2.13-7.51-3.25-11.15-2.94-9.53-5.7-19.42-7.4-29.22-2.74-15.93-1.66-31.25,4.44-45.75,2.38-5.66,5.71-11.5,10.34-16.15,6.61-6.62,14.22-10.97,20.23-16.5,.47-.44,.94-.88,1.4-1.33,6.93-6.86,11.46-15.45,13.05-25.01,1.7-10.16-.15-21.68-7.09-30.79"/><path class="cls-5" d="M135.34,453.26c.59-10.18,2.9-20.18,6.57-29.64,1.63-4.21,3.55-8.33,5.96-12.18,4.81-7.65,11.34-13.85,18.52-18.87,2-1.41,4.05-2.73,6.12-3.97,8.79-5.25,18.32-9.28,28.2-12.16,9.77-2.84,19.94-4.42,30.29-6.23,12.79-2.23,25.93-3.55,38.24-7.69,10.44-3.51,20.49-9.61,26.51-18.65,1.1-1.65,2.06-3.39,2.87-5.23,4.97-11.34,3.24-24.03,.07-36.28-1-3.86-2.14-7.68-3.26-11.4-2.93-9.75-5.61-19.92-7.17-30-2.5-16.4-1.18-32.25,5.68-46.92,2.53-5.41,5.93-10.87,10.34-15.41,6.28-6.46,13.35-11.2,18.81-17.08,.43-.46,.85-.94,1.27-1.42,6.27-7.28,9.96-16.18,10.76-25.69,.86-10.12-1.72-21.12-8.8-29.65"/><path class="cls-4" d="M139.11,455.62c.56-9.94,2.88-19.67,6.59-28.86,1.65-4.08,3.59-8.07,5.94-11.83,4.68-7.47,10.84-13.76,17.67-18.99,1.91-1.47,3.86-2.86,5.85-4.17,8.43-5.56,17.63-9.93,27.23-13.18,9.49-3.21,19.41-5.24,29.49-7.11,13.04-2.42,26.44-3.65,39.04-7.81,10.67-3.52,21-9.68,27.2-18.87,1.13-1.68,2.12-3.45,2.96-5.32,5.13-11.55,3.35-24.49,.16-37.02-1.01-3.94-2.15-7.85-3.27-11.66-2.92-9.98-5.53-20.41-6.93-30.77-2.27-16.87-.75-33.29,6.92-48.08,2.68-5.17,6.16-10.25,10.34-14.67,5.95-6.31,12.47-11.43,17.39-17.66,.39-.49,.77-.99,1.14-1.5,5.6-7.69,8.45-16.9,8.46-26.37,.01-10.07-3.3-20.55-10.52-28.51"/><path class="cls-2" d="M142.89,457.99c.52-9.69,2.85-19.17,6.61-28.09,1.67-3.96,3.62-7.82,5.92-11.48,4.55-7.28,10.34-13.68,16.81-19.12,1.81-1.53,3.68-2.98,5.59-4.37,8.06-5.86,16.94-10.57,26.27-14.2,9.21-3.58,18.88-6.07,28.7-8,13.29-2.62,26.96-3.76,39.84-7.93,10.9-3.53,21.51-9.76,27.88-19.08,1.16-1.7,2.19-3.51,3.05-5.42,5.29-11.77,3.46-24.95,.24-37.76-1.01-4.03-2.16-8.01-3.28-11.91-2.91-10.2-5.44-20.9-6.7-31.55-2.03-17.34-.35-34.37,8.16-49.25,2.83-4.94,6.39-9.62,10.33-13.94,5.62-6.15,11.6-11.66,15.97-18.25,.34-.52,.68-1.05,1.01-1.58,4.93-8.1,6.95-17.62,6.16-27.04-.83-10.02-4.87-19.99-12.23-27.37"/><path class="cls-9" d="M146.67,460.35c1.14-21.96,12.31-42.78,28.48-57.69,16.17-14.91,37-24.19,58.53-28.68,13.53-2.82,27.47-3.86,40.64-8.05,13.17-4.19,25.98-12.23,31.7-24.81,7.16-15.75,1.68-34-2.96-50.67-7.62-27.4-12.22-58.67,2.94-82.74,7.55-11.99,19.41-21.02,25.75-33.69,8.79-17.57,4.46-40.74-10.07-53.95"/></g><g class="cls-42"><path class="cls-9" d="M106.01,528.83c-8.54-15.16,1.68-35.15,16.57-44.16,14.89-9.02,32.95-10.45,50.06-13.65,17.11-3.19,35.29-9.4,44.64-24.07,11.96-18.76,5.62-45.28,18.36-63.52,9.93-14.22,28.57-18.84,45.04-18.07,9.32,.43,18.49,3.84,27.72,5.04,41.85,5.46,60.42,44.13,91.64,38.21,33.8-6.42,44.47-28.57,46.02-41.52,1.99-16.6,.15-56.8-40.64-68.49-16.57-4.75-33.26-10.22-47.81-19.46-21.79-13.84-33.95-43.69-22.95-67.04,7.54-16.01,24.42-27.66,26.81-45.19,1.6-11.78-4.19-23.74-13.01-31.72-8.82-7.98-20.3-12.43-31.88-15.11"/><path class="cls-31" d="M107.05,529.33c-8.12-15.87,1.73-36.52,16.95-46.08,14.86-9.33,33.16-10.91,50.41-13.77s35.01-8.3,44.67-22.12c12.33-17.67,7.33-43.26,20.11-61.34,10.2-14.36,28.15-19.85,44.63-20.03,9.46-.1,19.05,2.72,28.66,3.84,40.73,4.75,59.21,41.95,89.77,36.2,32.86-6.2,43.77-27.49,45.63-40.38,2.35-16.33,.46-55.01-38.52-67.13-16.07-4.99-32.38-10.85-46.76-20.07-21.19-13.54-33.13-42.24-23.07-65.05,6.96-15.78,22.99-27.63,25.42-44.96,1.68-11.86-3.64-23.81-11.89-32.11s-19.36-13.54-30.78-16.83"/><path class="cls-17" d="M108.09,529.84c-7.7-16.58,1.78-37.89,17.33-47.99,14.83-9.63,33.38-11.37,50.77-13.88,16.98-2.45,34.73-7.21,44.7-20.16,12.71-16.57,9-41.26,21.86-59.16,10.44-14.53,27.75-20.87,44.21-21.98,9.62-.65,19.61,1.6,29.59,2.64,39.59,4.09,58,39.77,87.9,34.2,31.93-5.98,43.08-26.42,45.23-39.23,2.7-16.06,.76-53.25-36.41-65.76-15.58-5.24-31.51-11.48-45.7-20.69-20.6-13.25-32.32-40.8-23.18-63.05,6.39-15.56,21.56-27.59,24.03-44.73,1.76-11.93-3.08-23.89-10.76-32.5s-18.42-14.64-29.69-18.54"/><path class="cls-19" d="M109.13,530.34c-7.27-17.29,1.84-39.25,17.72-49.9,14.8-9.93,33.59-11.84,51.13-14,16.92-2.08,34.45-6.11,44.72-18.21,13.08-15.47,10.69-39.25,23.61-56.98,10.69-14.68,27.36-21.92,43.8-23.93,9.78-1.2,20.16,.49,30.53,1.43,38.44,3.49,56.79,37.59,86.03,32.19,30.99-5.76,42.37-25.34,44.83-38.09,3.05-15.78,1.06-51.51-34.29-64.39-15.09-5.5-30.61-12.15-44.65-21.3-19.96-13.01-31.51-39.38-23.3-61.06,5.81-15.35,20.09-27.56,22.64-44.5,1.81-12.02-2.52-23.98-9.63-32.88s-17.48-15.74-28.59-20.26"/><path class="cls-5" d="M110.17,530.84c-6.85-18,1.89-40.61,18.1-51.82,14.78-10.22,33.8-12.31,51.49-14.12s34.17-5.02,44.75-16.25c13.45-14.38,12.39-37.23,25.36-54.81,10.95-14.83,26.98-22.98,43.38-25.89,9.95-1.76,20.72-.62,31.47,.23,37.29,2.93,55.58,35.41,84.16,30.19,30.05-5.54,41.67-24.27,44.43-36.94,3.39-15.51,1.34-49.8-32.17-63.02-14.61-5.76-29.73-12.8-43.6-21.91-19.36-12.73-30.71-37.96-23.41-59.07,5.24-15.14,18.65-27.53,21.25-44.26,1.88-12.09-1.96-24.08-8.51-33.27s-16.54-16.84-27.49-21.97"/><path class="cls-21" d="M111.22,531.35c-6.42-18.71,1.95-41.97,18.48-53.73,14.76-10.5,34.01-12.78,51.85-14.23,16.78-1.37,33.91-3.9,44.77-14.3,13.85-13.25,14.09-35.22,27.11-52.63,11.21-14.99,26.6-24.06,42.97-27.84,10.11-2.34,21.27-1.72,32.41-.97,36.12,2.42,54.37,33.23,82.29,28.18,29.11-5.32,40.96-23.19,44.04-35.79,3.73-15.23,1.63-48.13-30.05-61.65-14.14-6.04-28.86-13.44-42.55-22.53-18.75-12.44-29.92-36.56-23.53-57.08,4.66-14.95,17.21-27.5,19.85-44.03,1.95-12.17-1.39-24.18-7.38-33.66-6.36-10.06-15.6-17.95-26.39-23.69"/><path class="cls-3" d="M112.26,531.85c-6-19.42,2.01-43.32,18.87-55.64,14.75-10.78,34.21-13.26,52.21-14.35,16.71-1.02,33.64-2.8,44.8-12.34,14.22-12.15,15.79-33.2,28.86-50.45,11.47-15.14,26.22-25.16,42.55-29.79,10.28-2.92,21.82-2.82,33.35-2.18,34.95,1.95,53.16,31.05,80.42,26.18,28.17-5.1,40.24-22.11,43.64-34.65,4.06-14.96,1.91-46.49-27.94-60.28-13.68-6.32-27.98-14.08-41.49-23.14-18.15-12.16-29.14-35.17-23.64-55.09,4.07-14.76,15.77-27.46,18.46-43.8,2.02-12.25-.81-24.3-6.26-34.05-5.86-10.5-14.66-19.05-25.29-25.4"/><path class="cls-28" d="M113.3,532.36c-5.58-20.13,2.07-44.66,19.25-57.56,14.73-11.06,34.42-13.74,52.57-14.47,16.64-.67,33.36-1.71,44.82-10.39,14.59-11.05,17.5-31.18,30.61-48.27,11.73-15.29,25.84-26.27,42.13-31.75,10.45-3.51,22.37-3.91,34.29-3.38,33.78,1.51,51.95,28.87,78.55,24.17,27.24-4.88,39.52-21.04,43.24-33.5,4.38-14.68,2.2-44.89-25.82-58.92-13.22-6.62-27.1-14.72-40.44-23.75-17.55-11.87-28.37-33.78-23.75-53.09,3.48-14.58,14.34-27.43,17.07-43.57,2.09-12.33-.23-24.43-5.13-34.44-5.36-10.96-13.72-20.15-24.19-27.12"/><path class="cls-14" d="M114.34,532.86c-5.15-20.84,2.14-46.01,19.64-59.47,14.72-11.33,34.63-14.22,52.92-14.58,16.57-.33,33.08-.61,44.85-8.43,14.96-9.95,19.21-29.16,32.36-46.09,11.99-15.43,25.46-27.4,41.72-33.7,10.62-4.12,22.91-5,35.23-4.59,32.6,1.1,50.74,26.68,76.68,22.17,26.3-4.66,38.8-19.96,42.85-32.35,4.7-14.41,2.48-43.34-23.7-57.55-12.76-6.93-26.22-15.36-39.39-24.37-16.94-11.59-27.61-32.41-23.87-51.1,2.88-14.41,12.9-27.4,15.68-43.33,2.16-12.4,.35-24.56-4.01-34.83-4.84-11.42-12.77-21.26-23.09-28.83"/><path class="cls-33" d="M115.38,533.36c-4.73-21.55,2.21-47.34,20.02-61.38,14.72-11.6,34.83-14.71,53.28-14.7,16.49,.01,32.8,.49,44.88-6.48,15.33-8.85,20.91-27.14,34.11-43.91,12.26-15.58,25.07-28.54,41.3-35.65,10.78-4.73,23.46-6.08,36.17-5.79,31.42,.72,49.53,24.5,74.81,20.16,25.36-4.44,38.08-18.88,42.45-31.21,5.02-14.13,2.78-41.83-21.58-56.18-12.31-7.25-25.35-16-38.34-24.98-16.34-11.3-26.87-31.05-23.98-49.11,2.28-14.24,11.47-27.36,14.29-43.1,2.24-12.48,.95-24.69-2.88-35.22-4.32-11.88-11.83-22.36-21.99-30.55"/><path class="cls-24" d="M116.43,533.87c-4.31-22.26,2.28-48.68,20.4-63.3,14.71-11.86,35.03-15.21,53.64-14.82,16.42,.35,32.52,1.59,44.9-4.53,15.7-7.75,22.63-25.12,35.86-41.73,12.52-15.73,24.67-29.69,40.89-37.61,10.94-5.34,24-7.15,37.11-6.99,30.24,.37,48.32,22.32,72.94,18.16,24.42-4.22,37.34-17.81,42.05-30.06,5.33-13.86,3.09-40.37-19.47-54.81-11.86-7.6-24.47-16.64-37.28-25.59-15.74-11-26.15-29.7-24.1-47.12,1.66-14.09,10.04-27.33,12.9-42.87,2.31-12.56,1.55-24.83-1.75-35.61-3.79-12.35-10.89-23.46-20.9-32.26"/><path class="cls-25" d="M117.47,534.37c-3.88-22.98,2.35-50.01,20.79-65.21,14.71-12.13,35.24-15.71,54-14.93,16.35,.68,32.24,2.68,44.93-2.57,16.07-6.65,24.34-23.09,37.61-39.55s24.27-30.85,40.47-39.56c11.1-5.97,24.55-8.22,38.05-8.2,29.06,.04,47.11,20.14,71.07,16.15,23.48-4,36.61-16.74,41.66-28.91,5.63-13.59,3.41-38.96-17.35-53.44-11.4-7.96-23.6-17.28-36.23-26.21-15.15-10.71-25.45-28.36-24.21-45.13,1.03-13.94,8.61-27.29,11.51-42.64,2.39-12.63,2.17-24.97-.63-36-3.25-12.82-9.95-24.57-19.8-33.97"/><path class="cls-36" d="M118.51,534.88c-3.46-23.69,2.43-51.34,21.17-67.12,14.7-12.39,35.44-16.21,54.36-15.05,16.28,1,31.95,3.78,44.95-.62,16.44-5.55,26.05-21.07,39.36-37.37,13.06-16.01,23.86-32.02,40.06-41.51,11.25-6.59,25.09-9.27,38.99-9.4,27.88-.26,45.91,18.01,69.2,14.15,22.55-3.74,35.87-15.66,41.26-27.77,5.93-13.32,3.75-37.6-15.23-52.08-10.94-8.35-22.72-17.91-35.18-26.82-14.55-10.41-24.77-27.02-24.33-43.14,.38-13.8,7.18-27.26,10.12-42.4,2.47-12.71,2.79-25.11,.5-36.39-2.7-13.29-9.01-25.67-18.7-35.69"/><path class="cls-13" d="M119.55,535.38c-3.03-24.4,2.51-52.66,21.55-69.04,14.71-12.65,35.65-16.72,54.72-15.17,16.2,1.32,31.67,4.87,44.98,1.34,16.8-4.46,27.77-19.04,41.11-35.19,13.34-16.15,23.45-33.19,39.64-43.47,11.39-7.23,25.64-10.31,39.93-10.6,26.7-.55,44.7,15.83,67.33,12.15s35.13-14.59,40.86-26.62c6.23-13.06,4.12-36.29-13.11-50.71-10.47-8.76-21.85-18.54-34.12-27.44-13.96-10.11-24.12-25.69-24.44-41.14-.28-13.65,5.75-27.22,8.73-42.17,2.55-12.79,3.41-25.25,1.62-36.77-2.14-13.75-8.07-26.77-17.6-37.4"/><path class="cls-11" d="M120.59,535.88c-2.61-25.11,2.6-53.98,21.94-70.95,14.71-12.9,35.86-17.24,55.08-15.28,16.13,1.64,31.39,5.96,45,3.29,17.17-3.37,29.49-17.01,42.86-33.01,13.61-16.29,23.02-34.37,39.22-45.42,11.53-7.87,26.19-11.34,40.87-11.81,25.52-.81,43.49,13.65,65.46,10.14,20.68-3.3,34.38-13.53,40.47-25.47,6.52-12.79,4.53-35.03-10.99-49.34-9.97-9.19-20.98-19.17-33.07-28.05-13.36-9.81-23.49-24.35-24.56-39.15-.97-13.51,4.33-27.19,7.34-41.94,2.63-12.86,4.05-25.39,2.75-37.16-1.57-14.22-7.13-27.87-16.5-39.12"/><path class="cls-12" d="M121.64,536.39c-2.19-25.82,2.69-55.3,22.32-72.86,14.71-13.16,36.06-17.76,55.44-15.4,16.06,1.95,31.11,7.05,45.03,5.25,17.54-2.27,31.21-14.98,44.6-30.83s22.6-35.55,38.81-47.38c11.67-8.51,26.73-12.35,41.81-13.01,24.34-1.06,42.28,11.46,63.59,8.14,19.74-3.08,33.63-12.46,40.07-24.33,6.81-12.53,4.98-33.81-8.88-47.97-9.45-9.66-20.11-19.8-32.02-28.66-12.77-9.51-22.89-23.01-24.67-37.16-1.69-13.37,2.9-27.15,5.95-41.71,2.71-12.94,4.69-25.52,3.87-37.55-.99-14.69-6.19-28.98-15.4-40.83"/><path class="cls-39" d="M122.68,536.89c-1.76-26.53,2.78-56.62,22.71-74.77,14.72-13.41,36.27-18.28,55.79-15.52,15.99,2.26,30.82,8.14,45.06,7.2,17.9-1.18,32.93-12.95,46.35-28.65,14.16-16.57,22.16-36.74,38.39-49.33,11.8-9.15,27.28-13.35,42.75-14.21,23.16-1.29,41.06,9.28,61.73,6.13,18.8-2.87,32.87-11.4,39.67-23.18,7.09-12.28,5.48-32.63-6.76-46.6-8.89-10.16-19.24-20.42-30.97-29.28s-22.31-21.67-24.79-35.17,1.48-27.11,4.56-41.47c2.79-13.01,5.33-25.66,5-37.94-.41-15.15-5.25-30.08-14.3-42.55"/><path class="cls-15" d="M123.72,537.39c-1.34-27.24,2.87-57.93,23.09-76.69,14.73-13.66,36.48-18.81,56.15-15.63,15.93,2.57,30.54,9.21,45.08,9.16,18.27-.13,34.65-10.91,48.1-26.47,14.44-16.7,21.72-37.92,37.98-51.28,11.92-9.8,27.83-14.33,43.69-15.42,21.99-1.51,39.85,7.06,59.86,4.13,17.86-2.69,32.11-10.35,39.28-22.03s6.03-31.48-4.64-45.24c-8.29-10.68-18.38-21.04-29.91-29.89s-21.75-20.31-24.9-33.18,.06-27.08,3.17-41.24c2.88-13.09,5.98-25.79,6.13-38.33,.18-15.61-4.31-31.18-13.2-44.26"/><path class="cls-37" d="M124.76,537.9c-.92-27.95,2.96-59.24,23.47-78.6,14.74-13.91,36.69-19.34,56.51-15.75,15.86,2.87,30.26,10.3,45.11,11.11,18.64,.97,36.37-8.88,49.85-24.3,14.72-16.84,21.27-39.11,37.56-53.24,12.04-10.44,28.39-15.28,44.63-16.62,20.83-1.72,38.64,4.88,57.99,2.12,16.92-2.47,31.35-9.29,38.88-20.89,7.65-11.77,6.65-30.34-2.52-43.87-7.62-11.23-17.52-21.66-28.86-30.5s-21.22-18.93-25.02-31.18c-3.99-12.86-1.36-27.04,1.78-41.01,2.96-13.16,6.63-25.91,7.25-38.72,.78-16.06-3.37-32.29-12.1-45.98"/><path class="cls-38" d="M125.8,538.4c-.49-28.66,3.06-60.55,23.86-80.51,14.75-14.16,36.91-19.88,56.87-15.87,15.8,3.18,29.98,11.39,45.13,13.07,19.01,2.06,38.13-6.82,51.6-22.12,15.04-16.94,20.82-40.29,37.15-55.19,12.16-11.09,28.95-16.21,45.57-17.82,19.66-1.91,37.43,2.7,56.12,.12,15.98-2.25,30.58-8.25,38.48-19.74,7.93-11.53,7.33-29.19-.41-42.5-6.87-11.81-16.66-22.28-27.81-31.12-10.43-8.27-20.69-17.52-25.13-29.19-4.81-12.65-2.76-27,.39-40.78,3.07-13.23,7.29-26.03,8.38-39.11,1.38-16.51-2.43-33.39-11.01-47.69"/><path class="cls-18" d="M126.85,538.91c-.07-29.37,3.19-61.83,24.24-82.43,14.79-14.39,37.13-20.42,57.23-15.98,15.73,3.47,29.71,12.49,45.16,15.02,19.39,3.16,39.84-4.79,53.35-19.94,15.31-17.08,20.36-41.48,36.73-57.14,12.27-11.74,29.51-17.1,46.51-19.03,18.51-2.09,36.22,.51,54.25-1.89,15.04-2.03,29.81-7.2,38.08-18.59s8.09-28.02,1.71-41.13c-6.02-12.39-15.8-22.89-26.76-31.73-9.85-7.95-20.18-16.09-25.25-27.2-5.65-12.41-4.19-26.96-1-40.54,3.15-13.31,7.94-26.15,9.5-39.5,1.98-16.95-1.49-34.49-9.91-49.41"/><path class="cls-30" d="M127.89,539.41c.35-30.08,3.27-63.16,24.62-84.34,14.78-14.66,37.35-20.97,57.59-16.1,15.67,3.77,29.43,13.58,45.18,16.98,19.76,4.25,41.55-2.77,55.1-17.76,15.58-17.23,19.9-42.67,36.31-59.1,12.38-12.39,30.09-17.96,47.45-20.23,17.37-2.27,35.01-1.67,52.38-3.89,14.1-1.81,29.04-6.16,37.69-17.45,8.47-11.05,8.91-26.8,3.83-39.76-5.08-12.96-14.95-23.5-25.7-32.34-9.27-7.63-19.68-14.63-25.36-25.21-6.52-12.13-5.62-26.93-2.39-40.31,3.23-13.39,8.6-26.27,10.63-39.89,2.59-17.4-.55-35.6-8.81-51.12"/></g><g class="cls-42"><path class="cls-7" d="M848.76,400.54c-13.45,14.31-36.64,16.76-54.51,8.61-17.87-8.15-30.58-25.19-37.1-43.71-6.52-18.52-7.5-38.53-6.98-58.17,.49-18.9,2.18-38.56-5.01-56.04-11.07-26.91-41.63-42.05-70.73-42.06-29.1-.01-56.78,12.49-81.62,27.64-17.57,10.71-37.88,23.4-57.21,16.35-17.64-6.43-25.98-27.2-26.19-45.97-.34-31.25,17.21-62.07,44.25-77.73,12.29-7.12,26.07-11.17,39.41-16.04,13.34-4.87,26.71-10.84,36.75-20.88,10.04-10.05,16.22-24.98,12.55-38.7"/><path class="cls-6" d="M850.57,396.54c-14.16,14.63-38.09,17.23-56.7,8.94-18.61-8.29-32.01-25.84-38.78-45.07-6.37-18.09-7.4-37.62-7.03-56.78,.36-18.46,1.84-37.63-5.2-54.69-5.46-13.23-15.67-23.59-28.12-30.65-12.26-6.96-26.66-10.7-40.74-10.83-26.21-.25-51.36,9.86-74.26,22.77-1.87,1.06-3.73,2.13-5.57,3.22-17.23,10.2-37.08,22.29-55.99,15.54-17.26-6.15-25.5-26.01-26.28-44.04-.99-22.73,7.35-45.79,23.13-62.75,5.2-5.59,11.19-10.48,17.78-14.44,6.81-4.1,14.12-7.23,21.56-10.08,5.75-2.2,11.58-4.24,17.32-6.44,8.84-3.38,17.66-7.26,25.43-12.53,3.81-2.59,7.37-5.51,10.56-8.85,9.68-10.17,15.43-25.04,11.56-38.59"/><path class="cls-23" d="M852.37,392.55c-14.87,14.95-39.55,17.71-58.9,9.27s-33.45-26.49-40.46-46.42c-6.21-17.65-7.3-36.7-7.07-55.4,.22-18.01,1.5-36.7-5.4-53.33-5.35-12.9-15.25-23.05-27.34-30.02-11.92-6.87-25.92-10.61-39.65-10.88-25.53-.48-50.14,9.04-72.57,21.29-1.83,1-3.66,2.02-5.46,3.06-16.9,9.68-36.28,21.18-54.77,14.74-16.88-5.88-25.01-24.83-26.38-42.1-1.74-21.98,5.09-44.83,20.24-61.99,5-5.66,10.84-10.61,17.32-14.66,6.69-4.18,13.9-7.41,21.24-10.34,5.67-2.27,11.43-4.38,17.1-6.65,8.72-3.5,17.41-7.49,24.99-12.89,3.72-2.64,7.17-5.62,10.24-9,9.32-10.29,14.64-25.09,10.58-38.48"/><path class="cls-20" d="M854.17,388.55c-15.58,15.27-41,18.18-61.09,9.6s-34.89-27.14-42.14-47.77c-6.06-17.21-7.21-35.79-7.12-54.02,.08-17.57,1.15-35.77-5.59-51.98-5.23-12.58-14.83-22.51-26.57-29.4-11.58-6.79-25.18-10.53-38.55-10.93-24.85-.72-48.92,8.22-70.89,19.81-1.8,.95-3.58,1.91-5.35,2.89-16.56,9.16-35.49,20.06-53.55,13.93-16.5-5.6-24.54-23.66-26.48-40.17-2.49-21.24,2.83-43.87,17.36-61.23,4.79-5.73,10.5-10.75,16.86-14.88,6.56-4.26,13.68-7.58,20.93-10.6,5.6-2.34,11.29-4.52,16.88-6.87,8.61-3.62,17.15-7.73,24.55-13.24,3.63-2.7,6.97-5.73,9.91-9.15,8.96-10.4,13.85-25.15,9.59-38.37"/><path class="cls-16" d="M855.97,384.56c-16.29,15.59-42.45,18.66-63.29,9.93-20.84-8.73-36.33-27.79-43.82-49.13-5.9-16.78-7.11-34.88-7.16-52.64-.06-17.13,.81-34.84-5.78-50.62-5.12-12.25-14.4-21.98-25.8-28.77-11.24-6.7-24.44-10.45-37.46-10.98-24.17-.96-47.69,7.4-69.2,18.33-1.76,.89-3.51,1.8-5.24,2.73-16.22,8.64-34.69,18.95-52.33,13.12-16.12-5.33-24.08-22.49-26.57-38.23-3.25-20.52,.57-42.91,14.48-60.47,4.59-5.8,10.15-10.89,16.39-15.1,6.44-4.33,13.47-7.76,20.61-10.87,5.53-2.4,11.15-4.66,16.66-7.08,8.5-3.74,16.9-7.96,24.11-13.59,3.54-2.76,6.76-5.84,9.59-9.3,8.6-10.52,13.06-25.21,8.61-38.26"/><path class="cls-10" d="M857.77,380.56c-16.99,15.91-43.9,19.13-65.48,10.26-21.58-8.88-37.77-28.44-45.5-50.48-5.75-16.34-7.01-33.96-7.21-51.25-.19-16.69,.47-33.91-5.97-49.27-5-11.92-13.98-21.44-25.03-28.14-10.9-6.62-23.71-10.37-36.36-11.03-23.48-1.2-46.47,6.58-67.52,16.85-1.72,.84-3.44,1.7-5.14,2.56-15.89,8.13-33.89,17.84-51.11,12.31-15.74-5.05-23.63-21.34-26.67-36.3-4.02-19.82-1.68-41.95,11.59-59.71,4.38-5.87,9.81-11.03,15.93-15.33,6.31-4.41,13.25-7.94,20.29-11.13,5.45-2.47,11-4.8,16.44-7.29,8.38-3.85,16.65-8.19,23.67-13.94,3.44-2.81,6.56-5.95,9.27-9.45,8.23-10.64,12.27-25.26,7.62-38.15"/><path class="cls-27" d="M859.57,376.57c-17.7,16.22-45.36,19.61-67.68,10.59-22.32-9.02-39.21-29.08-47.18-51.83-5.59-15.9-6.92-33.05-7.25-49.87-.33-16.24,.13-32.98-6.17-47.91-4.89-11.6-13.56-20.91-24.26-27.52-10.56-6.53-22.97-10.29-35.27-11.08-22.8-1.43-45.25,5.75-65.84,15.36-1.69,.79-3.36,1.59-5.03,2.4-15.55,7.61-33.1,16.73-49.89,11.5-15.35-4.77-23.2-20.2-26.76-34.36-4.81-19.14-3.94-40.99,8.71-58.95,4.17-5.94,9.46-11.16,15.47-15.55,6.19-4.49,13.03-8.11,19.98-11.39,5.38-2.54,10.86-4.94,16.22-7.51,8.27-3.97,16.39-8.42,23.23-14.29,3.35-2.87,6.36-6.06,8.95-9.6,7.87-10.76,11.48-25.32,6.64-38.04"/><path class="cls-37" d="M861.37,372.58c-18.41,16.54-46.81,20.09-69.87,10.92-23.06-9.17-40.65-29.73-48.86-53.19-5.43-15.47-6.82-32.13-7.3-48.49-.47-15.8-.22-32.05-6.36-46.56-4.77-11.27-13.13-20.37-23.49-26.89-10.22-6.45-22.23-10.21-34.17-11.13-22.12-1.67-44.02,4.93-64.15,13.88-1.65,.73-3.29,1.48-4.92,2.24-15.22,7.09-32.3,15.62-48.67,10.7-14.97-4.5-22.79-19.07-26.86-32.43-5.62-18.47-6.2-40.03,5.83-58.2,3.97-6.01,9.11-11.3,15.01-15.77,6.07-4.57,12.81-8.29,19.66-11.66,5.3-2.61,10.71-5.08,16-7.72,8.16-4.09,16.14-8.66,22.79-14.65,3.26-2.93,6.16-6.17,8.63-9.75,7.51-10.88,10.69-25.38,5.65-37.92"/><path class="cls-8" d="M863.17,368.58c-19.12,16.86-48.26,20.56-72.07,11.25s-42.08-30.38-50.54-54.54c-5.28-15.03-6.73-31.22-7.34-47.11-.61-15.36-.56-31.12-6.55-45.21-4.66-10.95-12.71-19.83-22.71-26.27-9.88-6.36-21.49-10.12-33.08-11.18-21.44-1.91-42.8,4.11-62.47,12.4-1.61,.68-3.22,1.37-4.81,2.07-14.88,6.57-31.5,14.51-47.45,9.89-14.59-4.22-22.4-17.94-26.95-30.49-6.46-17.81-8.46-39.06,2.94-57.44,3.76-6.08,8.77-11.44,14.55-15.99,5.94-4.65,12.6-8.47,19.35-11.92,5.23-2.68,10.57-5.22,15.78-7.94,8.04-4.2,15.89-8.89,22.35-15,3.16-2.98,5.96-6.28,8.31-9.89,7.15-11,9.9-25.43,4.67-37.81"/><path class="cls-26" d="M864.98,364.59c-19.83,17.18-49.72,21.04-74.26,11.58-24.55-9.46-43.52-31.03-52.22-55.89-5.12-14.59-6.63-30.3-7.39-45.72-.74-14.91-.9-30.19-6.74-43.85-4.54-10.62-12.28-19.3-21.94-25.64-9.54-6.27-20.75-10.04-31.98-11.23-20.75-2.15-41.58,3.29-60.78,10.92-1.58,.62-3.14,1.26-4.7,1.91-14.54,6.06-30.7,13.4-46.23,9.08-14.21-3.95-22.04-16.81-27.05-28.56-7.32-17.17-10.71-38.1,.06-56.68,3.56-6.15,8.42-11.57,14.09-16.21,5.82-4.73,12.38-8.64,19.03-12.18,5.15-2.74,10.43-5.36,15.56-8.15,7.93-4.32,15.64-9.12,21.91-15.35,3.07-3.04,5.76-6.39,7.99-10.04,6.79-11.12,9.11-25.49,3.68-37.7"/><path class="cls-11" d="M866.78,360.59c-20.54,17.5-51.17,21.51-76.46,11.91-25.29-9.6-44.96-31.68-53.9-57.25-4.97-14.16-6.53-29.39-7.43-44.34-.88-14.47-1.25-29.26-6.94-42.5-4.43-10.29-11.86-18.76-21.17-25.01-9.2-6.19-20.01-9.96-30.89-11.28-20.07-2.38-40.35,2.47-59.1,9.43-1.54,.57-3.07,1.15-4.59,1.74-14.21,5.54-29.91,12.29-45.01,8.27-13.83-3.67-21.7-15.68-27.14-26.62-8.22-16.52-12.97-37.14-2.82-55.92,3.35-6.22,8.08-11.71,13.63-16.43,5.69-4.81,12.16-8.82,18.72-12.45,5.08-2.81,10.28-5.5,15.34-8.36,7.82-4.44,15.38-9.36,21.47-15.7,2.98-3.1,5.55-6.5,7.67-10.19,6.43-11.23,8.32-25.54,2.7-37.59"/><path class="cls-13" d="M868.58,356.6c-21.25,17.82-52.62,21.99-78.65,12.24-26.03-9.75-46.4-32.33-55.58-58.6-4.81-13.72-6.44-28.47-7.47-42.96-1.02-14.03-1.59-28.34-7.13-41.14-4.31-9.97-11.44-18.23-20.4-24.39-8.86-6.1-19.27-9.88-29.79-11.33-19.39-2.62-39.13,1.65-57.42,7.95-1.5,.51-3,1.04-4.48,1.58-13.87,5.02-29.11,11.18-43.79,7.46-13.45-3.4-21.4-14.55-27.24-24.69-9.15-15.88-15.23-36.18-5.71-55.16,3.14-6.29,7.73-11.85,13.17-16.65,5.57-4.89,11.94-9,18.4-12.71,5.01-2.88,10.14-5.64,15.12-8.58,7.7-4.55,15.13-9.59,21.03-16.05,2.89-3.15,5.35-6.61,7.35-10.34,6.07-11.35,7.53-25.6,1.71-37.48"/><path class="cls-1" d="M870.38,352.6c-21.95,18.14-54.07,22.47-80.84,12.57-26.77-9.9-47.84-32.98-57.26-59.95-4.66-13.28-6.34-27.56-7.52-41.58-1.16-13.59-1.93-27.41-7.32-39.79-4.2-9.64-11.01-17.69-19.63-23.76-8.52-6.02-18.53-9.8-28.7-11.38-18.71-2.86-37.91,.83-55.73,6.47-1.46,.46-2.92,.93-4.37,1.41-13.53,4.51-28.31,10.07-42.57,6.65-13.06-3.12-21.12-13.4-27.34-22.75-10.12-15.22-17.49-35.22-8.59-54.4,2.94-6.36,7.39-11.99,12.71-16.87,5.44-4.97,11.73-9.17,18.09-12.97,4.93-2.95,9.99-5.78,14.9-8.79,7.59-4.67,14.88-9.82,20.59-16.41,2.79-3.21,5.15-6.72,7.03-10.49,5.71-11.47,6.74-25.66,.73-37.37"/><path class="cls-22" d="M872.18,348.61c-22.66,18.46-55.53,22.94-83.04,12.9-27.51-10.04-49.28-33.63-58.94-61.31-4.5-12.85-6.24-26.64-7.56-40.19-1.3-13.14-2.27-26.48-7.51-38.43-4.08-9.32-10.59-17.16-18.86-23.14-8.18-5.93-17.79-9.72-27.6-11.43-18.03-3.1-36.68,.01-54.05,4.99-1.43,.41-2.85,.82-4.26,1.25-13.2,3.99-27.51,8.96-41.35,5.85-12.68-2.85-20.87-12.25-27.43-20.82-11.13-14.53-19.74-34.26-11.47-53.64,2.73-6.42,7.04-12.12,12.25-17.09,5.32-5.05,11.51-9.35,17.77-13.24,4.86-3.02,9.85-5.92,14.68-9.01,7.48-4.79,14.62-10.05,20.15-16.76,2.7-3.27,4.95-6.83,6.71-10.64,5.35-11.59,5.94-25.71-.26-37.26"/><path class="cls-33" d="M873.98,344.61c-23.37,18.78-56.98,23.42-85.23,13.23-28.25-10.19-50.71-34.28-60.62-62.66-4.34-12.41-6.15-25.73-7.61-38.81-1.43-12.7-2.62-25.55-7.7-37.08-3.97-8.99-10.17-16.62-18.08-22.51-7.84-5.85-17.05-9.64-26.5-11.48-17.34-3.33-35.46-.81-52.37,3.51-1.39,.35-2.78,.72-4.16,1.09-12.86,3.47-26.72,7.85-40.13,5.04-12.3-2.57-20.63-11.07-27.53-18.88-12.19-13.81-22-33.3-14.36-52.89,2.53-6.49,6.7-12.26,11.79-17.31,5.2-5.13,11.29-9.53,17.46-13.5,4.78-3.08,9.71-6.06,14.46-9.22,7.36-4.91,14.37-10.29,19.71-17.11,2.61-3.32,4.75-6.94,6.38-10.79,4.98-11.71,5.15-25.77-1.24-37.14"/><path class="cls-35" d="M875.78,340.62c-24.08,19.1-58.43,23.89-87.43,13.56-29-10.33-52.15-34.93-62.3-64.01-4.19-11.97-6.05-24.81-7.65-37.43-1.57-12.26-2.96-24.62-7.9-35.73-3.85-8.66-9.74-16.08-17.31-21.88-7.5-5.76-16.32-9.55-25.41-11.53-16.66-3.57-34.24-1.63-50.68,2.02-1.35,.3-2.7,.61-4.05,.92-12.52,2.95-25.92,6.74-38.91,4.23-11.92-2.3-20.42-9.86-27.62-16.94-13.27-13.05-24.26-32.33-17.24-52.13,2.32-6.56,6.35-12.4,11.32-17.53,5.07-5.21,11.07-9.7,17.14-13.76,4.71-3.15,9.56-6.2,14.23-9.43,7.25-5.02,14.12-10.52,19.27-17.46,2.51-3.38,4.54-7.05,6.06-10.94,4.62-11.83,4.36-25.83-2.23-37.03"/><path class="cls-32" d="M877.58,336.62c-24.79,19.42-59.89,24.37-89.62,13.89-29.74-10.48-53.59-35.58-63.98-65.37-4.03-11.54-5.95-23.9-7.7-36.05-1.71-11.81-3.3-23.69-8.09-34.37-3.74-8.34-9.32-15.55-16.54-21.26-7.16-5.67-15.58-9.47-24.31-11.58-15.98-3.81-33.01-2.45-49,.54-1.32,.24-2.63,.5-3.94,.76-12.19,2.44-25.12,5.63-37.69,3.42-11.54-2.02-20.22-8.63-27.72-15.01-14.39-12.23-26.52-31.37-20.12-51.37,2.11-6.63,6.01-12.53,10.86-17.75,4.95-5.29,10.86-9.88,16.83-14.03,4.64-3.22,9.42-6.34,14.01-9.65,7.13-5.14,13.87-10.75,18.83-17.81,2.42-3.44,4.34-7.16,5.74-11.08,4.26-11.95,3.57-25.88-3.21-36.92"/><path class="cls-21" d="M879.39,332.63c-25.5,19.74-61.34,24.85-91.82,14.22-30.48-10.62-55.03-36.22-65.66-66.72-3.88-11.1-5.86-22.98-7.74-34.66-1.85-11.37-3.64-22.76-8.28-33.02-3.62-8.01-8.89-15.01-15.77-20.63-6.83-5.59-14.84-9.39-23.22-11.63-15.3-4.04-31.79-3.27-47.31-.94-1.28,.19-2.55,.39-3.83,.59-11.85,1.92-24.33,4.52-36.47,2.61-11.16-1.75-20.02-7.38-27.81-13.07-15.53-11.34-28.77-30.41-23.01-50.61,1.91-6.7,5.66-12.67,10.4-17.97,4.82-5.37,10.64-10.06,16.51-14.29,4.56-3.29,9.27-6.48,13.79-9.86,7.02-5.26,13.61-10.99,18.39-18.17,2.33-3.49,4.14-7.27,5.42-11.23,3.9-12.06,2.78-25.94-4.2-36.81"/><path class="cls-5" d="M881.19,328.63c-26.21,20.06-62.79,25.32-94.01,14.55-31.22-10.77-56.47-36.87-67.34-68.07-3.72-10.66-5.76-22.07-7.79-33.28-1.98-10.93-3.99-21.83-8.47-31.66-3.51-7.69-8.47-14.48-15-20.01-6.49-5.5-14.1-9.31-22.12-11.68-14.61-4.28-30.57-4.09-45.63-2.42-1.24,.14-2.48,.28-3.72,.43-11.52,1.4-23.53,3.41-35.25,1.8-10.77-1.47-19.81-6.09-27.91-11.14-16.67-10.39-31.03-29.45-25.89-49.85,1.7-6.77,5.32-12.81,9.94-18.19,4.7-5.45,10.42-10.23,16.2-14.55,4.49-3.35,9.13-6.62,13.57-10.07,6.91-5.37,13.36-11.22,17.95-18.52,2.24-3.55,3.94-7.38,5.1-11.38,3.54-12.18,1.99-25.99-5.18-36.7"/><path class="cls-4" d="M882.99,324.64c-26.91,20.37-64.24,25.8-96.21,14.88-31.96-10.92-57.91-37.52-69.02-69.43-3.57-10.23-5.66-21.15-7.83-31.9-2.12-10.49-4.33-20.9-8.67-30.31-3.39-7.36-8.05-13.94-14.23-19.38-6.15-5.42-13.36-9.23-21.03-11.73-13.93-4.52-29.34-4.91-43.95-3.91-1.2,.08-2.41,.17-3.61,.27-11.18,.89-22.73,2.3-34.03,1-10.39-1.2-19.6-4.78-28.01-9.2-17.81-9.37-33.29-28.49-28.77-49.09,1.5-6.84,4.97-12.95,9.48-18.41,4.58-5.53,10.2-10.41,15.88-14.81,4.41-3.42,8.99-6.76,13.35-10.29,6.79-5.49,13.11-11.45,17.51-18.87,2.14-3.61,3.74-7.49,4.78-11.53,3.18-12.3,1.2-26.05-6.17-36.59"/><path class="cls-2" d="M884.79,320.64c-27.62,20.69-65.7,26.27-98.4,15.21-32.7-11.06-59.34-38.17-70.7-70.78-3.41-9.79-5.57-20.24-7.87-30.52-2.26-10.04-4.67-19.97-8.86-28.95-3.28-7.03-7.62-13.4-13.45-18.75-5.81-5.33-12.62-9.15-19.93-11.78-13.25-4.76-28.12-5.73-42.26-5.39-1.17,.03-2.33,.06-3.5,.1-10.84,.37-21.93,1.19-32.81,.19-10.01-.92-19.36-3.44-28.1-7.27-18.93-8.29-35.55-27.53-31.66-48.33,1.29-6.91,4.62-13.08,9.02-18.63,4.45-5.61,9.98-10.59,15.57-15.08,4.34-3.49,8.84-6.9,13.13-10.5,6.68-5.61,12.85-11.68,17.07-19.22,2.05-3.66,3.53-7.61,4.46-11.68,2.82-12.42,.41-26.11-7.15-36.48"/><path class="cls-9" d="M886.59,316.65c-28.33,21.01-67.15,26.75-100.6,15.54-33.45-11.21-60.78-38.82-72.38-72.13-8.94-25.68-10.03-56.04-29.65-74.86-15.34-14.72-38.16-18.2-59.42-18.7-21.26-.5-43.16,1.15-63.18-6.02-20.02-7.16-37.8-26.57-34.54-47.58,2.18-14.04,12.9-25.09,23.81-34.19,10.91-9.1,22.93-17.72,29.54-30.29,7.93-15.06,6.3-34.65-4-48.19"/></g><g class="cls-42"><path class="cls-7" d="M341.88,101.84c5.85,10.85,2.71,25.14-5.69,34.17-8.4,9.02-21.07,13.21-33.39,13.42s-24.43-3.18-36.02-7.39c-11.16-4.05-22.53-8.95-34.37-8.14-18.22,1.25-33.3,16.45-39.08,33.77-5.78,17.32-3.83,36.29,.26,54.09,2.89,12.59,6.41,27.2-1.62,37.32-7.33,9.23-21.35,10.08-32.57,6.47-18.67-6-33.55-22.57-37.5-41.78-1.8-8.73-1.48-17.74-1.73-26.65-.25-8.91-1.15-18.05-5.14-26.03-3.99-7.97-11.66-14.62-20.56-15.15"/><path class="cls-6" d="M339.85,99.98c5.9,11.34,2.7,26.1-5.93,35.54-8.63,9.44-21.74,13.94-34.53,14.15-12.08,.2-23.97-3.07-35.35-7.09-10.97-3.88-22.14-8.55-33.73-7.69-4.46,.33-8.74,1.5-12.73,3.35-11.96,5.53-21.32,17.06-25.64,29.78-2.76,8.13-3.81,16.64-3.73,25.22,.08,9.29,1.48,18.67,3.41,27.74,2.63,12.34,5.83,26.58-2.04,36.51-7.22,9.1-20.94,10.14-32.01,6.78-6.59-2-12.72-5.34-18.05-9.72-9.59-7.87-16.52-19-19.1-31.15-1.83-8.61-1.62-17.49-2.02-26.24-.15-3.2-.38-6.43-.83-9.61-.77-5.51-2.17-10.89-4.76-15.77-4.09-7.7-11.72-14.05-20.49-14.45"/><path class="cls-23" d="M337.83,98.11c5.95,11.82,2.7,27.06-6.17,36.91-8.87,9.85-22.41,14.66-35.67,14.88-11.84,.2-23.5-2.96-34.68-6.8-10.78-3.7-21.75-8.15-33.1-7.25-4.37,.35-8.55,1.51-12.46,3.32-11.73,5.45-20.88,16.72-25.19,29.17-2.75,7.95-3.84,16.28-3.85,24.66-.02,9.1,1.22,18.28,2.96,27.16,2.36,12.08,5.25,25.97-2.47,35.7-7.12,8.97-20.54,10.21-31.44,7.09-6.5-1.85-12.58-5.05-17.87-9.33-9.51-7.68-16.31-18.68-18.93-30.65-1.85-8.48-1.76-17.23-2.31-25.82-.2-3.14-.5-6.3-1.01-9.41-.88-5.39-2.38-10.61-5.04-15.32-4.19-7.43-11.78-13.47-20.43-13.75"/><path class="cls-20" d="M335.81,96.25c6,12.31,2.69,28.02-6.41,38.28-9.1,10.26-23.09,15.39-36.81,15.61-11.59,.19-23.03-2.84-34.01-6.51-10.6-3.53-21.36-7.75-32.46-6.8-4.27,.36-8.37,1.51-12.2,3.3-11.49,5.36-20.45,16.38-24.74,28.55-2.74,7.77-3.88,15.92-3.98,24.11-.12,8.9,.97,17.88,2.51,26.58,2.1,11.83,4.67,25.35-2.89,34.89-7.01,8.84-20.13,10.28-30.88,7.4-6.42-1.71-12.44-4.76-17.69-8.94-9.42-7.49-16.11-18.37-18.75-30.14-1.88-8.35-1.91-16.98-2.6-25.4-.26-3.08-.61-6.18-1.18-9.21-.98-5.26-2.59-10.32-5.32-14.87-4.29-7.16-11.85-12.9-20.36-13.06"/><path class="cls-16" d="M333.79,94.38c6.05,12.79,2.69,28.98-6.65,39.66-9.33,10.67-23.76,16.12-37.95,16.34-11.35,.19-22.57-2.73-33.34-6.22-10.41-3.36-20.97-7.35-31.83-6.36-4.18,.38-8.19,1.52-11.94,3.28-11.26,5.28-20.01,16.04-24.29,27.93-2.73,7.59-3.92,15.55-4.11,23.56-.22,8.7,.71,17.49,2.06,25.99,1.83,11.57,4.09,24.74-3.32,34.08-6.9,8.71-19.72,10.35-30.32,7.72-6.34-1.56-12.3-4.47-17.51-8.55-9.34-7.3-15.9-18.05-18.58-29.63-1.91-8.22-2.05-16.73-2.89-24.99-.31-3.03-.73-6.05-1.36-9.02-1.09-5.14-2.81-10.04-5.59-14.41-4.39-6.89-11.91-12.32-20.3-12.36"/><path class="cls-10" d="M331.77,92.52c6.1,13.28,2.68,29.94-6.89,41.03-9.57,11.09-24.43,16.85-39.09,17.07-11.11,.18-22.1-2.62-32.67-5.93-10.22-3.19-20.58-6.95-31.2-5.91-4.08,.4-8,1.52-11.68,3.25-11.02,5.19-19.57,15.69-23.84,27.32-2.71,7.41-3.96,15.19-4.24,23.01-.32,8.5,.46,17.09,1.61,25.41,1.57,11.32,3.51,24.12-3.75,33.27-6.8,8.58-19.31,10.42-29.75,8.03-6.25-1.42-12.16-4.18-17.33-8.15-9.26-7.11-15.69-17.73-18.41-29.12-1.94-8.1-2.19-16.47-3.18-24.57-.37-2.97-.84-5.93-1.53-8.82-1.19-5.01-3.02-9.76-5.87-13.96-4.5-6.62-11.98-11.75-20.23-11.66"/><path class="cls-27" d="M329.75,90.65c6.15,13.76,2.68,30.9-7.13,42.4-9.8,11.5-25.1,17.57-40.23,17.81-10.86,.18-21.63-2.5-32-5.64-10.04-3.02-20.19-6.54-30.56-5.47-3.99,.41-7.82,1.53-11.42,3.23-10.79,5.11-19.14,15.35-23.39,26.7-2.7,7.23-3.99,14.83-4.37,22.46-.41,8.3,.2,16.7,1.16,24.83,1.3,11.07,2.92,23.51-4.17,32.47-6.69,8.45-18.9,10.49-29.19,8.34-6.17-1.27-12.02-3.89-17.15-7.76-9.18-6.92-15.49-17.41-18.23-28.61-1.96-7.97-2.34-16.22-3.48-24.16-.42-2.91-.95-5.81-1.71-8.63-1.3-4.88-3.23-9.48-6.15-13.51-4.6-6.35-12.04-11.18-20.17-10.96"/><path class="cls-37" d="M327.73,88.78c6.2,14.25,2.67,31.86-7.37,43.77-10.04,11.91-25.77,18.3-41.37,18.54-10.62,.17-21.17-2.39-31.33-5.35-9.85-2.85-19.8-6.14-29.93-5.02-3.89,.43-7.63,1.53-11.15,3.2-10.56,5.02-18.7,15.01-22.94,26.09-2.69,7.05-4.03,14.47-4.5,21.91-.51,8.1-.05,16.3,.72,24.25,1.04,10.81,2.34,22.89-4.6,31.66-6.58,8.32-18.5,10.56-28.62,8.65-6.09-1.12-11.88-3.6-16.98-7.37-9.09-6.73-15.28-17.1-18.06-28.1-1.99-7.84-2.48-15.97-3.77-23.74-.48-2.85-1.07-5.68-1.88-8.43-1.4-4.76-3.45-9.2-6.42-13.06-4.7-6.08-12.11-10.6-20.1-10.26"/><path class="cls-8" d="M325.71,86.92c6.25,14.73,2.67,32.82-7.6,45.15-10.27,12.33-26.45,19.03-42.51,19.27-10.37,.16-20.7-2.28-30.66-5.06-9.66-2.68-19.41-5.74-29.29-4.58-3.8,.45-7.45,1.54-10.89,3.18-10.32,4.94-18.26,14.66-22.49,25.47-2.68,6.87-4.07,14.1-4.62,21.36-.61,7.9-.3,15.9,.27,23.66,.77,10.56,1.76,22.28-5.02,30.85-6.47,8.18-18.08,10.61-28.06,8.96-6-.99-11.74-3.31-16.8-6.98-9.01-6.55-15.07-16.78-17.89-27.59-2.02-7.71-2.62-15.71-4.06-23.32-.53-2.79-1.18-5.56-2.06-8.23-1.51-4.63-3.66-8.92-6.7-12.6-4.8-5.81-12.17-10.03-20.04-9.56"/><path class="cls-26" d="M323.68,85.05c6.3,15.22,2.66,33.78-7.84,46.52s-27.12,19.76-43.65,20c-10.13,.16-20.23-2.16-29.99-4.77-9.48-2.51-19.03-5.34-28.66-4.13-3.7,.46-7.27,1.54-10.63,3.16-10.09,4.85-17.83,14.32-22.04,24.86-2.67,6.69-4.11,13.74-4.75,20.81-.71,7.7-.56,15.51-.18,23.08,.51,10.31,1.18,21.66-5.45,30.04-6.37,8.05-17.68,10.68-27.49,9.27-5.92-.85-11.6-3.02-16.62-6.59-8.93-6.36-14.86-16.46-17.71-27.08-2.05-7.59-2.76-15.46-4.35-22.91-.59-2.73-1.3-5.44-2.23-8.04-1.61-4.5-3.87-8.64-6.98-12.15-4.9-5.54-12.23-9.46-19.97-8.86"/><path class="cls-11" d="M321.66,83.19c6.35,15.7,2.66,34.74-8.08,47.89s-27.79,20.49-44.79,20.73c-9.89,.15-19.76-2.05-29.32-4.48-9.29-2.34-18.64-4.94-28.02-3.68-3.61,.48-7.08,1.55-10.37,3.13-9.86,4.77-17.39,13.98-21.59,24.24-2.65,6.51-4.14,13.38-4.88,20.26-.81,7.5-.81,15.11-.63,22.5,.24,10.05,.6,21.05-5.87,29.23-6.26,7.92-17.27,10.75-26.93,9.58-5.83-.7-11.46-2.73-16.44-6.19-8.84-6.17-14.66-16.15-17.54-26.57-2.07-7.46-2.91-15.21-4.64-22.49-.64-2.68-1.41-5.31-2.41-7.84-1.72-4.38-4.08-8.35-7.25-11.7-5-5.27-12.3-8.88-19.91-8.16"/><path class="cls-13" d="M319.64,81.32c6.4,16.19,2.65,35.7-8.32,49.26s-28.46,21.21-45.93,21.47c-9.64,.15-19.3-1.94-28.65-4.19-9.1-2.17-18.25-4.54-27.39-3.24-3.51,.5-6.9,1.55-10.1,3.11-9.62,4.68-16.95,13.63-21.14,23.63-2.64,6.33-4.18,13.01-5.01,19.71-.91,7.3-1.07,14.72-1.08,21.92-.02,9.8,.02,20.43-6.3,28.42-6.15,7.79-16.86,10.81-26.37,9.89-5.75-.56-11.32-2.44-16.26-5.8-8.76-5.98-14.45-15.83-17.37-26.06-2.1-7.33-3.05-14.95-4.93-22.08-.7-2.62-1.52-5.19-2.58-7.65-1.82-4.25-4.3-8.07-7.53-11.25-5.1-5-12.36-8.31-19.84-7.46"/><path class="cls-1" d="M317.62,79.46c6.44,16.67,2.65,36.66-8.56,50.64-11.21,13.98-29.13,21.94-47.07,22.2-9.4,.14-18.83-1.83-27.97-3.9-8.92-2-17.86-4.14-26.76-2.79-3.42,.52-6.72,1.56-9.84,3.08-9.39,4.6-16.52,13.29-20.69,23.01-2.63,6.15-4.22,12.65-5.14,19.16-1.01,7.1-1.32,14.32-1.53,21.33-.28,9.55-.57,19.82-6.72,27.61-6.05,7.66-16.45,10.88-25.8,10.21-5.67-.41-11.18-2.15-16.08-5.41-8.68-5.79-14.24-15.51-17.19-25.55-2.13-7.21-3.19-14.7-5.22-21.66-.75-2.56-1.64-5.06-2.76-7.45-1.92-4.13-4.51-7.79-7.81-10.79-5.2-4.73-12.43-7.74-19.78-6.76"/><path class="cls-22" d="M315.6,77.59c6.49,17.16,2.64,37.62-8.8,52.01s-29.81,22.67-48.21,22.93c-9.16,.14-18.36-1.71-27.3-3.61-8.73-1.83-17.47-3.74-26.12-2.35-3.32,.53-6.53,1.56-9.58,3.06-9.15,4.51-16.08,12.95-20.24,22.39-2.62,5.96-4.26,12.29-5.26,18.61-1.11,6.9-1.58,13.93-1.98,20.75-.55,9.29-1.15,19.2-7.15,26.81-5.94,7.53-16.05,10.95-25.24,10.52-5.58-.27-11.04-1.86-15.9-5.02-8.59-5.6-14.04-15.2-17.02-25.04-2.16-7.08-3.34-14.45-5.51-21.24-.81-2.5-1.75-4.94-2.93-7.26-2.03-4-4.72-7.51-8.08-10.34-5.3-4.46-12.49-7.16-19.71-6.06"/><path class="cls-33" d="M313.58,75.73c6.54,17.64,2.64,38.58-9.04,53.38-11.67,14.8-30.48,23.4-49.34,23.66-8.91,.13-17.9-1.6-26.63-3.32-8.54-1.66-17.08-3.34-25.49-1.9-3.23,.55-6.35,1.56-9.32,3.04-8.92,4.43-15.64,12.6-19.79,21.78-2.61,5.78-4.29,11.92-5.39,18.06-1.21,6.71-1.83,13.53-2.43,20.17-.81,9.04-1.73,18.59-7.57,26-5.83,7.4-15.64,11.02-24.67,10.83-5.5-.12-10.9-1.57-15.72-4.63-8.51-5.41-13.83-14.88-16.85-24.53-2.18-6.95-3.48-14.19-5.81-20.83-.86-2.44-1.86-4.82-3.1-7.06-2.13-3.87-4.94-7.23-8.36-9.89-5.4-4.19-12.55-6.59-19.65-5.36"/><path class="cls-35" d="M311.56,73.86c6.59,18.13,2.63,39.54-9.28,54.75-11.91,15.22-31.15,24.12-50.48,24.39-8.67,.13-17.43-1.49-25.96-3.03-8.36-1.49-16.69-2.93-24.85-1.46-3.13,.57-6.16,1.57-9.05,3.01-8.69,4.34-15.2,12.26-19.34,21.16-2.59,5.6-4.33,11.56-5.52,17.5-1.31,6.51-2.09,13.14-2.88,19.59-1.08,8.78-2.31,17.97-8,25.19-5.73,7.27-15.23,11.1-24.11,11.14-5.42,.03-10.76-1.28-15.54-4.23-8.43-5.22-13.62-14.56-16.67-24.02-2.21-6.82-3.62-13.94-6.1-20.41-.92-2.38-1.98-4.69-3.28-6.86-2.24-3.75-5.15-6.95-8.64-9.43-5.51-3.92-12.62-6.02-19.58-4.66"/><path class="cls-32" d="M309.53,71.99c6.64,18.61,2.63,40.5-9.52,56.13-12.14,15.63-31.82,24.85-51.62,25.13-8.42,.12-16.96-1.37-25.29-2.74-8.17-1.32-16.3-2.53-24.22-1.01-3.04,.58-5.98,1.57-8.79,2.99-8.45,4.26-14.77,11.92-18.89,20.55-2.58,5.42-4.37,11.2-5.65,16.95-1.41,6.31-2.34,12.74-3.32,19-1.34,8.53-2.89,17.35-8.43,24.38-5.62,7.14-14.83,11.17-23.54,11.45-5.33,.17-10.62-.99-15.36-3.84-8.34-5.03-13.42-14.25-16.5-23.51-2.24-6.7-3.77-13.69-6.39-20-.97-2.33-2.09-4.57-3.45-6.67-2.34-3.62-5.36-6.67-8.92-8.98-5.61-3.65-12.68-5.44-19.52-3.96"/><path class="cls-21" d="M307.51,70.13c6.69,19.1,2.62,41.46-9.76,57.5-12.38,16.04-32.49,25.58-52.76,25.86-8.18,.12-16.5-1.26-24.62-2.45-7.98-1.15-15.91-2.13-23.58-.57-2.94,.6-5.8,1.58-8.53,2.97-8.22,4.17-14.33,11.58-18.44,19.93-2.57,5.24-4.41,10.84-5.78,16.4-1.51,6.11-2.6,12.35-3.77,18.42-1.61,8.28-3.47,16.74-8.85,23.57-5.51,7.01-14.42,11.26-22.98,11.76-5.25,.33-10.48-.7-15.18-3.45-8.26-4.84-13.21-13.93-16.33-23-2.27-6.57-3.91-13.43-6.68-19.58-1.03-2.27-2.21-4.45-3.63-6.47-2.45-3.49-5.57-6.39-9.19-8.53-5.71-3.38-12.75-4.87-19.45-3.27"/><path class="cls-5" d="M305.49,68.26c6.74,19.59,2.62,42.42-9.99,58.87-12.61,16.45-33.17,26.31-53.9,26.59-7.94,.11-16.03-1.15-23.95-2.16-7.79-.98-15.52-1.73-22.95-.12-2.85,.62-5.61,1.58-8.27,2.94-7.98,4.09-13.89,11.23-17.99,19.32-2.56,5.06-4.45,10.47-5.91,15.85-1.61,5.91-2.85,11.95-4.22,17.84-1.87,8.02-4.05,16.12-9.28,22.76-5.41,6.88-14.01,11.33-22.42,12.07-5.17,.48-10.34-.41-15-3.06-8.18-4.65-13-13.61-16.15-22.49-2.29-6.44-4.05-13.18-6.97-19.16-1.08-2.21-2.32-4.32-3.8-6.28-2.55-3.37-5.79-6.1-9.47-8.08-5.81-3.11-12.81-4.3-19.39-2.57"/><path class="cls-4" d="M303.47,66.4c6.79,20.07,2.61,43.38-10.23,60.24-12.84,16.87-33.84,27.03-55.04,27.32-7.69,.11-15.56-1.03-23.28-1.86-7.61-.81-15.14-1.33-22.32,.32-2.75,.63-5.43,1.59-8,2.92-7.75,4-13.46,10.89-17.54,18.7-2.54,4.88-4.48,10.11-6.03,15.3-1.71,5.71-3.11,11.56-4.67,17.26-2.14,7.77-4.64,15.51-9.7,21.95-5.3,6.75-13.6,11.39-21.85,12.39-5.08,.62-10.2-.12-14.82-2.67-8.09-4.46-12.79-13.3-15.98-21.98-2.32-6.31-4.19-12.93-7.26-18.75-1.14-2.15-2.43-4.2-3.98-6.08-2.66-3.24-6-5.82-9.75-7.62-5.91-2.84-12.88-3.72-19.32-1.87"/><path class="cls-2" d="M301.45,64.53c6.84,20.56,2.61,44.34-10.47,61.62-13.08,17.28-34.51,27.76-56.18,28.05-7.45,.1-15.09-.92-22.61-1.57-7.42-.64-14.75-.93-21.68,.77-2.66,.65-5.25,1.59-7.74,2.89-7.52,3.92-13.02,10.55-17.09,18.09-2.53,4.7-4.52,9.75-6.16,14.75-1.81,5.51-3.36,11.16-5.12,16.67-2.4,7.52-5.22,14.89-10.13,21.15-5.19,6.61-13.19,11.46-21.29,12.7-5,.77-10.07,.17-14.64-2.27-8.01-4.27-12.59-12.98-15.81-21.47-2.35-6.19-4.34-12.67-7.55-18.33-1.19-2.09-2.55-4.07-4.15-5.88-2.76-3.12-6.21-5.54-10.02-7.17-6.01-2.57-12.94-3.15-19.26-1.17"/><path class="cls-9" d="M299.43,62.67c6.89,21.04,2.6,45.3-10.71,62.99-13.31,17.69-35.18,28.49-57.32,28.78-17.07,.23-35.36-5.15-50.46,2.8-11.81,6.21-18.41,19.11-22.93,31.67-4.52,12.56-7.88,25.93-16.12,36.43s-23.32,17.24-35.19,11.13c-7.93-4.08-12.38-12.66-15.63-20.97s-6-17.17-12.17-23.6c-7.39-7.71-19.38-10.63-29.49-7.18"/></g></g></g></g></g></svg>