<?xml version="1.0" encoding="UTF-8"?><svg id="Layer_1" xmlns="http://www.w3.org/2000/svg" xmlns:xlink="http://www.w3.org/1999/xlink" viewBox="0 0 9421.39 3953.69"><defs><style>.cls-1{fill:url(#linear-gradient-2);}.cls-2{fill:url(#linear-gradient);opacity:.8;}.cls-3{clip-path:url(#clippath-1);}.cls-4{fill:#e0e0e0;fill-rule:evenodd;}.cls-5{clip-path:url(#clippath);}.cls-6{clip-rule:evenodd;fill:none;}</style><clipPath id="clippath"><path class="cls-6" d="M2599.62,0c218.94,542.43,826.83,1588.04,2082.33,848.04,868.2-511.71,1504.71-611.61,1928.98-510.59,664.43,158.21,687.05,906.97,1139.93,1475.29,455.32,571.4,1136.13,1063.56,1670.54,332.07V0H2599.62Z"/></clipPath><linearGradient id="linear-gradient" x1="5994.04" y1="-1117.68" x2="6018.13" y2="2622.55" gradientUnits="userSpaceOnUse"><stop offset="0" stop-color="#ebebeb"/><stop offset="1" stop-color="#fcfcfc"/></linearGradient><clipPath id="clippath-1"><path class="cls-6" d="M468,3953.69H7883.95c-275.22-499.96-858.04-1063.93-2060.55-816.73C2220.14,3877.66,1688.96,836.61,468,2373.43v1580.26Z"/></clipPath><linearGradient id="linear-gradient-2" x1="4203.77" y1="-224.61" x2="4155.59" y2="4316.77" xlink:href="#linear-gradient"/></defs><g class="cls-5"><rect class="cls-2" x="2599.62" width="6821.77" height="2876.29"/></g><g class="cls-3"><rect class="cls-1" x="468" y="836.61" width="7415.95" height="3117.07"/></g><path class="cls-4" d="M0,1790.26c7.4-27.93,15.46-56.4,24.19-85.41h6.67c-11.43,37.98-21.69,75-30.86,111.12v-25.71Zm441.29-85.41c-180.88,635.94-32.19,999.7,305.94,1194.29,289.13,166.39,717.07,209.19,1195.84,192.89,16.04-1.55,32.07-3.1,48.16-4.61,23.41-2.28,46.86-4.54,70.38-6.77,23.41-2.28,46.86-4.54,70.38-6.76,23.41-2.28,46.86-4.54,70.38-6.77,23.41-2.28,46.86-4.54,70.38-6.77,23.41-2.28,46.86-4.54,70.38-6.76,23.41-2.28,46.86-4.54,70.38-6.77,23.41-2.28,46.86-4.54,70.38-6.76,23.41-2.28,46.86-4.54,70.38-6.77,23.41-2.28,46.86-4.54,70.38-6.77,23.41-2.28,46.86-4.54,70.38-6.76,23.41-2.28,46.86-4.54,70.38-6.77,23.41-2.28,46.86-4.54,70.38-6.76,23.41-2.28,46.86-4.54,70.38-6.77,23.41-2.28,46.86-4.54,70.38-6.77,23.41-2.28,46.86-4.54,70.38-6.76,23.41-2.28,46.87-4.54,70.38-6.77,23.41-2.28,46.87-4.54,70.38-6.77,23.41-2.28,46.86-4.54,70.38-6.76,23.41-2.28,46.86-4.54,70.38-6.77,23.41-2.28,46.87-4.54,70.38-6.76,23.41-2.28,46.87-4.54,70.38-6.77,23.41-2.28,46.86-4.54,70.38-6.77,23.41-2.29,46.87-4.54,70.38-6.76,23.41-2.28,46.86-4.54,70.38-6.77,23.4-2.28,46.86-4.54,70.38-6.76,1423.32-138.72,3061.58-179.37,3618.35,746.1,64.09,106.53,116.46,202.82,162.46,289.31h-6.89c-45.87-86.23-98.08-182.16-161.83-288.12-446.24-741.75-1590.56-860.96-2760.42-807.25,1147.4-45.77,2257.59,83.59,2696.29,812.82,62.42,103.76,113.74,197.81,158.87,282.55h-6.89c-45-84.48-96.14-178.16-158.22-281.35-446.25-741.75-1590.56-860.96-2760.42-807.25,1147.4-45.78,2257.59,83.59,2696.29,812.82,60.76,101.01,111,192.81,155.26,275.78h-6.89c-44.12-82.71-94.18-174.14-154.62-274.59-446.24-741.75-1590.55-860.96-2760.42-807.25,1147.4-45.78,2257.59,83.59,2696.29,812.82,59.12,98.27,108.28,187.82,151.65,269.02h-6.9c-43.23-80.92-92.22-170.1-151-267.82-446.25-741.75-1590.56-860.97-2760.42-807.25,1147.4-45.77,2257.59,83.59,2696.29,812.82,57.48,95.55,105.54,182.85,148.03,262.25h-6.89c-42.36-79.12-90.23-166.05-147.39-261.06-446.25-741.75-1590.56-860.96-2760.42-807.25,1147.4-45.78,2257.59,83.59,2696.29,812.82,55.85,92.84,102.81,177.91,144.41,255.49h-6.9c-41.46-77.3-88.23-161.99-143.76-254.29-446.25-741.75-1590.55-860.96-2760.42-807.25,1147.4-45.78,2257.59,83.59,2696.29,812.82,54.23,90.15,100.08,172.97,140.77,248.72h-6.9c-40.55-75.47-86.22-157.91-140.13-247.53-446.24-741.75-1590.55-860.96-2760.42-807.25,1147.41-45.78,2257.59,83.59,2696.29,812.82,52.62,87.47,97.36,168.04,137.14,241.96h-6.9c-39.64-73.62-84.18-153.81-136.49-240.76-446.25-741.75-1590.55-860.96-2760.42-807.25,1147.41-45.77,2257.59,83.59,2696.29,812.82,51.02,84.81,94.63,163.13,133.5,235.19h-6.91c-38.72-71.77-82.13-149.7-132.84-234-446.24-741.75-1590.55-860.97-2760.42-807.25,1147.4-45.77,2257.59,83.59,2696.29,812.82,49.43,82.16,91.89,158.24,129.84,228.42h-6.9c-37.8-69.89-80.07-145.58-129.19-227.23-446.25-741.75-1590.55-860.97-2760.42-807.25,1147.4-45.78,2257.59,83.59,2696.29,812.82,47.84,79.53,89.16,153.35,126.18,221.66h-6.9c-36.87-68-77.98-141.44-125.52-220.46-446.24-741.75-1590.55-860.96-2760.42-807.25,1147.4-45.78,2257.58,83.59,2696.29,812.82,46.27,76.91,86.44,148.49,122.51,214.89h-6.9c-35.92-66.1-75.89-137.29-121.85-213.7-446.25-741.75-1590.54-860.97-2760.42-807.25,1147.4-45.77,2257.59,83.59,2696.29,812.82,44.7,74.31,83.72,143.63,118.84,208.13h-6.92c-34.97-64.19-73.76-133.13-118.17-206.93-446.24-741.75-1590.56-860.96-2760.42-807.25,1147.41-45.77,2257.59,83.59,2696.29,812.82,43.14,71.72,80.99,138.79,115.14,201.36h-6.91c-34-62.26-71.64-128.95-114.48-200.17-446.25-741.75-1590.57-860.96-2760.42-807.25,1147.39-45.78,2257.59,83.59,2696.29,812.82,41.59,69.14,78.26,133.97,111.44,194.6h-6.91c-33.03-60.32-69.48-124.75-110.78-193.4-446.24-741.75-1590.56-860.96-2760.42-807.25,1147.4-45.77,2257.58,83.59,2696.29,812.82,40.05,66.57,75.53,129.15,107.74,187.83h-6.91c-32.04-58.37-67.32-120.55-107.08-186.64-446.24-741.75-1590.56-860.97-2760.42-807.25,1147.39-45.77,2257.59,83.59,2696.29,812.82,38.51,64.02,72.8,124.34,104.02,181.07h-6.91c-31.05-56.4-65.13-116.33-103.36-179.87-446.24-741.75-1590.56-860.96-2760.42-807.25,1147.4-45.77,2257.58,83.59,2696.29,812.82,36.99,61.48,70.08,119.55,100.29,174.3h-6.92c-30.04-54.42-62.92-112.1-99.62-173.11-446.24-741.75-1590.56-860.97-2760.42-807.25,1147.4-45.78,2257.59,83.59,2696.29,812.82,35.46,58.96,67.35,114.77,96.55,167.53h-6.91c-29.03-52.43-60.7-107.86-95.89-166.34-446.24-741.75-1590.56-860.97-2760.42-807.25,1147.4-45.78,2257.59,83.59,2696.29,812.82,33.95,56.44,64.62,110.01,92.8,160.77h-6.92c-28-50.42-58.46-103.6-92.13-159.58-446.24-741.75-1590.56-860.96-2760.42-807.25,1147.4-45.77,2257.59,83.59,2696.29,812.82,32.45,53.94,61.9,105.26,89.04,154h-6.92c-26.97-48.41-56.19-99.33-88.37-152.81-446.24-741.75-1590.56-860.96-2760.42-807.25,1147.39-45.78,2257.58,83.59,2696.29,812.82,30.95,51.45,59.17,100.51,85.26,147.24h-6.92c-25.92-46.38-53.92-95.05-84.59-146.04-446.24-741.75-1590.56-860.97-2760.42-807.25,1147.4-45.78,2257.59,83.59,2696.29,812.82,29.46,48.97,56.45,95.78,81.48,140.47h-6.92c-24.85-44.34-51.62-90.76-80.81-139.28-446.24-741.75-1590.55-860.96-2760.42-807.25,1147.4-45.78,2257.59,83.59,2696.29,812.82,27.98,46.51,53.73,91.07,77.69,133.71h-6.93c-23.78-42.3-49.3-86.45-77.01-132.51-446.24-741.75-1590.56-860.96-2760.42-807.25,1147.4-45.78,2257.59,83.59,2696.29,812.82,26.5,44.05,51,86.36,73.88,126.94h-6.92c-22.69-40.23-46.97-82.14-73.2-125.75-446.25-741.75-1590.57-860.97-2760.42-807.25,1147.4-45.78,2257.59,83.59,2696.29,812.82,25.03,41.61,48.28,81.66,70.06,120.18h-6.93c-21.59-38.16-44.61-77.81-69.38-118.98-446.24-741.75-1590.56-860.97-2760.42-807.25,1147.39-45.78,2257.59,83.59,2696.29,812.82,23.57,39.18,45.57,76.97,66.23,113.41h-6.93c-20.48-36.07-42.24-73.48-65.55-112.22-446.25-741.75-1590.57-860.97-2760.42-807.25,1147.4-45.78,2257.59,83.59,2696.29,812.82,22.11,36.76,42.84,72.3,62.39,106.65h-6.94c-19.35-33.98-39.85-69.13-61.7-105.45-446.24-741.75-1590.55-860.97-2760.42-807.25,1147.4-45.78,2257.59,83.59,2696.29,812.82,20.67,34.35,40.11,67.64,58.52,99.88h-6.93c-18.21-31.88-37.43-64.77-57.84-98.69-458.28-761.76-1652.79-866.91-2855.13-802.49-34.6,3.46-68.64,6.77-102.13,9.91-23.72,2.33-47.19,4.59-70.38,6.77-23.72,2.33-47.19,4.59-70.38,6.77-23.73,2.33-47.19,4.59-70.38,6.77-23.73,2.33-47.19,4.59-70.38,6.76-23.72,2.33-47.19,4.59-70.38,6.77-23.72,2.33-47.19,4.59-70.38,6.77-23.72,2.33-47.19,4.59-70.38,6.76-23.72,2.33-47.19,4.59-70.38,6.76-23.72,2.33-47.19,4.59-70.38,6.77-23.72,2.33-47.19,4.59-70.38,6.76-23.73,2.33-47.19,4.59-70.38,6.77-23.72,2.33-47.19,4.59-70.38,6.77-23.73,2.33-47.19,4.59-70.38,6.76-23.72,2.33-47.19,4.59-70.38,6.77-23.73,2.33-47.19,4.59-70.38,6.76-23.72,2.33-47.19,4.59-70.38,6.76-23.73,2.33-47.19,4.59-70.38,6.77-23.72,2.33-47.19,4.59-70.38,6.76-23.73,2.33-47.19,4.59-70.38,6.77-23.72,2.33-47.19,4.59-70.38,6.76-23.72,2.33-47.19,4.59-70.38,6.77-23.72,2.33-47.19,4.59-70.38,6.77-23.72,2.33-47.19,4.59-70.38,6.76-23.72,2.33-47.19,4.59-70.38,6.76-23.72,2.33-47.19,4.59-70.38,6.77-23.72,2.33-47.19,4.59-70.38,6.76-23.72,2.33-47.19,4.59-70.38,6.77-75.02,7.37-147.42,14-216.84,19.65-107.62,8.76-213.84,15.45-317.78,19.46v-3.74c21.39-.83,42.85-1.75,64.42-2.8-21.58,.81-43.04,1.49-64.42,2.06v-3.73c44.5-1.19,89.44-2.9,134.8-5.1-45.4,1.71-90.35,2.89-134.8,3.5v-3.73c67.3-.93,135.77-3.16,205.18-6.53-69.51,2.61-137.99,4-205.18,3.98v-3.73c89.75,.02,181.8-2.46,275.56-7.02-93.95,3.53-186.02,4.82-275.56,3.42v-3.72c111.77,1.75,227.5-.71,345.94-6.47-118.76,4.46-234.51,5.35-345.94,1.74v-3.72c133.3,4.33,272.83,2.19,416.32-4.79-143.98,5.41-283.53,5.58-416.32-1.17v-3.73c154.26,7.87,317.74,6.35,486.71-1.87-169.65,6.37-333.17,5.49-486.71-5.45v-3.75c174.58,12.49,362.17,11.91,557.09,2.44-195.85,7.35-383.51,5.04-557.09-11.26v-3.77c194.15,18.31,406.09,19.03,627.47,8.27-222.62,8.35-434.66,4.23-627.47-18.74v-3.81c212.86,25.48,449.41,27.86,697.85,15.78-250.05,9.39-486.76,3.02-697.85-28.11v-3.85c230.57,34.18,492.06,38.62,768.23,25.19-278.24,10.44-539.95,1.39-768.23-39.6v-3.91c247.13,44.62,533.94,51.55,838.61,36.74-307.29,11.53-594.43-.7-838.61-53.48v-4.01c262.35,57.07,574.92,66.96,908.99,50.73-337.33,12.66-650.39-3.32-908.99-70.15v-4.11c276,71.83,614.89,85.21,979.37,67.49-368.56,13.83-708.14-6.52-979.37-90.04v-4.25c287.77,89.3,653.66,106.77,1049.76,87.52-401.18,15.06-768.03-10.4-1049.76-113.72v-4.45c297.3,110.01,690.98,132.26,1120.14,111.41-435.48,16.35-830.52-15.02-1120.14-141.93v-4.76c304.06,134.63,726.56,162.48,1190.52,139.93-471.88,17.71-896.29-20.62-1190.52-175.82v-5.1c306.56,163.69,757.59,198.32,1256.93,174.35l.69-.08c-487.75,18.05-924.55-23.97-1218.89-193.35-13.21-7.6-26.1-15.49-38.72-23.61v-5.67c14.11,9.21,28.56,18.12,43.41,26.66,303.59,174.71,760.22,213.16,1268.06,190.01l2.67-.3c-482.17,16.74-913.49-26.08-1205.04-193.87-38.94-22.41-75.38-47.05-109.1-74.07v-6.54c35.03,28.57,73.01,54.53,113.79,78,300.63,173,751.33,212.41,1253.22,190.68l5.1-.56c-477.16,15.58-903.58-27.93-1192.63-194.27-67.78-39.01-127.97-84.77-179.49-138.09v-7.87c52.48,55.61,114.26,103.11,184.17,143.35,298.01,171.49,743.48,211.7,1240.1,191.22l6.77-.73c-472.53,14.51-894.44-29.64-1181.17-194.64-101.54-58.44-186.08-132.04-249.87-223.53v-10.3c64.13,95.14,150.33,171.24,254.56,231.22,295.58,170.1,736.24,211.05,1227.98,191.72l8.79-.94c-468.43,13.58-886.39-31.1-1171.08-194.94-145.14-83.53-255.55-198.01-320.25-351.49v-16.5c63.39,160.64,175.7,279.49,324.94,365.37,293.52,168.91,730.1,210.46,1217.7,192.11l10.29-1.08c-464.87,12.76-879.39-32.37-1162.3-195.18C45.24,2736.81-103.47,2362.75,92.57,1704.84h6.67c-195.91,656.92-48,1030.11,296.08,1228.12,291.73,167.88,724.79,209.95,1208.79,192.43l11.69-1.2c-461.82,12.07-873.4-33.46-1154.79-195.39C116.8,2730.72-32.06,2358.54,160.94,1704.84h6.67c-192.88,652.71-44.81,1024.03,298.09,1221.35,290.38,167.11,720.77,209.57,1202.06,192.69l12.65-1.3c-459.48,11.54-868.8-34.29-1149.02-195.55-343.02-197.4-492.06-567.68-302.07-1217.2h6.67c-189.88,648.52-41.62,1017.94,300.09,1214.59,289.5,166.6,718.16,209.31,1197.68,192.84l13.73-1.37c-458.14,11.24-866.18-34.75-1145.72-195.62-341.84-196.72-491.07-565.09-304.08-1210.44h6.67c-186.88,644.35-38.43,1011.86,302.1,1207.82,289.13,166.38,717.07,209.2,1195.85,192.89l14.52-1.4c-457.72,11.14-865.34-34.9-1144.68-195.64-340.63-196.03-489.98-562.54-305.99-1203.67h6.66c-183.88,640.14-35.31,1005.78,304.02,1201.06,289.13,166.39,717.07,209.19,1195.84,192.9l14.52-1.4c-457.72,11.14-865.35-34.9-1144.68-195.64-339.43-195.33-488.89-559.97-307.91-1196.9h6.66Z"/><path class="cls-4" d="M6186.77,0c702.65,315.72,1076.98,750.8,1313.38,1204.87C7276.21,755.91,6924.25,322.11,6261.16,0h15.17c633.57,310.76,981.45,723.9,1205.44,1154.13C7269.4,728.35,6941.93,316.18,6343.08,0h14.14c571.17,304.28,894.17,696.18,1106.17,1103.39C7262.2,700.04,6957.72,308.89,6417.08,0h13.46c514.57,296.48,814.07,667.74,1014.47,1052.65-190.33-381.58-473.15-752.22-960.84-1052.65h12.77c463.14,287.56,740.58,638.65,929.69,1001.9-179.75-360.37-442.01-710.98-881.42-1001.9h12.15c416.23,277.65,672.74,609,850.89,951.16-169.41-339.66-412.15-670.64-807.39-951.16h11.6c373.34,266.87,610,578.87,777.41,900.42-159.31-319.39-383.45-631.11-738.26-900.42h11.12c334.1,255.3,551.85,548.3,708.76,849.68-149.4-299.53-355.82-592.3-673.54-849.68h10.69c298.12,243.05,497.85,517.33,644.47,798.94-139.67-280.01-329.17-554.12-612.84-798.94h10.31c265.11,230.2,447.65,486.02,584.15,748.2C7204.64,487.38,7031.32,231.68,6778.93,0h9.95c234.79,216.79,400.92,454.39,527.47,697.46-120.66-241.91-278.49-479.43-502.11-697.46h9.61c206.94,202.89,357.37,422.48,474.12,646.71-111.36-223.27-254.39-442.8-451.58-646.71h9.37c181.35,188.55,316.75,390.31,423.83,595.97-102.19-204.87-231.06-406.58-403.95-595.97h9.21c157.84,173.82,278.83,357.91,376.36,545.23-93.11-186.68-208.41-370.73-358.94-545.23h8.95c136.24,158.74,243.52,325.29,331.61,494.49-84.13-168.67-186.37-335.21-316.35-494.49h8.69c116.4,143.34,210.52,292.48,289.28,443.75-75.24-150.85-164.94-299.98-276.01-443.75h8.46c98.18,127.66,179.68,259.51,249.18,393.01-66.42-133.17-144.15-265.02-237.87-393.01h8.33c81.47,111.74,150.82,226.38,211.16,342.26-57.68-115.65-123.92-230.28-201.72-342.26h8.27c66.13,95.61,123.84,193.11,175.07,291.53-49-98.24-104.17-195.74-167.35-291.53h8.06c52.08,79.28,98.71,159.72,140.91,240.78-40.37-80.94-84.9-161.4-134.66-240.78h7.85c39.2,62.79,75.21,126.22,108.44,190.04-31.79-63.74-66.21-127.18-103.69-190.04h7.79c27.42,46.16,53.22,92.63,77.52,139.3-23.26-46.63-47.96-93.1-74.18-139.3h7.74c16.64,29.42,32.64,58.95,48.06,88.56-14.76-29.59-30.09-59.12-46.02-88.56h7.56c6.79,12.59,13.5,25.19,20.08,37.82-6.3-12.62-12.73-25.22-19.23-37.82h20.76c58.95,125.38,108.71,251.55,153.2,376.44,6.22,16.94,12.36,33.85,18.38,50.74,6.22,16.93,12.36,33.85,18.38,50.74,6.22,16.93,12.36,33.85,18.38,50.74,6.22,16.94,12.36,33.84,18.38,50.74,6.22,16.93,12.36,33.84,18.38,50.74,6.22,16.93,12.36,33.85,18.38,50.74,6.22,16.93,12.36,33.85,18.38,50.74,6.22,16.93,12.36,33.85,18.38,50.74,6.22,16.93,12.36,33.85,18.38,50.74,6.22,16.93,12.36,33.85,18.38,50.74,6.22,16.93,12.36,33.85,18.38,50.74,6.22,16.93,12.36,33.85,18.38,50.74,6.22,16.94,12.36,33.85,18.38,50.74,6.22,16.93,12.36,33.85,18.38,50.74,6.22,16.93,12.36,33.86,18.38,50.74,6.22,16.93,12.36,33.85,18.38,50.74,6.22,16.93,12.36,33.85,18.38,50.74,6.22,16.93,12.36,33.86,18.38,50.74,6.22,16.93,12.36,33.85,18.38,50.74,6.22,16.93,12.36,33.86,18.38,50.74,6.22,16.93,12.36,33.85,18.38,50.74,3.35,9.13,6.68,18.25,9.97,27.38,254.68,471.78,691.8,747.72,1793.3,573.86v6.62c-1076.32,169.8-1520.22-88.74-1778.62-540.02l3.7,10.28c253.25,469.14,686.95,744.6,1774.92,576.71v6.66c-1063.03,163.97-1503.32-94.2-1760.24-542.9l3.7,10.28c251.82,466.51,681.99,741.57,1756.54,579.57v6.64c-1049.79,158.2-1486.41-99.63-1741.86-545.75l3.7,10.28c250.38,463.85,677.11,738.36,1738.16,582.27v6.62c-1036.44,152.42-1469.53-104.93-1723.48-548.43l3.7,10.28c248.92,461.14,672.2,735.14,1719.78,584.93v6.65c-1023.96,146.8-1453.3-110.61-1705.66-552.07l3.34,9.49c247.34,459.49,666.81,733.91,1702.33,589.31v6.66c-1013.2,141.47-1438.46-117.13-1689.07-557.86l2.85,8.3c245.59,459.34,660.93,735.4,1686.23,596.16v6.6c-1003.78,136.27-1424.84-124.33-1673.56-565.48l2.43,7.19c243.69,460.3,654.7,738.88,1671.13,604.85v6.64c-995.45,131.26-1412.07-132.11-1658.81-574.5l1.98,6c241.73,462.13,648.12,744.02,1656.83,615.02v6.67c-987.97,126.37-1399.96-140.32-1644.67-584.58l1.54,4.73c239.72,464.6,641.35,750.34,1643.13,626.27v6.59c-980.93,121.49-1388.38-148.77-1631-595.35l.91,2.83c237.63,467.85,634.44,758.02,1630.08,638.85v6.63c-974.69,116.69-1377.4-157.76-1617.87-607.34l.18,.59c235.5,471.95,627.15,767.39,1617.69,653.01v6.67c-964.22,111.39-1362.82-164.39-1601.55-613.45,233.81,471.63,621.34,768.65,1601.55,659.66v6.6c-950.9,105.77-1345.96-169.34-1583.17-615.52,232.34,468.67,616.53,764.86,1583.17,661.62v6.62c-937.59,100.2-1329.13-174.2-1564.79-617.5,230.86,465.69,611.68,761.05,1564.79,663.52v6.69c-924.4,94.68-1312.28-179.08-1546.41-619.47,229.37,462.69,606.68,757.34,1546.41,665.44v6.59c-911.13,89.18-1295.47-183.83-1528.03-621.28,227.87,459.65,601.82,753.39,1528.03,667.14v6.63c-897.92,83.72-1278.66-188.52-1509.65-623.02,226.35,456.59,596.87,749.46,1509.65,668.79v6.71c-884.83,78.34-1261.85-193.21-1491.27-624.76,224.84,453.54,591.78,745.63,1491.27,670.46v6.56c-871.61,72.95-1245.07-197.75-1472.89-626.28,223.29,450.41,586.87,741.51,1472.89,671.87v6.66c-858.49,67.63-1228.3-202.28-1454.51-627.78,221.74,447.29,581.81,737.47,1454.51,673.27v6.7c-845.47,62.37-1211.53-206.76-1436.13-629.23,220.18,444.16,576.69,733.45,1436.13,674.62v6.59c-832.33,57.11-1194.8-211.09-1417.75-630.47,218.6,440.96,571.67,729.2,1417.75,675.77v6.69c-819.33,51.93-1178.06-215.44-1399.37-631.72,217.01,437.77,566.51,725.05,1399.37,676.92v6.66c-806.34,46.8-1161.34-219.68-1380.99-632.84,215.41,434.53,561.34,720.8,1380.99,677.93v6.63c-793.33,41.69-1144.64-223.83-1362.61-633.82,213.79,431.26,556.2,716.44,1362.61,678.81v6.73c-780.47,36.67-1127.95-227.96-1344.23-634.8,212.17,427.99,550.91,712.17,1344.23,679.67v6.6c-976.31,40.27-1266.99-397.24-1478.31-992.94-6.2-16.79-12.33-33.69-18.38-50.74-6.2-16.78-12.33-33.68-18.38-50.74-6.2-16.78-12.33-33.68-18.38-50.74-6.2-16.79-12.33-33.69-18.38-50.74-6.2-16.79-12.33-33.69-18.38-50.74-6.2-16.78-12.33-33.69-18.38-50.74-6.19-16.79-12.33-33.68-18.38-50.74-6.2-16.78-12.33-33.69-18.38-50.74-6.19-16.79-12.34-33.68-18.38-50.74-6.2-16.78-12.33-33.69-18.38-50.74-6.2-16.79-12.33-33.69-18.38-50.74-6.2-16.78-12.33-33.69-18.38-50.74-6.2-16.78-12.33-33.69-18.38-50.74-6.2-16.79-12.33-33.69-18.38-50.74-6.2-16.78-12.33-33.69-18.38-50.74-6.19-16.78-12.33-33.69-18.38-50.74-6.19-16.79-12.33-33.69-18.38-50.74-6.2-16.78-12.33-33.69-18.38-50.74-6.2-16.79-12.33-33.69-18.38-50.74-6.2-16.79-12.33-33.69-18.38-50.74-6.2-16.78-12.33-33.69-18.38-50.74-6.2-16.78-12.33-33.69-18.38-50.74-6.14-16.63-12.21-33.36-18.2-50.25C7284.74,785.17,6906.7,327.36,6170.45,0h16.32Z"/></svg>