<?xml version="1.0" encoding="UTF-8"?><svg id="Layer_1" xmlns="http://www.w3.org/2000/svg" xmlns:xlink="http://www.w3.org/1999/xlink" viewBox="0 0 8953.39 3953.69"><defs><style>.cls-1{fill:url(#linear-gradient-2);}.cls-2{fill:url(#linear-gradient);opacity:.8;}.cls-3{clip-path:url(#clippath-1);}.cls-4{fill:#e0e0e0;fill-rule:evenodd;}.cls-5{clip-path:url(#clippath);}.cls-6{clip-rule:evenodd;fill:none;}</style><clipPath id="clippath"><path class="cls-6" d="M2131.62,0c218.94,542.43,826.83,1588.04,2082.33,848.04,868.2-511.71,1504.71-611.61,1928.98-510.59,664.43,158.21,687.05,906.97,1139.93,1475.29,455.32,571.4,1136.13,1063.56,1670.54,332.07V0H2131.62Z"/></clipPath><linearGradient id="linear-gradient" x1="5526.04" y1="-1117.68" x2="5550.13" y2="2622.55" gradientUnits="userSpaceOnUse"><stop offset="0" stop-color="#ebebeb"/><stop offset="1" stop-color="#fcfcfc"/></linearGradient><clipPath id="clippath-1"><path class="cls-6" d="M0,3953.69H7415.95c-275.22-499.96-858.04-1063.93-2060.55-816.73C1752.14,3877.66,1220.96,836.61,0,2373.43v1580.26Z"/></clipPath><linearGradient id="linear-gradient-2" x1="3735.77" y1="-224.61" x2="3687.59" y2="4316.77" xlink:href="#linear-gradient"/></defs><g class="cls-5"><rect class="cls-2" x="2131.62" width="6821.77" height="2876.29"/></g><g class="cls-3"><rect class="cls-1" y="836.61" width="7415.95" height="3117.07"/></g><path class="cls-4" d="M0,150.16C2.75,101.06,5.74,51.01,8.98,0h2.48C7.21,66.78,3.4,131.86,0,195.36v-45.19ZM163.8,0c-67.14,1118.04-11.95,1757.58,113.56,2099.68,107.32,292.53,266.17,367.78,443.89,339.13,5.95-2.72,11.9-5.44,17.88-8.11,8.69-4.01,17.39-7.99,26.13-11.9,8.69-4.01,17.39-7.99,26.12-11.89,8.69-4.01,17.39-7.98,26.13-11.9,8.69-4.01,17.39-7.98,26.12-11.89,8.69-4.01,17.39-7.99,26.13-11.89,8.69-4.01,17.39-7.99,26.12-11.9,8.69-4.01,17.39-7.99,26.13-11.89,8.69-4.01,17.39-7.99,26.12-11.9,8.69-4.01,17.39-7.98,26.13-11.89,8.69-4.01,17.39-7.98,26.12-11.89,8.69-4.01,17.39-7.99,26.12-11.9,8.69-4.01,17.4-7.98,26.13-11.89,8.69-4.01,17.39-7.98,26.12-11.89,8.69-4.01,17.4-7.98,26.13-11.9,8.69-4.01,17.39-7.98,26.12-11.89,8.69-4.01,17.4-7.98,26.13-11.9,8.69-4.01,17.4-7.99,26.12-11.89,8.69-4.01,17.4-7.98,26.13-11.89,8.69-4.01,17.39-7.98,26.12-11.9,8.69-4.01,17.4-7.99,26.13-11.89,8.69-4.01,17.4-7.98,26.12-11.89,8.69-4.01,17.39-7.98,26.13-11.9,8.69-4.02,17.4-7.98,26.12-11.89,8.69-4.01,17.39-7.99,26.13-11.9,8.69-4.02,17.39-7.99,26.13-11.89,528.33-243.88,1136.45-315.35,1343.12,1311.71,23.79,187.29,43.23,356.57,60.31,508.64h-2.56c-17.03-151.61-36.41-320.25-60.07-506.54-165.64-1304.08-590.41-1513.65-1024.66-1419.22,425.91-80.47,838.01,146.97,1000.85,1429.01,23.17,182.42,42.22,347.77,58.97,496.75h-2.56c-16.7-148.52-35.69-313.22-58.73-494.65-165.65-1304.08-590.41-1513.66-1024.66-1419.22,425.91-80.48,838.01,146.97,1000.85,1429.01,22.55,177.58,41.2,338.98,57.63,484.85h-2.56c-16.38-145.4-34.96-306.15-57.39-482.75-165.64-1304.08-590.41-1513.66-1024.66-1419.22,425.91-80.48,838.01,146.96,1000.85,1429.01,21.94,172.77,40.19,330.21,56.29,472.96h-2.56c-16.05-142.27-34.23-299.06-56.05-470.86-165.65-1304.08-590.41-1513.66-1024.66-1419.22,425.91-80.48,838.01,146.97,1000.85,1429.01,21.34,167.99,39.18,321.48,54.95,461.07h-2.56c-15.72-139.1-33.49-291.94-54.71-458.97-165.65-1304.07-590.41-1513.66-1024.66-1419.22,425.91-80.48,838.01,146.97,1000.85,1429.01,20.73,163.23,38.16,312.78,53.6,449.17h-2.56c-15.39-135.9-32.75-284.79-53.36-447.07-165.64-1304.08-590.41-1513.66-1024.66-1419.22,425.91-80.48,838.01,146.97,1000.85,1429.01,20.13,158.49,37.15,304.09,52.26,437.28h-2.56c-15.05-132.68-32-277.61-52.02-435.18-165.64-1304.08-590.41-1513.66-1024.66-1419.22,425.91-80.48,838.01,146.96,1000.85,1429.01,19.53,153.79,36.14,295.44,50.91,425.38h-2.56c-14.71-129.43-31.25-270.42-50.66-423.28-165.64-1304.07-590.41-1513.66-1024.66-1419.22,425.91-80.47,838.01,146.97,1000.85,1429.01,18.94,149.11,35.13,286.8,49.55,413.49h-2.56c-14.37-126.17-30.49-263.19-49.31-411.39-165.64-1304.08-590.41-1513.67-1024.66-1419.22,425.91-80.48,838.01,146.97,1000.85,1429.01,18.35,144.45,34.11,278.2,48.19,401.59h-2.56c-14.03-122.88-29.72-255.95-47.95-399.49-165.64-1304.08-590.41-1513.66-1024.66-1419.22,425.91-80.49,838.01,146.97,1000.85,1429.01,17.76,139.82,33.1,269.61,46.84,389.7h-2.56c-13.69-119.55-28.95-248.67-46.59-387.6-165.64-1304.07-590.41-1513.66-1024.66-1419.22,425.91-80.48,838.01,146.96,1000.85,1429.01,17.17,135.22,32.09,261.05,45.47,377.8h-2.56c-13.33-116.21-28.17-241.37-45.23-375.7-165.64-1304.07-590.4-1513.66-1024.66-1419.22,425.91-80.48,838.01,146.96,1000.85,1429.01,16.59,130.64,31.08,252.52,44.11,365.91h-2.57c-12.98-112.84-27.38-234.05-43.86-363.81-165.64-1304.07-590.41-1513.66-1024.66-1419.22,425.91-80.47,838.01,146.97,1000.85,1429.01,16.01,126.09,30.06,244,42.74,354.01h-2.56c-12.62-109.46-26.59-226.7-42.5-351.91-165.64-1304.07-590.41-1513.66-1024.66-1419.22,425.91-80.48,838.01,146.97,1000.85,1429.01,15.44,121.55,29.05,235.52,41.37,342.12h-2.57c-12.26-106.05-25.79-219.33-41.12-340.02-165.64-1304.08-590.41-1513.66-1024.66-1419.22,425.91-80.47,838.01,146.97,1000.85,1429.01,14.87,117.04,28.04,227.06,39.99,330.23h-2.57c-11.89-102.61-24.99-211.94-39.75-328.12-165.64-1304.07-590.41-1513.67-1024.66-1419.22,425.91-80.47,838.01,146.97,1000.85,1429.01,14.29,112.56,27.02,218.61,38.61,318.33h-2.57c-11.53-99.16-24.18-204.52-38.37-316.23-165.64-1304.07-590.41-1513.66-1024.66-1419.22,425.91-80.48,838.01,146.96,1000.85,1429.01,13.73,108.09,26.01,210.19,37.23,306.44h-2.57c-11.15-95.68-23.36-197.08-36.98-304.34-165.64-1304.08-590.41-1513.66-1024.66-1419.22,425.91-80.48,838.01,146.97,1000.85,1429.01,13.16,103.66,25,201.78,35.84,294.54h-2.57c-10.78-92.17-22.53-189.62-35.59-292.44-165.64-1304.08-590.41-1513.67-1024.66-1419.22,425.91-80.48,838.01,146.97,1000.85,1429.01,12.6,99.23,23.99,193.41,34.45,282.65h-2.57c-10.39-88.65-21.7-182.14-34.2-280.55-165.64-1304.08-590.41-1513.66-1024.66-1419.22,425.91-80.47,838.01,146.96,1000.85,1429.01,12.05,94.83,22.98,185.05,33.05,270.76h-2.57c-10.01-85.1-20.86-174.63-32.8-268.66-165.64-1304.08-590.41-1513.66-1024.66-1419.22,425.91-80.49,838,146.96,1000.85,1429.01,11.49,90.45,21.97,176.71,31.65,258.86h-2.57c-9.62-81.55-20.01-167.11-31.4-256.76-165.64-1304.08-590.41-1513.67-1024.66-1419.22,425.91-80.49,838.01,146.96,1000.85,1429.01,10.94,86.1,20.95,168.4,30.25,246.97h-2.57c-9.23-77.96-19.16-159.56-30-244.87-165.64-1304.07-590.41-1513.65-1024.66-1419.22,425.91-80.48,838.01,146.96,1000.85,1429.01,10.39,81.77,19.94,160.1,28.84,235.07h-2.57c-8.83-74.36-18.3-151.99-28.59-232.97-165.64-1304.08-590.41-1513.66-1024.66-1419.22,425.91-80.48,838.01,146.97,1000.85,1429.01,9.84,77.45,18.93,151.83,27.42,223.18h-2.57c-8.42-70.74-17.43-144.41-27.17-221.08-165.65-1304.08-590.41-1513.66-1024.66-1419.22,425.91-80.48,838.01,146.96,1000.85,1429.01,9.29,73.16,17.92,143.57,26,211.28h-2.57c-8.01-67.09-16.56-136.81-25.75-209.18-165.64-1304.08-590.41-1513.68-1024.66-1419.22,425.91-80.48,838.01,146.97,1000.85,1429.01,8.75,68.88,16.91,135.33,24.58,199.39h-2.57c-7.6-63.42-15.68-129.18-24.33-197.29-165.65-1304.08-590.41-1513.67-1024.66-1419.22,425.91-80.48,838.01,146.97,1000.85,1429.01,8.21,64.63,15.9,127.12,23.16,187.49h-2.57c-7.18-59.74-14.79-121.53-22.9-185.39-165.64-1304.07-590.41-1513.66-1024.66-1419.22,425.91-80.49,838.01,146.96,1000.85,1429.01,7.67,60.4,14.89,118.92,21.72,175.6h-2.57c-6.76-56.04-13.9-113.86-21.47-173.5-170.11-1339.25-613.51-1524.11-1059.81-1410.86-12.84,6.08-25.48,11.91-37.91,17.43-8.81,4.1-17.52,8.07-26.12,11.9-8.81,4.1-17.52,8.07-26.13,11.89-8.81,4.1-17.52,8.07-26.12,11.9-8.81,4.1-17.52,8.07-26.13,11.89-8.81,4.1-17.52,8.07-26.12,11.89-8.81,4.1-17.52,8.07-26.13,11.9-8.81,4.09-17.52,8.07-26.12,11.89-8.81,4.1-17.52,8.07-26.13,11.89-8.81,4.1-17.52,8.07-26.12,11.9-8.81,4.1-17.52,8.07-26.12,11.89-8.81,4.1-17.52,8.07-26.13,11.9-8.81,4.1-17.52,8.07-26.12,11.89-8.81,4.1-17.52,8.07-26.13,11.89-8.81,4.1-17.52,8.07-26.12,11.9-8.81,4.1-17.52,8.07-26.13,11.89-8.81,4.1-17.52,8.07-26.12,11.89-8.81,4.1-17.52,8.07-26.13,11.9-8.81,4.1-17.52,8.07-26.12,11.89-8.81,4.1-17.52,8.07-26.13,11.9-8.81,4.1-17.52,8.07-26.12,11.89-8.81,4.1-17.52,8.07-26.13,11.89-8.81,4.1-17.52,8.07-26.12,11.9-8.81,4.1-17.52,8.07-26.13,11.89-8.81,4.1-17.52,8.07-26.12,11.89-8.81,4.1-17.52,8.07-26.13,11.9-8.81,4.1-17.52,8.07-26.12,11.89-8.81,4.1-17.52,8.07-26.13,11.9-27.85,12.96-54.72,24.62-80.49,34.55-39.95,15.4-79.38,27.17-117.96,34.21v-6.58c7.94-1.45,15.91-3.08,23.91-4.92-8.01,1.42-15.98,2.62-23.91,3.63v-6.55c16.52-2.09,33.2-5.1,50.04-8.97-16.85,3-33.54,5.07-50.04,6.15v-6.56c24.98-1.63,50.4-5.56,76.16-11.49-25.8,4.59-51.22,7.03-76.16,7v-6.56c33.31,.04,67.48-4.33,102.29-12.34-34.88,6.2-69.05,8.48-102.29,6.02v-6.54c41.49,3.07,84.45-1.25,128.41-11.37-44.08,7.84-87.05,9.41-128.41,3.07v-6.54c49.48,7.61,101.27,3.85,154.54-8.42-53.44,9.5-105.25,9.82-154.54-2.06v-6.56c57.26,13.84,117.94,11.16,180.66-3.28-62.98,11.2-123.67,9.65-180.66-9.59v-6.6c64.8,21.96,134.44,20.95,206.79,4.29-72.7,12.92-142.36,8.86-206.79-19.8v-6.64c72.07,32.18,150.74,33.46,232.91,14.55-82.63,14.69-161.34,7.44-232.91-32.94v-6.7c79.01,44.8,166.82,48.98,259.04,27.75-92.82,16.5-180.68,5.32-259.04-49.42v-6.77c85.59,60.09,182.65,67.89,285.16,44.29-103.28,18.36-200.43,2.45-285.16-69.61v-6.87c91.73,78.45,198.2,90.63,311.29,64.59-114.06,20.28-220.65-1.23-311.29-94.03v-7.04c97.38,100.33,213.41,117.73,337.42,89.18-125.22,22.26-241.42-5.84-337.42-123.33v-7.23c102.45,126.28,228.25,149.81,363.54,118.66-136.81,24.32-262.86-11.46-363.54-158.29v-7.47c106.82,157,242.63,187.7,389.67,153.87-148.92,26.47-285.09-18.28-389.67-199.93v-7.82c110.36,193.41,256.49,232.53,415.79,195.86-161.65,28.74-308.29-26.42-415.79-249.53v-8.37c112.87,236.7,269.7,285.66,441.92,246.01-175.16,31.14-332.7-36.25-441.92-309.1v-8.97c113.8,287.78,281.22,348.67,466.57,306.53l.26-.14c-181.05,31.73-343.19-42.14-452.45-339.94-4.9-13.36-9.69-27.23-14.37-41.51v-9.96c5.24,16.19,10.6,31.85,16.11,46.88,112.69,307.15,282.19,374.76,470.7,334.05l.99-.52c-178.98,29.43-339.08-45.86-447.31-340.84-14.45-39.4-27.98-82.72-40.5-130.23v-11.5c13,50.23,27.1,95.87,42.24,137.13,111.59,304.16,278.89,373.43,465.19,335.23l1.89-.98c-177.12,27.39-335.41-49.11-442.7-341.54-25.16-68.58-47.5-149.04-66.62-242.78v-13.83c19.48,97.77,42.41,181.29,68.36,252.02,110.62,301.5,275.98,372.19,460.32,336.19l2.51-1.29c-175.4,25.51-332.01-52.1-438.45-342.2-37.69-102.74-69.07-232.15-92.75-392.99v-18.1c23.81,167.27,55.8,301.05,94.49,406.5,109.72,299.05,273.29,371.05,455.82,337.07l3.26-1.65c-173.88,23.87-329.02-54.69-434.7-342.72C65,2028.79,24.02,1827.53,0,1557.68v-29c23.53,282.43,65.22,491.38,120.62,642.36,108.95,296.96,271.01,370.01,452.01,337.74l3.82-1.9c-172.56,22.44-326.43-56.92-431.44-343.14C16.79,1814.3-38.41,1156.66,34.36,0h2.48C-35.89,1154.92,19.02,1811.03,146.74,2159.15c108.29,295.15,269.04,369.11,448.7,338.32l4.34-2.11c-171.43,21.22-324.2-58.82-428.65-343.51C43.36,1803.6-11.9,1149.27,59.74,0h2.48C-9.38,1147.53,45.58,1800.34,172.87,2147.26c107.79,293.79,267.55,368.45,446.2,338.77l4.7-2.28c-170.56,20.29-322.5-60.28-426.51-343.79C69.92,1792.91,14.6,1141.91,85.12,0h2.48c-70.48,1140.16-15.45,1789.64,111.39,2135.36,107.46,292.9,266.58,367.99,444.57,339.03l5.1-2.41c-170.06,19.76-321.52-61.1-425.29-343.92C96.49,1782.21,41.09,1134.58,110.5,0h2.47c-69.37,1132.83-14.27,1778.94,112.14,2123.47,107.32,292.52,266.17,367.79,443.89,339.13l5.39-2.47c-169.9,19.59-321.21-61.35-424.9-343.96C123.06,1771.53,67.62,1127.18,135.92,0h2.47c-68.26,1125.42-13.11,1768.26,112.85,2111.57,107.32,292.53,266.17,367.78,443.89,339.13l5.39-2.47c-169.9,19.59-321.21-61.36-424.9-343.96C149.63,1760.86,94.15,1119.8,161.33,0h2.47Z"/><path class="cls-4" d="M5718.77,0c702.65,315.72,1076.98,750.8,1313.38,1204.87C6808.21,755.91,6456.25,322.11,5793.16,0h15.17c633.57,310.76,981.45,723.9,1205.44,1154.13C6801.4,728.35,6473.93,316.18,5875.08,0h14.14c571.17,304.28,894.17,696.18,1106.17,1103.39C6794.2,700.04,6489.72,308.89,5949.08,0h13.46c514.57,296.48,814.07,667.74,1014.47,1052.65-190.33-381.58-473.15-752.22-960.84-1052.65h12.77c463.14,287.56,740.58,638.65,929.69,1001.9-179.75-360.37-442.01-710.98-881.42-1001.9h12.15c416.23,277.65,672.74,609,850.89,951.16-169.41-339.66-412.15-670.64-807.39-951.16h11.6c373.34,266.87,610,578.87,777.41,900.42-159.31-319.39-383.45-631.11-738.26-900.42h11.12c334.1,255.3,551.85,548.3,708.76,849.68-149.4-299.53-355.82-592.3-673.54-849.68h10.69c298.12,243.05,497.85,517.33,644.47,798.94-139.67-280.01-329.17-554.12-612.84-798.94h10.31c265.11,230.2,447.65,486.02,584.15,748.2C6736.64,487.38,6563.32,231.68,6310.93,0h9.95c234.79,216.79,400.92,454.39,527.47,697.46-120.66-241.91-278.49-479.43-502.11-697.46h9.61c206.94,202.89,357.37,422.48,474.12,646.71-111.36-223.27-254.39-442.8-451.58-646.71h9.37c181.35,188.55,316.75,390.31,423.83,595.97-102.19-204.87-231.06-406.58-403.95-595.97h9.21c157.84,173.82,278.83,357.91,376.36,545.23-93.11-186.68-208.41-370.73-358.94-545.23h8.95c136.24,158.74,243.52,325.29,331.61,494.49-84.13-168.67-186.37-335.21-316.35-494.49h8.69c116.4,143.34,210.52,292.48,289.28,443.75-75.24-150.85-164.94-299.98-276.01-443.75h8.46c98.18,127.66,179.68,259.51,249.18,393.01-66.42-133.17-144.15-265.02-237.87-393.01h8.33c81.47,111.74,150.82,226.38,211.16,342.26-57.68-115.65-123.92-230.28-201.72-342.26h8.27c66.13,95.61,123.84,193.11,175.07,291.53-49-98.24-104.17-195.74-167.35-291.53h8.06c52.08,79.28,98.71,159.72,140.91,240.78-40.37-80.94-84.9-161.4-134.66-240.78h7.85c39.2,62.79,75.21,126.22,108.44,190.04-31.79-63.74-66.21-127.18-103.69-190.04h7.79c27.42,46.16,53.22,92.63,77.52,139.3-23.26-46.63-47.96-93.1-74.18-139.3h7.74c16.64,29.42,32.64,58.95,48.06,88.56-14.76-29.59-30.09-59.12-46.02-88.56h7.56c6.79,12.59,13.5,25.19,20.08,37.82-6.3-12.62-12.73-25.22-19.23-37.82h20.76c58.95,125.38,108.71,251.55,153.2,376.44,6.22,16.94,12.36,33.85,18.38,50.74,6.22,16.93,12.36,33.85,18.38,50.74,6.22,16.93,12.36,33.85,18.38,50.74,6.22,16.94,12.36,33.84,18.38,50.74,6.22,16.93,12.36,33.84,18.38,50.74,6.22,16.93,12.36,33.85,18.38,50.74,6.22,16.93,12.36,33.85,18.38,50.74,6.22,16.93,12.36,33.85,18.38,50.74,6.22,16.93,12.36,33.85,18.38,50.74,6.22,16.93,12.36,33.85,18.38,50.74,6.22,16.93,12.36,33.85,18.38,50.74,6.22,16.93,12.36,33.85,18.38,50.74,6.22,16.94,12.36,33.85,18.38,50.74,6.22,16.93,12.36,33.85,18.38,50.74,6.22,16.93,12.36,33.86,18.38,50.74,6.22,16.93,12.36,33.85,18.38,50.74,6.22,16.93,12.36,33.85,18.38,50.74,6.22,16.93,12.36,33.86,18.38,50.74,6.22,16.93,12.36,33.85,18.38,50.74,6.22,16.93,12.36,33.86,18.38,50.74,6.22,16.93,12.36,33.85,18.38,50.74,3.35,9.13,6.68,18.25,9.97,27.38,254.68,471.78,691.8,747.72,1793.3,573.86v6.62c-1076.32,169.8-1520.22-88.74-1778.62-540.02l3.7,10.28c253.25,469.14,686.95,744.6,1774.92,576.71v6.66c-1063.03,163.97-1503.32-94.2-1760.24-542.9l3.7,10.28c251.82,466.51,681.99,741.57,1756.54,579.57v6.64c-1049.79,158.2-1486.41-99.63-1741.86-545.75l3.7,10.28c250.38,463.85,677.11,738.36,1738.16,582.27v6.62c-1036.44,152.42-1469.53-104.93-1723.48-548.43l3.7,10.28c248.92,461.14,672.2,735.14,1719.78,584.93v6.65c-1023.96,146.8-1453.3-110.61-1705.66-552.07l3.34,9.49c247.34,459.49,666.81,733.91,1702.33,589.31v6.66c-1013.2,141.47-1438.46-117.13-1689.07-557.86l2.85,8.3c245.59,459.34,660.93,735.4,1686.23,596.16v6.6c-1003.78,136.27-1424.84-124.33-1673.56-565.48l2.43,7.19c243.69,460.3,654.7,738.88,1671.13,604.85v6.64c-995.45,131.26-1412.07-132.11-1658.81-574.5l1.98,6c241.73,462.13,648.12,744.02,1656.83,615.02v6.67c-987.97,126.37-1399.96-140.32-1644.67-584.58l1.54,4.73c239.72,464.6,641.35,750.34,1643.13,626.27v6.59c-980.93,121.49-1388.38-148.77-1631-595.35l.91,2.83c237.63,467.85,634.44,758.02,1630.08,638.85v6.63c-974.69,116.69-1377.4-157.76-1617.87-607.34l.18,.59c235.5,471.95,627.15,767.39,1617.69,653.01v6.67c-964.22,111.39-1362.82-164.39-1601.55-613.45,233.81,471.63,621.34,768.65,1601.55,659.66v6.6c-950.9,105.77-1345.96-169.34-1583.17-615.52,232.34,468.67,616.53,764.86,1583.17,661.62v6.62c-937.59,100.2-1329.13-174.2-1564.79-617.5,230.86,465.69,611.68,761.05,1564.79,663.52v6.69c-924.4,94.68-1312.28-179.08-1546.41-619.47,229.37,462.69,606.68,757.34,1546.41,665.44v6.59c-911.13,89.18-1295.47-183.83-1528.03-621.28,227.87,459.65,601.82,753.39,1528.03,667.14v6.63c-897.92,83.72-1278.66-188.52-1509.65-623.02,226.35,456.59,596.87,749.46,1509.65,668.79v6.71c-884.83,78.34-1261.85-193.21-1491.27-624.76,224.84,453.54,591.78,745.63,1491.27,670.46v6.56c-871.61,72.95-1245.07-197.75-1472.89-626.28,223.29,450.41,586.87,741.51,1472.89,671.87v6.66c-858.49,67.63-1228.3-202.28-1454.51-627.78,221.74,447.29,581.81,737.47,1454.51,673.27v6.7c-845.47,62.37-1211.53-206.76-1436.13-629.23,220.18,444.16,576.69,733.45,1436.13,674.62v6.59c-832.33,57.11-1194.8-211.09-1417.75-630.47,218.6,440.96,571.67,729.2,1417.75,675.77v6.69c-819.33,51.93-1178.06-215.44-1399.37-631.72,217.01,437.77,566.51,725.05,1399.37,676.92v6.66c-806.34,46.8-1161.34-219.68-1380.99-632.84,215.41,434.53,561.34,720.8,1380.99,677.93v6.63c-793.33,41.69-1144.64-223.83-1362.61-633.82,213.79,431.26,556.2,716.44,1362.61,678.81v6.73c-780.47,36.67-1127.95-227.96-1344.23-634.8,212.17,427.99,550.91,712.17,1344.23,679.67v6.6c-976.31,40.27-1266.99-397.24-1478.31-992.94-6.2-16.79-12.33-33.69-18.38-50.74-6.2-16.78-12.33-33.68-18.38-50.74-6.2-16.78-12.33-33.68-18.38-50.74-6.2-16.79-12.33-33.69-18.38-50.74-6.2-16.79-12.33-33.69-18.38-50.74-6.2-16.78-12.33-33.69-18.38-50.74-6.19-16.79-12.33-33.68-18.38-50.74-6.2-16.78-12.33-33.69-18.38-50.74-6.19-16.79-12.34-33.68-18.38-50.74-6.2-16.78-12.33-33.69-18.38-50.74-6.2-16.79-12.33-33.69-18.38-50.74-6.2-16.78-12.33-33.69-18.38-50.74-6.2-16.78-12.33-33.69-18.38-50.74-6.2-16.79-12.33-33.69-18.38-50.74-6.2-16.78-12.33-33.69-18.38-50.74-6.19-16.78-12.33-33.69-18.38-50.74-6.19-16.79-12.33-33.69-18.38-50.74-6.2-16.78-12.33-33.69-18.38-50.74-6.2-16.79-12.33-33.69-18.38-50.74-6.2-16.79-12.33-33.69-18.38-50.74-6.2-16.78-12.33-33.69-18.38-50.74-6.2-16.78-12.33-33.69-18.38-50.74-6.14-16.63-12.21-33.36-18.2-50.25C6816.74,785.17,6438.7,327.36,5702.45,0h16.32Z"/></svg>